G04 #@! TF.GenerationSoftware,KiCad,Pcbnew,(5.1.4)-1*
G04 #@! TF.CreationDate,2021-07-09T03:02:35+09:00*
G04 #@! TF.ProjectId,RemoteEmergencyKill,52656d6f-7465-4456-9d65-7267656e6379,rev?*
G04 #@! TF.SameCoordinates,Original*
G04 #@! TF.FileFunction,Paste,Top*
G04 #@! TF.FilePolarity,Positive*
%FSLAX46Y46*%
G04 Gerber Fmt 4.6, Leading zero omitted, Abs format (unit mm)*
G04 Created by KiCad (PCBNEW (5.1.4)-1) date 2021-07-09 03:02:35*
%MOMM*%
%LPD*%
G04 APERTURE LIST*
%ADD10R,0.740000X2.400000*%
%ADD11C,0.100000*%
%ADD12C,0.600000*%
%ADD13C,0.800000*%
%ADD14R,0.900000X4.500000*%
%ADD15C,0.875000*%
%ADD16R,1.100000X1.100000*%
%ADD17C,1.000000*%
G04 APERTURE END LIST*
D10*
X125854999Y-113790000D03*
X123314999Y-113790000D03*
X125854999Y-117690000D03*
X124584999Y-117690000D03*
X124584999Y-113790000D03*
X127124999Y-117690000D03*
X127124999Y-113790000D03*
X123314999Y-117690000D03*
X128394999Y-117690000D03*
X128394999Y-113790000D03*
X129664999Y-117690000D03*
X137284999Y-113790000D03*
X138554999Y-117690000D03*
X134744999Y-117690000D03*
X133474999Y-113790000D03*
X137284999Y-117690000D03*
X133474999Y-117690000D03*
X132204999Y-113790000D03*
X136014999Y-113790000D03*
X130934999Y-113790000D03*
X132204999Y-117690000D03*
X130934999Y-117690000D03*
X136014999Y-117690000D03*
X129664999Y-113790000D03*
X138554999Y-113790000D03*
X134744999Y-113790000D03*
D11*
G36*
X126209703Y-91915722D02*
G01*
X126224264Y-91917882D01*
X126238543Y-91921459D01*
X126252403Y-91926418D01*
X126265710Y-91932712D01*
X126278336Y-91940280D01*
X126290159Y-91949048D01*
X126301066Y-91958934D01*
X126310952Y-91969841D01*
X126319720Y-91981664D01*
X126327288Y-91994290D01*
X126333582Y-92007597D01*
X126338541Y-92021457D01*
X126342118Y-92035736D01*
X126344278Y-92050297D01*
X126345000Y-92065000D01*
X126345000Y-93090000D01*
X126344278Y-93104703D01*
X126342118Y-93119264D01*
X126338541Y-93133543D01*
X126333582Y-93147403D01*
X126327288Y-93160710D01*
X126319720Y-93173336D01*
X126310952Y-93185159D01*
X126301066Y-93196066D01*
X126290159Y-93205952D01*
X126278336Y-93214720D01*
X126265710Y-93222288D01*
X126252403Y-93228582D01*
X126238543Y-93233541D01*
X126224264Y-93237118D01*
X126209703Y-93239278D01*
X126195000Y-93240000D01*
X125895000Y-93240000D01*
X125880297Y-93239278D01*
X125865736Y-93237118D01*
X125851457Y-93233541D01*
X125837597Y-93228582D01*
X125824290Y-93222288D01*
X125811664Y-93214720D01*
X125799841Y-93205952D01*
X125788934Y-93196066D01*
X125779048Y-93185159D01*
X125770280Y-93173336D01*
X125762712Y-93160710D01*
X125756418Y-93147403D01*
X125751459Y-93133543D01*
X125747882Y-93119264D01*
X125745722Y-93104703D01*
X125745000Y-93090000D01*
X125745000Y-92065000D01*
X125745722Y-92050297D01*
X125747882Y-92035736D01*
X125751459Y-92021457D01*
X125756418Y-92007597D01*
X125762712Y-91994290D01*
X125770280Y-91981664D01*
X125779048Y-91969841D01*
X125788934Y-91958934D01*
X125799841Y-91949048D01*
X125811664Y-91940280D01*
X125824290Y-91932712D01*
X125837597Y-91926418D01*
X125851457Y-91921459D01*
X125865736Y-91917882D01*
X125880297Y-91915722D01*
X125895000Y-91915000D01*
X126195000Y-91915000D01*
X126209703Y-91915722D01*
X126209703Y-91915722D01*
G37*
D12*
X126045000Y-92577500D03*
D11*
G36*
X124309703Y-91915722D02*
G01*
X124324264Y-91917882D01*
X124338543Y-91921459D01*
X124352403Y-91926418D01*
X124365710Y-91932712D01*
X124378336Y-91940280D01*
X124390159Y-91949048D01*
X124401066Y-91958934D01*
X124410952Y-91969841D01*
X124419720Y-91981664D01*
X124427288Y-91994290D01*
X124433582Y-92007597D01*
X124438541Y-92021457D01*
X124442118Y-92035736D01*
X124444278Y-92050297D01*
X124445000Y-92065000D01*
X124445000Y-93090000D01*
X124444278Y-93104703D01*
X124442118Y-93119264D01*
X124438541Y-93133543D01*
X124433582Y-93147403D01*
X124427288Y-93160710D01*
X124419720Y-93173336D01*
X124410952Y-93185159D01*
X124401066Y-93196066D01*
X124390159Y-93205952D01*
X124378336Y-93214720D01*
X124365710Y-93222288D01*
X124352403Y-93228582D01*
X124338543Y-93233541D01*
X124324264Y-93237118D01*
X124309703Y-93239278D01*
X124295000Y-93240000D01*
X123995000Y-93240000D01*
X123980297Y-93239278D01*
X123965736Y-93237118D01*
X123951457Y-93233541D01*
X123937597Y-93228582D01*
X123924290Y-93222288D01*
X123911664Y-93214720D01*
X123899841Y-93205952D01*
X123888934Y-93196066D01*
X123879048Y-93185159D01*
X123870280Y-93173336D01*
X123862712Y-93160710D01*
X123856418Y-93147403D01*
X123851459Y-93133543D01*
X123847882Y-93119264D01*
X123845722Y-93104703D01*
X123845000Y-93090000D01*
X123845000Y-92065000D01*
X123845722Y-92050297D01*
X123847882Y-92035736D01*
X123851459Y-92021457D01*
X123856418Y-92007597D01*
X123862712Y-91994290D01*
X123870280Y-91981664D01*
X123879048Y-91969841D01*
X123888934Y-91958934D01*
X123899841Y-91949048D01*
X123911664Y-91940280D01*
X123924290Y-91932712D01*
X123937597Y-91926418D01*
X123951457Y-91921459D01*
X123965736Y-91917882D01*
X123980297Y-91915722D01*
X123995000Y-91915000D01*
X124295000Y-91915000D01*
X124309703Y-91915722D01*
X124309703Y-91915722D01*
G37*
D12*
X124145000Y-92577500D03*
D11*
G36*
X124309703Y-89640722D02*
G01*
X124324264Y-89642882D01*
X124338543Y-89646459D01*
X124352403Y-89651418D01*
X124365710Y-89657712D01*
X124378336Y-89665280D01*
X124390159Y-89674048D01*
X124401066Y-89683934D01*
X124410952Y-89694841D01*
X124419720Y-89706664D01*
X124427288Y-89719290D01*
X124433582Y-89732597D01*
X124438541Y-89746457D01*
X124442118Y-89760736D01*
X124444278Y-89775297D01*
X124445000Y-89790000D01*
X124445000Y-90815000D01*
X124444278Y-90829703D01*
X124442118Y-90844264D01*
X124438541Y-90858543D01*
X124433582Y-90872403D01*
X124427288Y-90885710D01*
X124419720Y-90898336D01*
X124410952Y-90910159D01*
X124401066Y-90921066D01*
X124390159Y-90930952D01*
X124378336Y-90939720D01*
X124365710Y-90947288D01*
X124352403Y-90953582D01*
X124338543Y-90958541D01*
X124324264Y-90962118D01*
X124309703Y-90964278D01*
X124295000Y-90965000D01*
X123995000Y-90965000D01*
X123980297Y-90964278D01*
X123965736Y-90962118D01*
X123951457Y-90958541D01*
X123937597Y-90953582D01*
X123924290Y-90947288D01*
X123911664Y-90939720D01*
X123899841Y-90930952D01*
X123888934Y-90921066D01*
X123879048Y-90910159D01*
X123870280Y-90898336D01*
X123862712Y-90885710D01*
X123856418Y-90872403D01*
X123851459Y-90858543D01*
X123847882Y-90844264D01*
X123845722Y-90829703D01*
X123845000Y-90815000D01*
X123845000Y-89790000D01*
X123845722Y-89775297D01*
X123847882Y-89760736D01*
X123851459Y-89746457D01*
X123856418Y-89732597D01*
X123862712Y-89719290D01*
X123870280Y-89706664D01*
X123879048Y-89694841D01*
X123888934Y-89683934D01*
X123899841Y-89674048D01*
X123911664Y-89665280D01*
X123924290Y-89657712D01*
X123937597Y-89651418D01*
X123951457Y-89646459D01*
X123965736Y-89642882D01*
X123980297Y-89640722D01*
X123995000Y-89640000D01*
X124295000Y-89640000D01*
X124309703Y-89640722D01*
X124309703Y-89640722D01*
G37*
D12*
X124145000Y-90302500D03*
D11*
G36*
X125259703Y-89640722D02*
G01*
X125274264Y-89642882D01*
X125288543Y-89646459D01*
X125302403Y-89651418D01*
X125315710Y-89657712D01*
X125328336Y-89665280D01*
X125340159Y-89674048D01*
X125351066Y-89683934D01*
X125360952Y-89694841D01*
X125369720Y-89706664D01*
X125377288Y-89719290D01*
X125383582Y-89732597D01*
X125388541Y-89746457D01*
X125392118Y-89760736D01*
X125394278Y-89775297D01*
X125395000Y-89790000D01*
X125395000Y-90815000D01*
X125394278Y-90829703D01*
X125392118Y-90844264D01*
X125388541Y-90858543D01*
X125383582Y-90872403D01*
X125377288Y-90885710D01*
X125369720Y-90898336D01*
X125360952Y-90910159D01*
X125351066Y-90921066D01*
X125340159Y-90930952D01*
X125328336Y-90939720D01*
X125315710Y-90947288D01*
X125302403Y-90953582D01*
X125288543Y-90958541D01*
X125274264Y-90962118D01*
X125259703Y-90964278D01*
X125245000Y-90965000D01*
X124945000Y-90965000D01*
X124930297Y-90964278D01*
X124915736Y-90962118D01*
X124901457Y-90958541D01*
X124887597Y-90953582D01*
X124874290Y-90947288D01*
X124861664Y-90939720D01*
X124849841Y-90930952D01*
X124838934Y-90921066D01*
X124829048Y-90910159D01*
X124820280Y-90898336D01*
X124812712Y-90885710D01*
X124806418Y-90872403D01*
X124801459Y-90858543D01*
X124797882Y-90844264D01*
X124795722Y-90829703D01*
X124795000Y-90815000D01*
X124795000Y-89790000D01*
X124795722Y-89775297D01*
X124797882Y-89760736D01*
X124801459Y-89746457D01*
X124806418Y-89732597D01*
X124812712Y-89719290D01*
X124820280Y-89706664D01*
X124829048Y-89694841D01*
X124838934Y-89683934D01*
X124849841Y-89674048D01*
X124861664Y-89665280D01*
X124874290Y-89657712D01*
X124887597Y-89651418D01*
X124901457Y-89646459D01*
X124915736Y-89642882D01*
X124930297Y-89640722D01*
X124945000Y-89640000D01*
X125245000Y-89640000D01*
X125259703Y-89640722D01*
X125259703Y-89640722D01*
G37*
D12*
X125095000Y-90302500D03*
D11*
G36*
X126209703Y-89640722D02*
G01*
X126224264Y-89642882D01*
X126238543Y-89646459D01*
X126252403Y-89651418D01*
X126265710Y-89657712D01*
X126278336Y-89665280D01*
X126290159Y-89674048D01*
X126301066Y-89683934D01*
X126310952Y-89694841D01*
X126319720Y-89706664D01*
X126327288Y-89719290D01*
X126333582Y-89732597D01*
X126338541Y-89746457D01*
X126342118Y-89760736D01*
X126344278Y-89775297D01*
X126345000Y-89790000D01*
X126345000Y-90815000D01*
X126344278Y-90829703D01*
X126342118Y-90844264D01*
X126338541Y-90858543D01*
X126333582Y-90872403D01*
X126327288Y-90885710D01*
X126319720Y-90898336D01*
X126310952Y-90910159D01*
X126301066Y-90921066D01*
X126290159Y-90930952D01*
X126278336Y-90939720D01*
X126265710Y-90947288D01*
X126252403Y-90953582D01*
X126238543Y-90958541D01*
X126224264Y-90962118D01*
X126209703Y-90964278D01*
X126195000Y-90965000D01*
X125895000Y-90965000D01*
X125880297Y-90964278D01*
X125865736Y-90962118D01*
X125851457Y-90958541D01*
X125837597Y-90953582D01*
X125824290Y-90947288D01*
X125811664Y-90939720D01*
X125799841Y-90930952D01*
X125788934Y-90921066D01*
X125779048Y-90910159D01*
X125770280Y-90898336D01*
X125762712Y-90885710D01*
X125756418Y-90872403D01*
X125751459Y-90858543D01*
X125747882Y-90844264D01*
X125745722Y-90829703D01*
X125745000Y-90815000D01*
X125745000Y-89790000D01*
X125745722Y-89775297D01*
X125747882Y-89760736D01*
X125751459Y-89746457D01*
X125756418Y-89732597D01*
X125762712Y-89719290D01*
X125770280Y-89706664D01*
X125779048Y-89694841D01*
X125788934Y-89683934D01*
X125799841Y-89674048D01*
X125811664Y-89665280D01*
X125824290Y-89657712D01*
X125837597Y-89651418D01*
X125851457Y-89646459D01*
X125865736Y-89642882D01*
X125880297Y-89640722D01*
X125895000Y-89640000D01*
X126195000Y-89640000D01*
X126209703Y-89640722D01*
X126209703Y-89640722D01*
G37*
D12*
X126045000Y-90302500D03*
D11*
G36*
X140094703Y-82570722D02*
G01*
X140109264Y-82572882D01*
X140123543Y-82576459D01*
X140137403Y-82581418D01*
X140150710Y-82587712D01*
X140163336Y-82595280D01*
X140175159Y-82604048D01*
X140186066Y-82613934D01*
X140195952Y-82624841D01*
X140204720Y-82636664D01*
X140212288Y-82649290D01*
X140218582Y-82662597D01*
X140223541Y-82676457D01*
X140227118Y-82690736D01*
X140229278Y-82705297D01*
X140230000Y-82720000D01*
X140230000Y-83020000D01*
X140229278Y-83034703D01*
X140227118Y-83049264D01*
X140223541Y-83063543D01*
X140218582Y-83077403D01*
X140212288Y-83090710D01*
X140204720Y-83103336D01*
X140195952Y-83115159D01*
X140186066Y-83126066D01*
X140175159Y-83135952D01*
X140163336Y-83144720D01*
X140150710Y-83152288D01*
X140137403Y-83158582D01*
X140123543Y-83163541D01*
X140109264Y-83167118D01*
X140094703Y-83169278D01*
X140080000Y-83170000D01*
X139055000Y-83170000D01*
X139040297Y-83169278D01*
X139025736Y-83167118D01*
X139011457Y-83163541D01*
X138997597Y-83158582D01*
X138984290Y-83152288D01*
X138971664Y-83144720D01*
X138959841Y-83135952D01*
X138948934Y-83126066D01*
X138939048Y-83115159D01*
X138930280Y-83103336D01*
X138922712Y-83090710D01*
X138916418Y-83077403D01*
X138911459Y-83063543D01*
X138907882Y-83049264D01*
X138905722Y-83034703D01*
X138905000Y-83020000D01*
X138905000Y-82720000D01*
X138905722Y-82705297D01*
X138907882Y-82690736D01*
X138911459Y-82676457D01*
X138916418Y-82662597D01*
X138922712Y-82649290D01*
X138930280Y-82636664D01*
X138939048Y-82624841D01*
X138948934Y-82613934D01*
X138959841Y-82604048D01*
X138971664Y-82595280D01*
X138984290Y-82587712D01*
X138997597Y-82581418D01*
X139011457Y-82576459D01*
X139025736Y-82572882D01*
X139040297Y-82570722D01*
X139055000Y-82570000D01*
X140080000Y-82570000D01*
X140094703Y-82570722D01*
X140094703Y-82570722D01*
G37*
D12*
X139567500Y-82870000D03*
D11*
G36*
X140094703Y-84470722D02*
G01*
X140109264Y-84472882D01*
X140123543Y-84476459D01*
X140137403Y-84481418D01*
X140150710Y-84487712D01*
X140163336Y-84495280D01*
X140175159Y-84504048D01*
X140186066Y-84513934D01*
X140195952Y-84524841D01*
X140204720Y-84536664D01*
X140212288Y-84549290D01*
X140218582Y-84562597D01*
X140223541Y-84576457D01*
X140227118Y-84590736D01*
X140229278Y-84605297D01*
X140230000Y-84620000D01*
X140230000Y-84920000D01*
X140229278Y-84934703D01*
X140227118Y-84949264D01*
X140223541Y-84963543D01*
X140218582Y-84977403D01*
X140212288Y-84990710D01*
X140204720Y-85003336D01*
X140195952Y-85015159D01*
X140186066Y-85026066D01*
X140175159Y-85035952D01*
X140163336Y-85044720D01*
X140150710Y-85052288D01*
X140137403Y-85058582D01*
X140123543Y-85063541D01*
X140109264Y-85067118D01*
X140094703Y-85069278D01*
X140080000Y-85070000D01*
X139055000Y-85070000D01*
X139040297Y-85069278D01*
X139025736Y-85067118D01*
X139011457Y-85063541D01*
X138997597Y-85058582D01*
X138984290Y-85052288D01*
X138971664Y-85044720D01*
X138959841Y-85035952D01*
X138948934Y-85026066D01*
X138939048Y-85015159D01*
X138930280Y-85003336D01*
X138922712Y-84990710D01*
X138916418Y-84977403D01*
X138911459Y-84963543D01*
X138907882Y-84949264D01*
X138905722Y-84934703D01*
X138905000Y-84920000D01*
X138905000Y-84620000D01*
X138905722Y-84605297D01*
X138907882Y-84590736D01*
X138911459Y-84576457D01*
X138916418Y-84562597D01*
X138922712Y-84549290D01*
X138930280Y-84536664D01*
X138939048Y-84524841D01*
X138948934Y-84513934D01*
X138959841Y-84504048D01*
X138971664Y-84495280D01*
X138984290Y-84487712D01*
X138997597Y-84481418D01*
X139011457Y-84476459D01*
X139025736Y-84472882D01*
X139040297Y-84470722D01*
X139055000Y-84470000D01*
X140080000Y-84470000D01*
X140094703Y-84470722D01*
X140094703Y-84470722D01*
G37*
D12*
X139567500Y-84770000D03*
D11*
G36*
X137819703Y-84470722D02*
G01*
X137834264Y-84472882D01*
X137848543Y-84476459D01*
X137862403Y-84481418D01*
X137875710Y-84487712D01*
X137888336Y-84495280D01*
X137900159Y-84504048D01*
X137911066Y-84513934D01*
X137920952Y-84524841D01*
X137929720Y-84536664D01*
X137937288Y-84549290D01*
X137943582Y-84562597D01*
X137948541Y-84576457D01*
X137952118Y-84590736D01*
X137954278Y-84605297D01*
X137955000Y-84620000D01*
X137955000Y-84920000D01*
X137954278Y-84934703D01*
X137952118Y-84949264D01*
X137948541Y-84963543D01*
X137943582Y-84977403D01*
X137937288Y-84990710D01*
X137929720Y-85003336D01*
X137920952Y-85015159D01*
X137911066Y-85026066D01*
X137900159Y-85035952D01*
X137888336Y-85044720D01*
X137875710Y-85052288D01*
X137862403Y-85058582D01*
X137848543Y-85063541D01*
X137834264Y-85067118D01*
X137819703Y-85069278D01*
X137805000Y-85070000D01*
X136780000Y-85070000D01*
X136765297Y-85069278D01*
X136750736Y-85067118D01*
X136736457Y-85063541D01*
X136722597Y-85058582D01*
X136709290Y-85052288D01*
X136696664Y-85044720D01*
X136684841Y-85035952D01*
X136673934Y-85026066D01*
X136664048Y-85015159D01*
X136655280Y-85003336D01*
X136647712Y-84990710D01*
X136641418Y-84977403D01*
X136636459Y-84963543D01*
X136632882Y-84949264D01*
X136630722Y-84934703D01*
X136630000Y-84920000D01*
X136630000Y-84620000D01*
X136630722Y-84605297D01*
X136632882Y-84590736D01*
X136636459Y-84576457D01*
X136641418Y-84562597D01*
X136647712Y-84549290D01*
X136655280Y-84536664D01*
X136664048Y-84524841D01*
X136673934Y-84513934D01*
X136684841Y-84504048D01*
X136696664Y-84495280D01*
X136709290Y-84487712D01*
X136722597Y-84481418D01*
X136736457Y-84476459D01*
X136750736Y-84472882D01*
X136765297Y-84470722D01*
X136780000Y-84470000D01*
X137805000Y-84470000D01*
X137819703Y-84470722D01*
X137819703Y-84470722D01*
G37*
D12*
X137292500Y-84770000D03*
D11*
G36*
X137819703Y-83520722D02*
G01*
X137834264Y-83522882D01*
X137848543Y-83526459D01*
X137862403Y-83531418D01*
X137875710Y-83537712D01*
X137888336Y-83545280D01*
X137900159Y-83554048D01*
X137911066Y-83563934D01*
X137920952Y-83574841D01*
X137929720Y-83586664D01*
X137937288Y-83599290D01*
X137943582Y-83612597D01*
X137948541Y-83626457D01*
X137952118Y-83640736D01*
X137954278Y-83655297D01*
X137955000Y-83670000D01*
X137955000Y-83970000D01*
X137954278Y-83984703D01*
X137952118Y-83999264D01*
X137948541Y-84013543D01*
X137943582Y-84027403D01*
X137937288Y-84040710D01*
X137929720Y-84053336D01*
X137920952Y-84065159D01*
X137911066Y-84076066D01*
X137900159Y-84085952D01*
X137888336Y-84094720D01*
X137875710Y-84102288D01*
X137862403Y-84108582D01*
X137848543Y-84113541D01*
X137834264Y-84117118D01*
X137819703Y-84119278D01*
X137805000Y-84120000D01*
X136780000Y-84120000D01*
X136765297Y-84119278D01*
X136750736Y-84117118D01*
X136736457Y-84113541D01*
X136722597Y-84108582D01*
X136709290Y-84102288D01*
X136696664Y-84094720D01*
X136684841Y-84085952D01*
X136673934Y-84076066D01*
X136664048Y-84065159D01*
X136655280Y-84053336D01*
X136647712Y-84040710D01*
X136641418Y-84027403D01*
X136636459Y-84013543D01*
X136632882Y-83999264D01*
X136630722Y-83984703D01*
X136630000Y-83970000D01*
X136630000Y-83670000D01*
X136630722Y-83655297D01*
X136632882Y-83640736D01*
X136636459Y-83626457D01*
X136641418Y-83612597D01*
X136647712Y-83599290D01*
X136655280Y-83586664D01*
X136664048Y-83574841D01*
X136673934Y-83563934D01*
X136684841Y-83554048D01*
X136696664Y-83545280D01*
X136709290Y-83537712D01*
X136722597Y-83531418D01*
X136736457Y-83526459D01*
X136750736Y-83522882D01*
X136765297Y-83520722D01*
X136780000Y-83520000D01*
X137805000Y-83520000D01*
X137819703Y-83520722D01*
X137819703Y-83520722D01*
G37*
D12*
X137292500Y-83820000D03*
D11*
G36*
X137819703Y-82570722D02*
G01*
X137834264Y-82572882D01*
X137848543Y-82576459D01*
X137862403Y-82581418D01*
X137875710Y-82587712D01*
X137888336Y-82595280D01*
X137900159Y-82604048D01*
X137911066Y-82613934D01*
X137920952Y-82624841D01*
X137929720Y-82636664D01*
X137937288Y-82649290D01*
X137943582Y-82662597D01*
X137948541Y-82676457D01*
X137952118Y-82690736D01*
X137954278Y-82705297D01*
X137955000Y-82720000D01*
X137955000Y-83020000D01*
X137954278Y-83034703D01*
X137952118Y-83049264D01*
X137948541Y-83063543D01*
X137943582Y-83077403D01*
X137937288Y-83090710D01*
X137929720Y-83103336D01*
X137920952Y-83115159D01*
X137911066Y-83126066D01*
X137900159Y-83135952D01*
X137888336Y-83144720D01*
X137875710Y-83152288D01*
X137862403Y-83158582D01*
X137848543Y-83163541D01*
X137834264Y-83167118D01*
X137819703Y-83169278D01*
X137805000Y-83170000D01*
X136780000Y-83170000D01*
X136765297Y-83169278D01*
X136750736Y-83167118D01*
X136736457Y-83163541D01*
X136722597Y-83158582D01*
X136709290Y-83152288D01*
X136696664Y-83144720D01*
X136684841Y-83135952D01*
X136673934Y-83126066D01*
X136664048Y-83115159D01*
X136655280Y-83103336D01*
X136647712Y-83090710D01*
X136641418Y-83077403D01*
X136636459Y-83063543D01*
X136632882Y-83049264D01*
X136630722Y-83034703D01*
X136630000Y-83020000D01*
X136630000Y-82720000D01*
X136630722Y-82705297D01*
X136632882Y-82690736D01*
X136636459Y-82676457D01*
X136641418Y-82662597D01*
X136647712Y-82649290D01*
X136655280Y-82636664D01*
X136664048Y-82624841D01*
X136673934Y-82613934D01*
X136684841Y-82604048D01*
X136696664Y-82595280D01*
X136709290Y-82587712D01*
X136722597Y-82581418D01*
X136736457Y-82576459D01*
X136750736Y-82572882D01*
X136765297Y-82570722D01*
X136780000Y-82570000D01*
X137805000Y-82570000D01*
X137819703Y-82570722D01*
X137819703Y-82570722D01*
G37*
D12*
X137292500Y-82870000D03*
D11*
G36*
X120309603Y-102660963D02*
G01*
X120329018Y-102663843D01*
X120348057Y-102668612D01*
X120366537Y-102675224D01*
X120384279Y-102683616D01*
X120401114Y-102693706D01*
X120416879Y-102705398D01*
X120431421Y-102718579D01*
X120444602Y-102733121D01*
X120456294Y-102748886D01*
X120466384Y-102765721D01*
X120474776Y-102783463D01*
X120481388Y-102801943D01*
X120486157Y-102820982D01*
X120489037Y-102840397D01*
X120490000Y-102860000D01*
X120490000Y-103260000D01*
X120489037Y-103279603D01*
X120486157Y-103299018D01*
X120481388Y-103318057D01*
X120474776Y-103336537D01*
X120466384Y-103354279D01*
X120456294Y-103371114D01*
X120444602Y-103386879D01*
X120431421Y-103401421D01*
X120416879Y-103414602D01*
X120401114Y-103426294D01*
X120384279Y-103436384D01*
X120366537Y-103444776D01*
X120348057Y-103451388D01*
X120329018Y-103456157D01*
X120309603Y-103459037D01*
X120290000Y-103460000D01*
X119740000Y-103460000D01*
X119720397Y-103459037D01*
X119700982Y-103456157D01*
X119681943Y-103451388D01*
X119663463Y-103444776D01*
X119645721Y-103436384D01*
X119628886Y-103426294D01*
X119613121Y-103414602D01*
X119598579Y-103401421D01*
X119585398Y-103386879D01*
X119573706Y-103371114D01*
X119563616Y-103354279D01*
X119555224Y-103336537D01*
X119548612Y-103318057D01*
X119543843Y-103299018D01*
X119540963Y-103279603D01*
X119540000Y-103260000D01*
X119540000Y-102860000D01*
X119540963Y-102840397D01*
X119543843Y-102820982D01*
X119548612Y-102801943D01*
X119555224Y-102783463D01*
X119563616Y-102765721D01*
X119573706Y-102748886D01*
X119585398Y-102733121D01*
X119598579Y-102718579D01*
X119613121Y-102705398D01*
X119628886Y-102693706D01*
X119645721Y-102683616D01*
X119663463Y-102675224D01*
X119681943Y-102668612D01*
X119700982Y-102663843D01*
X119720397Y-102660963D01*
X119740000Y-102660000D01*
X120290000Y-102660000D01*
X120309603Y-102660963D01*
X120309603Y-102660963D01*
G37*
D13*
X120015000Y-103060000D03*
D11*
G36*
X120309603Y-101010963D02*
G01*
X120329018Y-101013843D01*
X120348057Y-101018612D01*
X120366537Y-101025224D01*
X120384279Y-101033616D01*
X120401114Y-101043706D01*
X120416879Y-101055398D01*
X120431421Y-101068579D01*
X120444602Y-101083121D01*
X120456294Y-101098886D01*
X120466384Y-101115721D01*
X120474776Y-101133463D01*
X120481388Y-101151943D01*
X120486157Y-101170982D01*
X120489037Y-101190397D01*
X120490000Y-101210000D01*
X120490000Y-101610000D01*
X120489037Y-101629603D01*
X120486157Y-101649018D01*
X120481388Y-101668057D01*
X120474776Y-101686537D01*
X120466384Y-101704279D01*
X120456294Y-101721114D01*
X120444602Y-101736879D01*
X120431421Y-101751421D01*
X120416879Y-101764602D01*
X120401114Y-101776294D01*
X120384279Y-101786384D01*
X120366537Y-101794776D01*
X120348057Y-101801388D01*
X120329018Y-101806157D01*
X120309603Y-101809037D01*
X120290000Y-101810000D01*
X119740000Y-101810000D01*
X119720397Y-101809037D01*
X119700982Y-101806157D01*
X119681943Y-101801388D01*
X119663463Y-101794776D01*
X119645721Y-101786384D01*
X119628886Y-101776294D01*
X119613121Y-101764602D01*
X119598579Y-101751421D01*
X119585398Y-101736879D01*
X119573706Y-101721114D01*
X119563616Y-101704279D01*
X119555224Y-101686537D01*
X119548612Y-101668057D01*
X119543843Y-101649018D01*
X119540963Y-101629603D01*
X119540000Y-101610000D01*
X119540000Y-101210000D01*
X119540963Y-101190397D01*
X119543843Y-101170982D01*
X119548612Y-101151943D01*
X119555224Y-101133463D01*
X119563616Y-101115721D01*
X119573706Y-101098886D01*
X119585398Y-101083121D01*
X119598579Y-101068579D01*
X119613121Y-101055398D01*
X119628886Y-101043706D01*
X119645721Y-101033616D01*
X119663463Y-101025224D01*
X119681943Y-101018612D01*
X119700982Y-101013843D01*
X119720397Y-101010963D01*
X119740000Y-101010000D01*
X120290000Y-101010000D01*
X120309603Y-101010963D01*
X120309603Y-101010963D01*
G37*
D13*
X120015000Y-101410000D03*
D11*
G36*
X120309603Y-109010963D02*
G01*
X120329018Y-109013843D01*
X120348057Y-109018612D01*
X120366537Y-109025224D01*
X120384279Y-109033616D01*
X120401114Y-109043706D01*
X120416879Y-109055398D01*
X120431421Y-109068579D01*
X120444602Y-109083121D01*
X120456294Y-109098886D01*
X120466384Y-109115721D01*
X120474776Y-109133463D01*
X120481388Y-109151943D01*
X120486157Y-109170982D01*
X120489037Y-109190397D01*
X120490000Y-109210000D01*
X120490000Y-109610000D01*
X120489037Y-109629603D01*
X120486157Y-109649018D01*
X120481388Y-109668057D01*
X120474776Y-109686537D01*
X120466384Y-109704279D01*
X120456294Y-109721114D01*
X120444602Y-109736879D01*
X120431421Y-109751421D01*
X120416879Y-109764602D01*
X120401114Y-109776294D01*
X120384279Y-109786384D01*
X120366537Y-109794776D01*
X120348057Y-109801388D01*
X120329018Y-109806157D01*
X120309603Y-109809037D01*
X120290000Y-109810000D01*
X119740000Y-109810000D01*
X119720397Y-109809037D01*
X119700982Y-109806157D01*
X119681943Y-109801388D01*
X119663463Y-109794776D01*
X119645721Y-109786384D01*
X119628886Y-109776294D01*
X119613121Y-109764602D01*
X119598579Y-109751421D01*
X119585398Y-109736879D01*
X119573706Y-109721114D01*
X119563616Y-109704279D01*
X119555224Y-109686537D01*
X119548612Y-109668057D01*
X119543843Y-109649018D01*
X119540963Y-109629603D01*
X119540000Y-109610000D01*
X119540000Y-109210000D01*
X119540963Y-109190397D01*
X119543843Y-109170982D01*
X119548612Y-109151943D01*
X119555224Y-109133463D01*
X119563616Y-109115721D01*
X119573706Y-109098886D01*
X119585398Y-109083121D01*
X119598579Y-109068579D01*
X119613121Y-109055398D01*
X119628886Y-109043706D01*
X119645721Y-109033616D01*
X119663463Y-109025224D01*
X119681943Y-109018612D01*
X119700982Y-109013843D01*
X119720397Y-109010963D01*
X119740000Y-109010000D01*
X120290000Y-109010000D01*
X120309603Y-109010963D01*
X120309603Y-109010963D01*
G37*
D13*
X120015000Y-109410000D03*
D11*
G36*
X120309603Y-107360963D02*
G01*
X120329018Y-107363843D01*
X120348057Y-107368612D01*
X120366537Y-107375224D01*
X120384279Y-107383616D01*
X120401114Y-107393706D01*
X120416879Y-107405398D01*
X120431421Y-107418579D01*
X120444602Y-107433121D01*
X120456294Y-107448886D01*
X120466384Y-107465721D01*
X120474776Y-107483463D01*
X120481388Y-107501943D01*
X120486157Y-107520982D01*
X120489037Y-107540397D01*
X120490000Y-107560000D01*
X120490000Y-107960000D01*
X120489037Y-107979603D01*
X120486157Y-107999018D01*
X120481388Y-108018057D01*
X120474776Y-108036537D01*
X120466384Y-108054279D01*
X120456294Y-108071114D01*
X120444602Y-108086879D01*
X120431421Y-108101421D01*
X120416879Y-108114602D01*
X120401114Y-108126294D01*
X120384279Y-108136384D01*
X120366537Y-108144776D01*
X120348057Y-108151388D01*
X120329018Y-108156157D01*
X120309603Y-108159037D01*
X120290000Y-108160000D01*
X119740000Y-108160000D01*
X119720397Y-108159037D01*
X119700982Y-108156157D01*
X119681943Y-108151388D01*
X119663463Y-108144776D01*
X119645721Y-108136384D01*
X119628886Y-108126294D01*
X119613121Y-108114602D01*
X119598579Y-108101421D01*
X119585398Y-108086879D01*
X119573706Y-108071114D01*
X119563616Y-108054279D01*
X119555224Y-108036537D01*
X119548612Y-108018057D01*
X119543843Y-107999018D01*
X119540963Y-107979603D01*
X119540000Y-107960000D01*
X119540000Y-107560000D01*
X119540963Y-107540397D01*
X119543843Y-107520982D01*
X119548612Y-107501943D01*
X119555224Y-107483463D01*
X119563616Y-107465721D01*
X119573706Y-107448886D01*
X119585398Y-107433121D01*
X119598579Y-107418579D01*
X119613121Y-107405398D01*
X119628886Y-107393706D01*
X119645721Y-107383616D01*
X119663463Y-107375224D01*
X119681943Y-107368612D01*
X119700982Y-107363843D01*
X119720397Y-107360963D01*
X119740000Y-107360000D01*
X120290000Y-107360000D01*
X120309603Y-107360963D01*
X120309603Y-107360963D01*
G37*
D13*
X120015000Y-107760000D03*
D11*
G36*
X126659603Y-107360963D02*
G01*
X126679018Y-107363843D01*
X126698057Y-107368612D01*
X126716537Y-107375224D01*
X126734279Y-107383616D01*
X126751114Y-107393706D01*
X126766879Y-107405398D01*
X126781421Y-107418579D01*
X126794602Y-107433121D01*
X126806294Y-107448886D01*
X126816384Y-107465721D01*
X126824776Y-107483463D01*
X126831388Y-107501943D01*
X126836157Y-107520982D01*
X126839037Y-107540397D01*
X126840000Y-107560000D01*
X126840000Y-107960000D01*
X126839037Y-107979603D01*
X126836157Y-107999018D01*
X126831388Y-108018057D01*
X126824776Y-108036537D01*
X126816384Y-108054279D01*
X126806294Y-108071114D01*
X126794602Y-108086879D01*
X126781421Y-108101421D01*
X126766879Y-108114602D01*
X126751114Y-108126294D01*
X126734279Y-108136384D01*
X126716537Y-108144776D01*
X126698057Y-108151388D01*
X126679018Y-108156157D01*
X126659603Y-108159037D01*
X126640000Y-108160000D01*
X126090000Y-108160000D01*
X126070397Y-108159037D01*
X126050982Y-108156157D01*
X126031943Y-108151388D01*
X126013463Y-108144776D01*
X125995721Y-108136384D01*
X125978886Y-108126294D01*
X125963121Y-108114602D01*
X125948579Y-108101421D01*
X125935398Y-108086879D01*
X125923706Y-108071114D01*
X125913616Y-108054279D01*
X125905224Y-108036537D01*
X125898612Y-108018057D01*
X125893843Y-107999018D01*
X125890963Y-107979603D01*
X125890000Y-107960000D01*
X125890000Y-107560000D01*
X125890963Y-107540397D01*
X125893843Y-107520982D01*
X125898612Y-107501943D01*
X125905224Y-107483463D01*
X125913616Y-107465721D01*
X125923706Y-107448886D01*
X125935398Y-107433121D01*
X125948579Y-107418579D01*
X125963121Y-107405398D01*
X125978886Y-107393706D01*
X125995721Y-107383616D01*
X126013463Y-107375224D01*
X126031943Y-107368612D01*
X126050982Y-107363843D01*
X126070397Y-107360963D01*
X126090000Y-107360000D01*
X126640000Y-107360000D01*
X126659603Y-107360963D01*
X126659603Y-107360963D01*
G37*
D13*
X126365000Y-107760000D03*
D11*
G36*
X126659603Y-109010963D02*
G01*
X126679018Y-109013843D01*
X126698057Y-109018612D01*
X126716537Y-109025224D01*
X126734279Y-109033616D01*
X126751114Y-109043706D01*
X126766879Y-109055398D01*
X126781421Y-109068579D01*
X126794602Y-109083121D01*
X126806294Y-109098886D01*
X126816384Y-109115721D01*
X126824776Y-109133463D01*
X126831388Y-109151943D01*
X126836157Y-109170982D01*
X126839037Y-109190397D01*
X126840000Y-109210000D01*
X126840000Y-109610000D01*
X126839037Y-109629603D01*
X126836157Y-109649018D01*
X126831388Y-109668057D01*
X126824776Y-109686537D01*
X126816384Y-109704279D01*
X126806294Y-109721114D01*
X126794602Y-109736879D01*
X126781421Y-109751421D01*
X126766879Y-109764602D01*
X126751114Y-109776294D01*
X126734279Y-109786384D01*
X126716537Y-109794776D01*
X126698057Y-109801388D01*
X126679018Y-109806157D01*
X126659603Y-109809037D01*
X126640000Y-109810000D01*
X126090000Y-109810000D01*
X126070397Y-109809037D01*
X126050982Y-109806157D01*
X126031943Y-109801388D01*
X126013463Y-109794776D01*
X125995721Y-109786384D01*
X125978886Y-109776294D01*
X125963121Y-109764602D01*
X125948579Y-109751421D01*
X125935398Y-109736879D01*
X125923706Y-109721114D01*
X125913616Y-109704279D01*
X125905224Y-109686537D01*
X125898612Y-109668057D01*
X125893843Y-109649018D01*
X125890963Y-109629603D01*
X125890000Y-109610000D01*
X125890000Y-109210000D01*
X125890963Y-109190397D01*
X125893843Y-109170982D01*
X125898612Y-109151943D01*
X125905224Y-109133463D01*
X125913616Y-109115721D01*
X125923706Y-109098886D01*
X125935398Y-109083121D01*
X125948579Y-109068579D01*
X125963121Y-109055398D01*
X125978886Y-109043706D01*
X125995721Y-109033616D01*
X126013463Y-109025224D01*
X126031943Y-109018612D01*
X126050982Y-109013843D01*
X126070397Y-109010963D01*
X126090000Y-109010000D01*
X126640000Y-109010000D01*
X126659603Y-109010963D01*
X126659603Y-109010963D01*
G37*
D13*
X126365000Y-109410000D03*
D11*
G36*
X120944603Y-88055963D02*
G01*
X120964018Y-88058843D01*
X120983057Y-88063612D01*
X121001537Y-88070224D01*
X121019279Y-88078616D01*
X121036114Y-88088706D01*
X121051879Y-88100398D01*
X121066421Y-88113579D01*
X121079602Y-88128121D01*
X121091294Y-88143886D01*
X121101384Y-88160721D01*
X121109776Y-88178463D01*
X121116388Y-88196943D01*
X121121157Y-88215982D01*
X121124037Y-88235397D01*
X121125000Y-88255000D01*
X121125000Y-88655000D01*
X121124037Y-88674603D01*
X121121157Y-88694018D01*
X121116388Y-88713057D01*
X121109776Y-88731537D01*
X121101384Y-88749279D01*
X121091294Y-88766114D01*
X121079602Y-88781879D01*
X121066421Y-88796421D01*
X121051879Y-88809602D01*
X121036114Y-88821294D01*
X121019279Y-88831384D01*
X121001537Y-88839776D01*
X120983057Y-88846388D01*
X120964018Y-88851157D01*
X120944603Y-88854037D01*
X120925000Y-88855000D01*
X120375000Y-88855000D01*
X120355397Y-88854037D01*
X120335982Y-88851157D01*
X120316943Y-88846388D01*
X120298463Y-88839776D01*
X120280721Y-88831384D01*
X120263886Y-88821294D01*
X120248121Y-88809602D01*
X120233579Y-88796421D01*
X120220398Y-88781879D01*
X120208706Y-88766114D01*
X120198616Y-88749279D01*
X120190224Y-88731537D01*
X120183612Y-88713057D01*
X120178843Y-88694018D01*
X120175963Y-88674603D01*
X120175000Y-88655000D01*
X120175000Y-88255000D01*
X120175963Y-88235397D01*
X120178843Y-88215982D01*
X120183612Y-88196943D01*
X120190224Y-88178463D01*
X120198616Y-88160721D01*
X120208706Y-88143886D01*
X120220398Y-88128121D01*
X120233579Y-88113579D01*
X120248121Y-88100398D01*
X120263886Y-88088706D01*
X120280721Y-88078616D01*
X120298463Y-88070224D01*
X120316943Y-88063612D01*
X120335982Y-88058843D01*
X120355397Y-88055963D01*
X120375000Y-88055000D01*
X120925000Y-88055000D01*
X120944603Y-88055963D01*
X120944603Y-88055963D01*
G37*
D13*
X120650000Y-88455000D03*
D11*
G36*
X120944603Y-86405963D02*
G01*
X120964018Y-86408843D01*
X120983057Y-86413612D01*
X121001537Y-86420224D01*
X121019279Y-86428616D01*
X121036114Y-86438706D01*
X121051879Y-86450398D01*
X121066421Y-86463579D01*
X121079602Y-86478121D01*
X121091294Y-86493886D01*
X121101384Y-86510721D01*
X121109776Y-86528463D01*
X121116388Y-86546943D01*
X121121157Y-86565982D01*
X121124037Y-86585397D01*
X121125000Y-86605000D01*
X121125000Y-87005000D01*
X121124037Y-87024603D01*
X121121157Y-87044018D01*
X121116388Y-87063057D01*
X121109776Y-87081537D01*
X121101384Y-87099279D01*
X121091294Y-87116114D01*
X121079602Y-87131879D01*
X121066421Y-87146421D01*
X121051879Y-87159602D01*
X121036114Y-87171294D01*
X121019279Y-87181384D01*
X121001537Y-87189776D01*
X120983057Y-87196388D01*
X120964018Y-87201157D01*
X120944603Y-87204037D01*
X120925000Y-87205000D01*
X120375000Y-87205000D01*
X120355397Y-87204037D01*
X120335982Y-87201157D01*
X120316943Y-87196388D01*
X120298463Y-87189776D01*
X120280721Y-87181384D01*
X120263886Y-87171294D01*
X120248121Y-87159602D01*
X120233579Y-87146421D01*
X120220398Y-87131879D01*
X120208706Y-87116114D01*
X120198616Y-87099279D01*
X120190224Y-87081537D01*
X120183612Y-87063057D01*
X120178843Y-87044018D01*
X120175963Y-87024603D01*
X120175000Y-87005000D01*
X120175000Y-86605000D01*
X120175963Y-86585397D01*
X120178843Y-86565982D01*
X120183612Y-86546943D01*
X120190224Y-86528463D01*
X120198616Y-86510721D01*
X120208706Y-86493886D01*
X120220398Y-86478121D01*
X120233579Y-86463579D01*
X120248121Y-86450398D01*
X120263886Y-86438706D01*
X120280721Y-86428616D01*
X120298463Y-86420224D01*
X120316943Y-86413612D01*
X120335982Y-86408843D01*
X120355397Y-86405963D01*
X120375000Y-86405000D01*
X120925000Y-86405000D01*
X120944603Y-86405963D01*
X120944603Y-86405963D01*
G37*
D13*
X120650000Y-86805000D03*
D11*
G36*
X120944603Y-81325963D02*
G01*
X120964018Y-81328843D01*
X120983057Y-81333612D01*
X121001537Y-81340224D01*
X121019279Y-81348616D01*
X121036114Y-81358706D01*
X121051879Y-81370398D01*
X121066421Y-81383579D01*
X121079602Y-81398121D01*
X121091294Y-81413886D01*
X121101384Y-81430721D01*
X121109776Y-81448463D01*
X121116388Y-81466943D01*
X121121157Y-81485982D01*
X121124037Y-81505397D01*
X121125000Y-81525000D01*
X121125000Y-81925000D01*
X121124037Y-81944603D01*
X121121157Y-81964018D01*
X121116388Y-81983057D01*
X121109776Y-82001537D01*
X121101384Y-82019279D01*
X121091294Y-82036114D01*
X121079602Y-82051879D01*
X121066421Y-82066421D01*
X121051879Y-82079602D01*
X121036114Y-82091294D01*
X121019279Y-82101384D01*
X121001537Y-82109776D01*
X120983057Y-82116388D01*
X120964018Y-82121157D01*
X120944603Y-82124037D01*
X120925000Y-82125000D01*
X120375000Y-82125000D01*
X120355397Y-82124037D01*
X120335982Y-82121157D01*
X120316943Y-82116388D01*
X120298463Y-82109776D01*
X120280721Y-82101384D01*
X120263886Y-82091294D01*
X120248121Y-82079602D01*
X120233579Y-82066421D01*
X120220398Y-82051879D01*
X120208706Y-82036114D01*
X120198616Y-82019279D01*
X120190224Y-82001537D01*
X120183612Y-81983057D01*
X120178843Y-81964018D01*
X120175963Y-81944603D01*
X120175000Y-81925000D01*
X120175000Y-81525000D01*
X120175963Y-81505397D01*
X120178843Y-81485982D01*
X120183612Y-81466943D01*
X120190224Y-81448463D01*
X120198616Y-81430721D01*
X120208706Y-81413886D01*
X120220398Y-81398121D01*
X120233579Y-81383579D01*
X120248121Y-81370398D01*
X120263886Y-81358706D01*
X120280721Y-81348616D01*
X120298463Y-81340224D01*
X120316943Y-81333612D01*
X120335982Y-81328843D01*
X120355397Y-81325963D01*
X120375000Y-81325000D01*
X120925000Y-81325000D01*
X120944603Y-81325963D01*
X120944603Y-81325963D01*
G37*
D13*
X120650000Y-81725000D03*
D11*
G36*
X120944603Y-82975963D02*
G01*
X120964018Y-82978843D01*
X120983057Y-82983612D01*
X121001537Y-82990224D01*
X121019279Y-82998616D01*
X121036114Y-83008706D01*
X121051879Y-83020398D01*
X121066421Y-83033579D01*
X121079602Y-83048121D01*
X121091294Y-83063886D01*
X121101384Y-83080721D01*
X121109776Y-83098463D01*
X121116388Y-83116943D01*
X121121157Y-83135982D01*
X121124037Y-83155397D01*
X121125000Y-83175000D01*
X121125000Y-83575000D01*
X121124037Y-83594603D01*
X121121157Y-83614018D01*
X121116388Y-83633057D01*
X121109776Y-83651537D01*
X121101384Y-83669279D01*
X121091294Y-83686114D01*
X121079602Y-83701879D01*
X121066421Y-83716421D01*
X121051879Y-83729602D01*
X121036114Y-83741294D01*
X121019279Y-83751384D01*
X121001537Y-83759776D01*
X120983057Y-83766388D01*
X120964018Y-83771157D01*
X120944603Y-83774037D01*
X120925000Y-83775000D01*
X120375000Y-83775000D01*
X120355397Y-83774037D01*
X120335982Y-83771157D01*
X120316943Y-83766388D01*
X120298463Y-83759776D01*
X120280721Y-83751384D01*
X120263886Y-83741294D01*
X120248121Y-83729602D01*
X120233579Y-83716421D01*
X120220398Y-83701879D01*
X120208706Y-83686114D01*
X120198616Y-83669279D01*
X120190224Y-83651537D01*
X120183612Y-83633057D01*
X120178843Y-83614018D01*
X120175963Y-83594603D01*
X120175000Y-83575000D01*
X120175000Y-83175000D01*
X120175963Y-83155397D01*
X120178843Y-83135982D01*
X120183612Y-83116943D01*
X120190224Y-83098463D01*
X120198616Y-83080721D01*
X120208706Y-83063886D01*
X120220398Y-83048121D01*
X120233579Y-83033579D01*
X120248121Y-83020398D01*
X120263886Y-83008706D01*
X120280721Y-82998616D01*
X120298463Y-82990224D01*
X120316943Y-82983612D01*
X120335982Y-82978843D01*
X120355397Y-82975963D01*
X120375000Y-82975000D01*
X120925000Y-82975000D01*
X120944603Y-82975963D01*
X120944603Y-82975963D01*
G37*
D13*
X120650000Y-83375000D03*
D11*
G36*
X143919603Y-82075963D02*
G01*
X143939018Y-82078843D01*
X143958057Y-82083612D01*
X143976537Y-82090224D01*
X143994279Y-82098616D01*
X144011114Y-82108706D01*
X144026879Y-82120398D01*
X144041421Y-82133579D01*
X144054602Y-82148121D01*
X144066294Y-82163886D01*
X144076384Y-82180721D01*
X144084776Y-82198463D01*
X144091388Y-82216943D01*
X144096157Y-82235982D01*
X144099037Y-82255397D01*
X144100000Y-82275000D01*
X144100000Y-82825000D01*
X144099037Y-82844603D01*
X144096157Y-82864018D01*
X144091388Y-82883057D01*
X144084776Y-82901537D01*
X144076384Y-82919279D01*
X144066294Y-82936114D01*
X144054602Y-82951879D01*
X144041421Y-82966421D01*
X144026879Y-82979602D01*
X144011114Y-82991294D01*
X143994279Y-83001384D01*
X143976537Y-83009776D01*
X143958057Y-83016388D01*
X143939018Y-83021157D01*
X143919603Y-83024037D01*
X143900000Y-83025000D01*
X143500000Y-83025000D01*
X143480397Y-83024037D01*
X143460982Y-83021157D01*
X143441943Y-83016388D01*
X143423463Y-83009776D01*
X143405721Y-83001384D01*
X143388886Y-82991294D01*
X143373121Y-82979602D01*
X143358579Y-82966421D01*
X143345398Y-82951879D01*
X143333706Y-82936114D01*
X143323616Y-82919279D01*
X143315224Y-82901537D01*
X143308612Y-82883057D01*
X143303843Y-82864018D01*
X143300963Y-82844603D01*
X143300000Y-82825000D01*
X143300000Y-82275000D01*
X143300963Y-82255397D01*
X143303843Y-82235982D01*
X143308612Y-82216943D01*
X143315224Y-82198463D01*
X143323616Y-82180721D01*
X143333706Y-82163886D01*
X143345398Y-82148121D01*
X143358579Y-82133579D01*
X143373121Y-82120398D01*
X143388886Y-82108706D01*
X143405721Y-82098616D01*
X143423463Y-82090224D01*
X143441943Y-82083612D01*
X143460982Y-82078843D01*
X143480397Y-82075963D01*
X143500000Y-82075000D01*
X143900000Y-82075000D01*
X143919603Y-82075963D01*
X143919603Y-82075963D01*
G37*
D13*
X143700000Y-82550000D03*
D11*
G36*
X142269603Y-82075963D02*
G01*
X142289018Y-82078843D01*
X142308057Y-82083612D01*
X142326537Y-82090224D01*
X142344279Y-82098616D01*
X142361114Y-82108706D01*
X142376879Y-82120398D01*
X142391421Y-82133579D01*
X142404602Y-82148121D01*
X142416294Y-82163886D01*
X142426384Y-82180721D01*
X142434776Y-82198463D01*
X142441388Y-82216943D01*
X142446157Y-82235982D01*
X142449037Y-82255397D01*
X142450000Y-82275000D01*
X142450000Y-82825000D01*
X142449037Y-82844603D01*
X142446157Y-82864018D01*
X142441388Y-82883057D01*
X142434776Y-82901537D01*
X142426384Y-82919279D01*
X142416294Y-82936114D01*
X142404602Y-82951879D01*
X142391421Y-82966421D01*
X142376879Y-82979602D01*
X142361114Y-82991294D01*
X142344279Y-83001384D01*
X142326537Y-83009776D01*
X142308057Y-83016388D01*
X142289018Y-83021157D01*
X142269603Y-83024037D01*
X142250000Y-83025000D01*
X141850000Y-83025000D01*
X141830397Y-83024037D01*
X141810982Y-83021157D01*
X141791943Y-83016388D01*
X141773463Y-83009776D01*
X141755721Y-83001384D01*
X141738886Y-82991294D01*
X141723121Y-82979602D01*
X141708579Y-82966421D01*
X141695398Y-82951879D01*
X141683706Y-82936114D01*
X141673616Y-82919279D01*
X141665224Y-82901537D01*
X141658612Y-82883057D01*
X141653843Y-82864018D01*
X141650963Y-82844603D01*
X141650000Y-82825000D01*
X141650000Y-82275000D01*
X141650963Y-82255397D01*
X141653843Y-82235982D01*
X141658612Y-82216943D01*
X141665224Y-82198463D01*
X141673616Y-82180721D01*
X141683706Y-82163886D01*
X141695398Y-82148121D01*
X141708579Y-82133579D01*
X141723121Y-82120398D01*
X141738886Y-82108706D01*
X141755721Y-82098616D01*
X141773463Y-82090224D01*
X141791943Y-82083612D01*
X141810982Y-82078843D01*
X141830397Y-82075963D01*
X141850000Y-82075000D01*
X142250000Y-82075000D01*
X142269603Y-82075963D01*
X142269603Y-82075963D01*
G37*
D13*
X142050000Y-82550000D03*
D14*
X128300000Y-76385000D03*
X125700000Y-76385000D03*
D11*
G36*
X115847691Y-108301053D02*
G01*
X115868926Y-108304203D01*
X115889750Y-108309419D01*
X115909962Y-108316651D01*
X115929368Y-108325830D01*
X115947781Y-108336866D01*
X115965024Y-108349654D01*
X115980930Y-108364070D01*
X115995346Y-108379976D01*
X116008134Y-108397219D01*
X116019170Y-108415632D01*
X116028349Y-108435038D01*
X116035581Y-108455250D01*
X116040797Y-108476074D01*
X116043947Y-108497309D01*
X116045000Y-108518750D01*
X116045000Y-108956250D01*
X116043947Y-108977691D01*
X116040797Y-108998926D01*
X116035581Y-109019750D01*
X116028349Y-109039962D01*
X116019170Y-109059368D01*
X116008134Y-109077781D01*
X115995346Y-109095024D01*
X115980930Y-109110930D01*
X115965024Y-109125346D01*
X115947781Y-109138134D01*
X115929368Y-109149170D01*
X115909962Y-109158349D01*
X115889750Y-109165581D01*
X115868926Y-109170797D01*
X115847691Y-109173947D01*
X115826250Y-109175000D01*
X115313750Y-109175000D01*
X115292309Y-109173947D01*
X115271074Y-109170797D01*
X115250250Y-109165581D01*
X115230038Y-109158349D01*
X115210632Y-109149170D01*
X115192219Y-109138134D01*
X115174976Y-109125346D01*
X115159070Y-109110930D01*
X115144654Y-109095024D01*
X115131866Y-109077781D01*
X115120830Y-109059368D01*
X115111651Y-109039962D01*
X115104419Y-109019750D01*
X115099203Y-108998926D01*
X115096053Y-108977691D01*
X115095000Y-108956250D01*
X115095000Y-108518750D01*
X115096053Y-108497309D01*
X115099203Y-108476074D01*
X115104419Y-108455250D01*
X115111651Y-108435038D01*
X115120830Y-108415632D01*
X115131866Y-108397219D01*
X115144654Y-108379976D01*
X115159070Y-108364070D01*
X115174976Y-108349654D01*
X115192219Y-108336866D01*
X115210632Y-108325830D01*
X115230038Y-108316651D01*
X115250250Y-108309419D01*
X115271074Y-108304203D01*
X115292309Y-108301053D01*
X115313750Y-108300000D01*
X115826250Y-108300000D01*
X115847691Y-108301053D01*
X115847691Y-108301053D01*
G37*
D15*
X115570000Y-108737500D03*
D11*
G36*
X115847691Y-106726053D02*
G01*
X115868926Y-106729203D01*
X115889750Y-106734419D01*
X115909962Y-106741651D01*
X115929368Y-106750830D01*
X115947781Y-106761866D01*
X115965024Y-106774654D01*
X115980930Y-106789070D01*
X115995346Y-106804976D01*
X116008134Y-106822219D01*
X116019170Y-106840632D01*
X116028349Y-106860038D01*
X116035581Y-106880250D01*
X116040797Y-106901074D01*
X116043947Y-106922309D01*
X116045000Y-106943750D01*
X116045000Y-107381250D01*
X116043947Y-107402691D01*
X116040797Y-107423926D01*
X116035581Y-107444750D01*
X116028349Y-107464962D01*
X116019170Y-107484368D01*
X116008134Y-107502781D01*
X115995346Y-107520024D01*
X115980930Y-107535930D01*
X115965024Y-107550346D01*
X115947781Y-107563134D01*
X115929368Y-107574170D01*
X115909962Y-107583349D01*
X115889750Y-107590581D01*
X115868926Y-107595797D01*
X115847691Y-107598947D01*
X115826250Y-107600000D01*
X115313750Y-107600000D01*
X115292309Y-107598947D01*
X115271074Y-107595797D01*
X115250250Y-107590581D01*
X115230038Y-107583349D01*
X115210632Y-107574170D01*
X115192219Y-107563134D01*
X115174976Y-107550346D01*
X115159070Y-107535930D01*
X115144654Y-107520024D01*
X115131866Y-107502781D01*
X115120830Y-107484368D01*
X115111651Y-107464962D01*
X115104419Y-107444750D01*
X115099203Y-107423926D01*
X115096053Y-107402691D01*
X115095000Y-107381250D01*
X115095000Y-106943750D01*
X115096053Y-106922309D01*
X115099203Y-106901074D01*
X115104419Y-106880250D01*
X115111651Y-106860038D01*
X115120830Y-106840632D01*
X115131866Y-106822219D01*
X115144654Y-106804976D01*
X115159070Y-106789070D01*
X115174976Y-106774654D01*
X115192219Y-106761866D01*
X115210632Y-106750830D01*
X115230038Y-106741651D01*
X115250250Y-106734419D01*
X115271074Y-106729203D01*
X115292309Y-106726053D01*
X115313750Y-106725000D01*
X115826250Y-106725000D01*
X115847691Y-106726053D01*
X115847691Y-106726053D01*
G37*
D15*
X115570000Y-107162500D03*
D11*
G36*
X115847691Y-87981053D02*
G01*
X115868926Y-87984203D01*
X115889750Y-87989419D01*
X115909962Y-87996651D01*
X115929368Y-88005830D01*
X115947781Y-88016866D01*
X115965024Y-88029654D01*
X115980930Y-88044070D01*
X115995346Y-88059976D01*
X116008134Y-88077219D01*
X116019170Y-88095632D01*
X116028349Y-88115038D01*
X116035581Y-88135250D01*
X116040797Y-88156074D01*
X116043947Y-88177309D01*
X116045000Y-88198750D01*
X116045000Y-88636250D01*
X116043947Y-88657691D01*
X116040797Y-88678926D01*
X116035581Y-88699750D01*
X116028349Y-88719962D01*
X116019170Y-88739368D01*
X116008134Y-88757781D01*
X115995346Y-88775024D01*
X115980930Y-88790930D01*
X115965024Y-88805346D01*
X115947781Y-88818134D01*
X115929368Y-88829170D01*
X115909962Y-88838349D01*
X115889750Y-88845581D01*
X115868926Y-88850797D01*
X115847691Y-88853947D01*
X115826250Y-88855000D01*
X115313750Y-88855000D01*
X115292309Y-88853947D01*
X115271074Y-88850797D01*
X115250250Y-88845581D01*
X115230038Y-88838349D01*
X115210632Y-88829170D01*
X115192219Y-88818134D01*
X115174976Y-88805346D01*
X115159070Y-88790930D01*
X115144654Y-88775024D01*
X115131866Y-88757781D01*
X115120830Y-88739368D01*
X115111651Y-88719962D01*
X115104419Y-88699750D01*
X115099203Y-88678926D01*
X115096053Y-88657691D01*
X115095000Y-88636250D01*
X115095000Y-88198750D01*
X115096053Y-88177309D01*
X115099203Y-88156074D01*
X115104419Y-88135250D01*
X115111651Y-88115038D01*
X115120830Y-88095632D01*
X115131866Y-88077219D01*
X115144654Y-88059976D01*
X115159070Y-88044070D01*
X115174976Y-88029654D01*
X115192219Y-88016866D01*
X115210632Y-88005830D01*
X115230038Y-87996651D01*
X115250250Y-87989419D01*
X115271074Y-87984203D01*
X115292309Y-87981053D01*
X115313750Y-87980000D01*
X115826250Y-87980000D01*
X115847691Y-87981053D01*
X115847691Y-87981053D01*
G37*
D15*
X115570000Y-88417500D03*
D11*
G36*
X115847691Y-86406053D02*
G01*
X115868926Y-86409203D01*
X115889750Y-86414419D01*
X115909962Y-86421651D01*
X115929368Y-86430830D01*
X115947781Y-86441866D01*
X115965024Y-86454654D01*
X115980930Y-86469070D01*
X115995346Y-86484976D01*
X116008134Y-86502219D01*
X116019170Y-86520632D01*
X116028349Y-86540038D01*
X116035581Y-86560250D01*
X116040797Y-86581074D01*
X116043947Y-86602309D01*
X116045000Y-86623750D01*
X116045000Y-87061250D01*
X116043947Y-87082691D01*
X116040797Y-87103926D01*
X116035581Y-87124750D01*
X116028349Y-87144962D01*
X116019170Y-87164368D01*
X116008134Y-87182781D01*
X115995346Y-87200024D01*
X115980930Y-87215930D01*
X115965024Y-87230346D01*
X115947781Y-87243134D01*
X115929368Y-87254170D01*
X115909962Y-87263349D01*
X115889750Y-87270581D01*
X115868926Y-87275797D01*
X115847691Y-87278947D01*
X115826250Y-87280000D01*
X115313750Y-87280000D01*
X115292309Y-87278947D01*
X115271074Y-87275797D01*
X115250250Y-87270581D01*
X115230038Y-87263349D01*
X115210632Y-87254170D01*
X115192219Y-87243134D01*
X115174976Y-87230346D01*
X115159070Y-87215930D01*
X115144654Y-87200024D01*
X115131866Y-87182781D01*
X115120830Y-87164368D01*
X115111651Y-87144962D01*
X115104419Y-87124750D01*
X115099203Y-87103926D01*
X115096053Y-87082691D01*
X115095000Y-87061250D01*
X115095000Y-86623750D01*
X115096053Y-86602309D01*
X115099203Y-86581074D01*
X115104419Y-86560250D01*
X115111651Y-86540038D01*
X115120830Y-86520632D01*
X115131866Y-86502219D01*
X115144654Y-86484976D01*
X115159070Y-86469070D01*
X115174976Y-86454654D01*
X115192219Y-86441866D01*
X115210632Y-86430830D01*
X115230038Y-86421651D01*
X115250250Y-86414419D01*
X115271074Y-86409203D01*
X115292309Y-86406053D01*
X115313750Y-86405000D01*
X115826250Y-86405000D01*
X115847691Y-86406053D01*
X115847691Y-86406053D01*
G37*
D15*
X115570000Y-86842500D03*
D11*
G36*
X115847691Y-81326053D02*
G01*
X115868926Y-81329203D01*
X115889750Y-81334419D01*
X115909962Y-81341651D01*
X115929368Y-81350830D01*
X115947781Y-81361866D01*
X115965024Y-81374654D01*
X115980930Y-81389070D01*
X115995346Y-81404976D01*
X116008134Y-81422219D01*
X116019170Y-81440632D01*
X116028349Y-81460038D01*
X116035581Y-81480250D01*
X116040797Y-81501074D01*
X116043947Y-81522309D01*
X116045000Y-81543750D01*
X116045000Y-81981250D01*
X116043947Y-82002691D01*
X116040797Y-82023926D01*
X116035581Y-82044750D01*
X116028349Y-82064962D01*
X116019170Y-82084368D01*
X116008134Y-82102781D01*
X115995346Y-82120024D01*
X115980930Y-82135930D01*
X115965024Y-82150346D01*
X115947781Y-82163134D01*
X115929368Y-82174170D01*
X115909962Y-82183349D01*
X115889750Y-82190581D01*
X115868926Y-82195797D01*
X115847691Y-82198947D01*
X115826250Y-82200000D01*
X115313750Y-82200000D01*
X115292309Y-82198947D01*
X115271074Y-82195797D01*
X115250250Y-82190581D01*
X115230038Y-82183349D01*
X115210632Y-82174170D01*
X115192219Y-82163134D01*
X115174976Y-82150346D01*
X115159070Y-82135930D01*
X115144654Y-82120024D01*
X115131866Y-82102781D01*
X115120830Y-82084368D01*
X115111651Y-82064962D01*
X115104419Y-82044750D01*
X115099203Y-82023926D01*
X115096053Y-82002691D01*
X115095000Y-81981250D01*
X115095000Y-81543750D01*
X115096053Y-81522309D01*
X115099203Y-81501074D01*
X115104419Y-81480250D01*
X115111651Y-81460038D01*
X115120830Y-81440632D01*
X115131866Y-81422219D01*
X115144654Y-81404976D01*
X115159070Y-81389070D01*
X115174976Y-81374654D01*
X115192219Y-81361866D01*
X115210632Y-81350830D01*
X115230038Y-81341651D01*
X115250250Y-81334419D01*
X115271074Y-81329203D01*
X115292309Y-81326053D01*
X115313750Y-81325000D01*
X115826250Y-81325000D01*
X115847691Y-81326053D01*
X115847691Y-81326053D01*
G37*
D15*
X115570000Y-81762500D03*
D11*
G36*
X115847691Y-82901053D02*
G01*
X115868926Y-82904203D01*
X115889750Y-82909419D01*
X115909962Y-82916651D01*
X115929368Y-82925830D01*
X115947781Y-82936866D01*
X115965024Y-82949654D01*
X115980930Y-82964070D01*
X115995346Y-82979976D01*
X116008134Y-82997219D01*
X116019170Y-83015632D01*
X116028349Y-83035038D01*
X116035581Y-83055250D01*
X116040797Y-83076074D01*
X116043947Y-83097309D01*
X116045000Y-83118750D01*
X116045000Y-83556250D01*
X116043947Y-83577691D01*
X116040797Y-83598926D01*
X116035581Y-83619750D01*
X116028349Y-83639962D01*
X116019170Y-83659368D01*
X116008134Y-83677781D01*
X115995346Y-83695024D01*
X115980930Y-83710930D01*
X115965024Y-83725346D01*
X115947781Y-83738134D01*
X115929368Y-83749170D01*
X115909962Y-83758349D01*
X115889750Y-83765581D01*
X115868926Y-83770797D01*
X115847691Y-83773947D01*
X115826250Y-83775000D01*
X115313750Y-83775000D01*
X115292309Y-83773947D01*
X115271074Y-83770797D01*
X115250250Y-83765581D01*
X115230038Y-83758349D01*
X115210632Y-83749170D01*
X115192219Y-83738134D01*
X115174976Y-83725346D01*
X115159070Y-83710930D01*
X115144654Y-83695024D01*
X115131866Y-83677781D01*
X115120830Y-83659368D01*
X115111651Y-83639962D01*
X115104419Y-83619750D01*
X115099203Y-83598926D01*
X115096053Y-83577691D01*
X115095000Y-83556250D01*
X115095000Y-83118750D01*
X115096053Y-83097309D01*
X115099203Y-83076074D01*
X115104419Y-83055250D01*
X115111651Y-83035038D01*
X115120830Y-83015632D01*
X115131866Y-82997219D01*
X115144654Y-82979976D01*
X115159070Y-82964070D01*
X115174976Y-82949654D01*
X115192219Y-82936866D01*
X115210632Y-82925830D01*
X115230038Y-82916651D01*
X115250250Y-82909419D01*
X115271074Y-82904203D01*
X115292309Y-82901053D01*
X115313750Y-82900000D01*
X115826250Y-82900000D01*
X115847691Y-82901053D01*
X115847691Y-82901053D01*
G37*
D15*
X115570000Y-83337500D03*
D16*
X129540000Y-86865000D03*
X129540000Y-89665000D03*
X132715000Y-86865000D03*
X132715000Y-89665000D03*
D11*
G36*
X131399504Y-93891204D02*
G01*
X131423773Y-93894804D01*
X131447571Y-93900765D01*
X131470671Y-93909030D01*
X131492849Y-93919520D01*
X131513893Y-93932133D01*
X131533598Y-93946747D01*
X131551777Y-93963223D01*
X131568253Y-93981402D01*
X131582867Y-94001107D01*
X131595480Y-94022151D01*
X131605970Y-94044329D01*
X131614235Y-94067429D01*
X131620196Y-94091227D01*
X131623796Y-94115496D01*
X131625000Y-94140000D01*
X131625000Y-95090000D01*
X131623796Y-95114504D01*
X131620196Y-95138773D01*
X131614235Y-95162571D01*
X131605970Y-95185671D01*
X131595480Y-95207849D01*
X131582867Y-95228893D01*
X131568253Y-95248598D01*
X131551777Y-95266777D01*
X131533598Y-95283253D01*
X131513893Y-95297867D01*
X131492849Y-95310480D01*
X131470671Y-95320970D01*
X131447571Y-95329235D01*
X131423773Y-95335196D01*
X131399504Y-95338796D01*
X131375000Y-95340000D01*
X130875000Y-95340000D01*
X130850496Y-95338796D01*
X130826227Y-95335196D01*
X130802429Y-95329235D01*
X130779329Y-95320970D01*
X130757151Y-95310480D01*
X130736107Y-95297867D01*
X130716402Y-95283253D01*
X130698223Y-95266777D01*
X130681747Y-95248598D01*
X130667133Y-95228893D01*
X130654520Y-95207849D01*
X130644030Y-95185671D01*
X130635765Y-95162571D01*
X130629804Y-95138773D01*
X130626204Y-95114504D01*
X130625000Y-95090000D01*
X130625000Y-94140000D01*
X130626204Y-94115496D01*
X130629804Y-94091227D01*
X130635765Y-94067429D01*
X130644030Y-94044329D01*
X130654520Y-94022151D01*
X130667133Y-94001107D01*
X130681747Y-93981402D01*
X130698223Y-93963223D01*
X130716402Y-93946747D01*
X130736107Y-93932133D01*
X130757151Y-93919520D01*
X130779329Y-93909030D01*
X130802429Y-93900765D01*
X130826227Y-93894804D01*
X130850496Y-93891204D01*
X130875000Y-93890000D01*
X131375000Y-93890000D01*
X131399504Y-93891204D01*
X131399504Y-93891204D01*
G37*
D17*
X131125000Y-94615000D03*
D11*
G36*
X129499504Y-93891204D02*
G01*
X129523773Y-93894804D01*
X129547571Y-93900765D01*
X129570671Y-93909030D01*
X129592849Y-93919520D01*
X129613893Y-93932133D01*
X129633598Y-93946747D01*
X129651777Y-93963223D01*
X129668253Y-93981402D01*
X129682867Y-94001107D01*
X129695480Y-94022151D01*
X129705970Y-94044329D01*
X129714235Y-94067429D01*
X129720196Y-94091227D01*
X129723796Y-94115496D01*
X129725000Y-94140000D01*
X129725000Y-95090000D01*
X129723796Y-95114504D01*
X129720196Y-95138773D01*
X129714235Y-95162571D01*
X129705970Y-95185671D01*
X129695480Y-95207849D01*
X129682867Y-95228893D01*
X129668253Y-95248598D01*
X129651777Y-95266777D01*
X129633598Y-95283253D01*
X129613893Y-95297867D01*
X129592849Y-95310480D01*
X129570671Y-95320970D01*
X129547571Y-95329235D01*
X129523773Y-95335196D01*
X129499504Y-95338796D01*
X129475000Y-95340000D01*
X128975000Y-95340000D01*
X128950496Y-95338796D01*
X128926227Y-95335196D01*
X128902429Y-95329235D01*
X128879329Y-95320970D01*
X128857151Y-95310480D01*
X128836107Y-95297867D01*
X128816402Y-95283253D01*
X128798223Y-95266777D01*
X128781747Y-95248598D01*
X128767133Y-95228893D01*
X128754520Y-95207849D01*
X128744030Y-95185671D01*
X128735765Y-95162571D01*
X128729804Y-95138773D01*
X128726204Y-95114504D01*
X128725000Y-95090000D01*
X128725000Y-94140000D01*
X128726204Y-94115496D01*
X128729804Y-94091227D01*
X128735765Y-94067429D01*
X128744030Y-94044329D01*
X128754520Y-94022151D01*
X128767133Y-94001107D01*
X128781747Y-93981402D01*
X128798223Y-93963223D01*
X128816402Y-93946747D01*
X128836107Y-93932133D01*
X128857151Y-93919520D01*
X128879329Y-93909030D01*
X128902429Y-93900765D01*
X128926227Y-93894804D01*
X128950496Y-93891204D01*
X128975000Y-93890000D01*
X129475000Y-93890000D01*
X129499504Y-93891204D01*
X129499504Y-93891204D01*
G37*
D17*
X129225000Y-94615000D03*
D11*
G36*
X139654504Y-86906204D02*
G01*
X139678773Y-86909804D01*
X139702571Y-86915765D01*
X139725671Y-86924030D01*
X139747849Y-86934520D01*
X139768893Y-86947133D01*
X139788598Y-86961747D01*
X139806777Y-86978223D01*
X139823253Y-86996402D01*
X139837867Y-87016107D01*
X139850480Y-87037151D01*
X139860970Y-87059329D01*
X139869235Y-87082429D01*
X139875196Y-87106227D01*
X139878796Y-87130496D01*
X139880000Y-87155000D01*
X139880000Y-88105000D01*
X139878796Y-88129504D01*
X139875196Y-88153773D01*
X139869235Y-88177571D01*
X139860970Y-88200671D01*
X139850480Y-88222849D01*
X139837867Y-88243893D01*
X139823253Y-88263598D01*
X139806777Y-88281777D01*
X139788598Y-88298253D01*
X139768893Y-88312867D01*
X139747849Y-88325480D01*
X139725671Y-88335970D01*
X139702571Y-88344235D01*
X139678773Y-88350196D01*
X139654504Y-88353796D01*
X139630000Y-88355000D01*
X139130000Y-88355000D01*
X139105496Y-88353796D01*
X139081227Y-88350196D01*
X139057429Y-88344235D01*
X139034329Y-88335970D01*
X139012151Y-88325480D01*
X138991107Y-88312867D01*
X138971402Y-88298253D01*
X138953223Y-88281777D01*
X138936747Y-88263598D01*
X138922133Y-88243893D01*
X138909520Y-88222849D01*
X138899030Y-88200671D01*
X138890765Y-88177571D01*
X138884804Y-88153773D01*
X138881204Y-88129504D01*
X138880000Y-88105000D01*
X138880000Y-87155000D01*
X138881204Y-87130496D01*
X138884804Y-87106227D01*
X138890765Y-87082429D01*
X138899030Y-87059329D01*
X138909520Y-87037151D01*
X138922133Y-87016107D01*
X138936747Y-86996402D01*
X138953223Y-86978223D01*
X138971402Y-86961747D01*
X138991107Y-86947133D01*
X139012151Y-86934520D01*
X139034329Y-86924030D01*
X139057429Y-86915765D01*
X139081227Y-86909804D01*
X139105496Y-86906204D01*
X139130000Y-86905000D01*
X139630000Y-86905000D01*
X139654504Y-86906204D01*
X139654504Y-86906204D01*
G37*
D17*
X139380000Y-87630000D03*
D11*
G36*
X137754504Y-86906204D02*
G01*
X137778773Y-86909804D01*
X137802571Y-86915765D01*
X137825671Y-86924030D01*
X137847849Y-86934520D01*
X137868893Y-86947133D01*
X137888598Y-86961747D01*
X137906777Y-86978223D01*
X137923253Y-86996402D01*
X137937867Y-87016107D01*
X137950480Y-87037151D01*
X137960970Y-87059329D01*
X137969235Y-87082429D01*
X137975196Y-87106227D01*
X137978796Y-87130496D01*
X137980000Y-87155000D01*
X137980000Y-88105000D01*
X137978796Y-88129504D01*
X137975196Y-88153773D01*
X137969235Y-88177571D01*
X137960970Y-88200671D01*
X137950480Y-88222849D01*
X137937867Y-88243893D01*
X137923253Y-88263598D01*
X137906777Y-88281777D01*
X137888598Y-88298253D01*
X137868893Y-88312867D01*
X137847849Y-88325480D01*
X137825671Y-88335970D01*
X137802571Y-88344235D01*
X137778773Y-88350196D01*
X137754504Y-88353796D01*
X137730000Y-88355000D01*
X137230000Y-88355000D01*
X137205496Y-88353796D01*
X137181227Y-88350196D01*
X137157429Y-88344235D01*
X137134329Y-88335970D01*
X137112151Y-88325480D01*
X137091107Y-88312867D01*
X137071402Y-88298253D01*
X137053223Y-88281777D01*
X137036747Y-88263598D01*
X137022133Y-88243893D01*
X137009520Y-88222849D01*
X136999030Y-88200671D01*
X136990765Y-88177571D01*
X136984804Y-88153773D01*
X136981204Y-88129504D01*
X136980000Y-88105000D01*
X136980000Y-87155000D01*
X136981204Y-87130496D01*
X136984804Y-87106227D01*
X136990765Y-87082429D01*
X136999030Y-87059329D01*
X137009520Y-87037151D01*
X137022133Y-87016107D01*
X137036747Y-86996402D01*
X137053223Y-86978223D01*
X137071402Y-86961747D01*
X137091107Y-86947133D01*
X137112151Y-86934520D01*
X137134329Y-86924030D01*
X137157429Y-86915765D01*
X137181227Y-86909804D01*
X137205496Y-86906204D01*
X137230000Y-86905000D01*
X137730000Y-86905000D01*
X137754504Y-86906204D01*
X137754504Y-86906204D01*
G37*
D17*
X137480000Y-87630000D03*
D11*
G36*
X123784504Y-85636204D02*
G01*
X123808773Y-85639804D01*
X123832571Y-85645765D01*
X123855671Y-85654030D01*
X123877849Y-85664520D01*
X123898893Y-85677133D01*
X123918598Y-85691747D01*
X123936777Y-85708223D01*
X123953253Y-85726402D01*
X123967867Y-85746107D01*
X123980480Y-85767151D01*
X123990970Y-85789329D01*
X123999235Y-85812429D01*
X124005196Y-85836227D01*
X124008796Y-85860496D01*
X124010000Y-85885000D01*
X124010000Y-86835000D01*
X124008796Y-86859504D01*
X124005196Y-86883773D01*
X123999235Y-86907571D01*
X123990970Y-86930671D01*
X123980480Y-86952849D01*
X123967867Y-86973893D01*
X123953253Y-86993598D01*
X123936777Y-87011777D01*
X123918598Y-87028253D01*
X123898893Y-87042867D01*
X123877849Y-87055480D01*
X123855671Y-87065970D01*
X123832571Y-87074235D01*
X123808773Y-87080196D01*
X123784504Y-87083796D01*
X123760000Y-87085000D01*
X123260000Y-87085000D01*
X123235496Y-87083796D01*
X123211227Y-87080196D01*
X123187429Y-87074235D01*
X123164329Y-87065970D01*
X123142151Y-87055480D01*
X123121107Y-87042867D01*
X123101402Y-87028253D01*
X123083223Y-87011777D01*
X123066747Y-86993598D01*
X123052133Y-86973893D01*
X123039520Y-86952849D01*
X123029030Y-86930671D01*
X123020765Y-86907571D01*
X123014804Y-86883773D01*
X123011204Y-86859504D01*
X123010000Y-86835000D01*
X123010000Y-85885000D01*
X123011204Y-85860496D01*
X123014804Y-85836227D01*
X123020765Y-85812429D01*
X123029030Y-85789329D01*
X123039520Y-85767151D01*
X123052133Y-85746107D01*
X123066747Y-85726402D01*
X123083223Y-85708223D01*
X123101402Y-85691747D01*
X123121107Y-85677133D01*
X123142151Y-85664520D01*
X123164329Y-85654030D01*
X123187429Y-85645765D01*
X123211227Y-85639804D01*
X123235496Y-85636204D01*
X123260000Y-85635000D01*
X123760000Y-85635000D01*
X123784504Y-85636204D01*
X123784504Y-85636204D01*
G37*
D17*
X123510000Y-86360000D03*
D11*
G36*
X125684504Y-85636204D02*
G01*
X125708773Y-85639804D01*
X125732571Y-85645765D01*
X125755671Y-85654030D01*
X125777849Y-85664520D01*
X125798893Y-85677133D01*
X125818598Y-85691747D01*
X125836777Y-85708223D01*
X125853253Y-85726402D01*
X125867867Y-85746107D01*
X125880480Y-85767151D01*
X125890970Y-85789329D01*
X125899235Y-85812429D01*
X125905196Y-85836227D01*
X125908796Y-85860496D01*
X125910000Y-85885000D01*
X125910000Y-86835000D01*
X125908796Y-86859504D01*
X125905196Y-86883773D01*
X125899235Y-86907571D01*
X125890970Y-86930671D01*
X125880480Y-86952849D01*
X125867867Y-86973893D01*
X125853253Y-86993598D01*
X125836777Y-87011777D01*
X125818598Y-87028253D01*
X125798893Y-87042867D01*
X125777849Y-87055480D01*
X125755671Y-87065970D01*
X125732571Y-87074235D01*
X125708773Y-87080196D01*
X125684504Y-87083796D01*
X125660000Y-87085000D01*
X125160000Y-87085000D01*
X125135496Y-87083796D01*
X125111227Y-87080196D01*
X125087429Y-87074235D01*
X125064329Y-87065970D01*
X125042151Y-87055480D01*
X125021107Y-87042867D01*
X125001402Y-87028253D01*
X124983223Y-87011777D01*
X124966747Y-86993598D01*
X124952133Y-86973893D01*
X124939520Y-86952849D01*
X124929030Y-86930671D01*
X124920765Y-86907571D01*
X124914804Y-86883773D01*
X124911204Y-86859504D01*
X124910000Y-86835000D01*
X124910000Y-85885000D01*
X124911204Y-85860496D01*
X124914804Y-85836227D01*
X124920765Y-85812429D01*
X124929030Y-85789329D01*
X124939520Y-85767151D01*
X124952133Y-85746107D01*
X124966747Y-85726402D01*
X124983223Y-85708223D01*
X125001402Y-85691747D01*
X125021107Y-85677133D01*
X125042151Y-85664520D01*
X125064329Y-85654030D01*
X125087429Y-85645765D01*
X125111227Y-85639804D01*
X125135496Y-85636204D01*
X125160000Y-85635000D01*
X125660000Y-85635000D01*
X125684504Y-85636204D01*
X125684504Y-85636204D01*
G37*
D17*
X125410000Y-86360000D03*
D11*
G36*
X144009504Y-87446204D02*
G01*
X144033773Y-87449804D01*
X144057571Y-87455765D01*
X144080671Y-87464030D01*
X144102849Y-87474520D01*
X144123893Y-87487133D01*
X144143598Y-87501747D01*
X144161777Y-87518223D01*
X144178253Y-87536402D01*
X144192867Y-87556107D01*
X144205480Y-87577151D01*
X144215970Y-87599329D01*
X144224235Y-87622429D01*
X144230196Y-87646227D01*
X144233796Y-87670496D01*
X144235000Y-87695000D01*
X144235000Y-88195000D01*
X144233796Y-88219504D01*
X144230196Y-88243773D01*
X144224235Y-88267571D01*
X144215970Y-88290671D01*
X144205480Y-88312849D01*
X144192867Y-88333893D01*
X144178253Y-88353598D01*
X144161777Y-88371777D01*
X144143598Y-88388253D01*
X144123893Y-88402867D01*
X144102849Y-88415480D01*
X144080671Y-88425970D01*
X144057571Y-88434235D01*
X144033773Y-88440196D01*
X144009504Y-88443796D01*
X143985000Y-88445000D01*
X143035000Y-88445000D01*
X143010496Y-88443796D01*
X142986227Y-88440196D01*
X142962429Y-88434235D01*
X142939329Y-88425970D01*
X142917151Y-88415480D01*
X142896107Y-88402867D01*
X142876402Y-88388253D01*
X142858223Y-88371777D01*
X142841747Y-88353598D01*
X142827133Y-88333893D01*
X142814520Y-88312849D01*
X142804030Y-88290671D01*
X142795765Y-88267571D01*
X142789804Y-88243773D01*
X142786204Y-88219504D01*
X142785000Y-88195000D01*
X142785000Y-87695000D01*
X142786204Y-87670496D01*
X142789804Y-87646227D01*
X142795765Y-87622429D01*
X142804030Y-87599329D01*
X142814520Y-87577151D01*
X142827133Y-87556107D01*
X142841747Y-87536402D01*
X142858223Y-87518223D01*
X142876402Y-87501747D01*
X142896107Y-87487133D01*
X142917151Y-87474520D01*
X142939329Y-87464030D01*
X142962429Y-87455765D01*
X142986227Y-87449804D01*
X143010496Y-87446204D01*
X143035000Y-87445000D01*
X143985000Y-87445000D01*
X144009504Y-87446204D01*
X144009504Y-87446204D01*
G37*
D17*
X143510000Y-87945000D03*
D11*
G36*
X144009504Y-85546204D02*
G01*
X144033773Y-85549804D01*
X144057571Y-85555765D01*
X144080671Y-85564030D01*
X144102849Y-85574520D01*
X144123893Y-85587133D01*
X144143598Y-85601747D01*
X144161777Y-85618223D01*
X144178253Y-85636402D01*
X144192867Y-85656107D01*
X144205480Y-85677151D01*
X144215970Y-85699329D01*
X144224235Y-85722429D01*
X144230196Y-85746227D01*
X144233796Y-85770496D01*
X144235000Y-85795000D01*
X144235000Y-86295000D01*
X144233796Y-86319504D01*
X144230196Y-86343773D01*
X144224235Y-86367571D01*
X144215970Y-86390671D01*
X144205480Y-86412849D01*
X144192867Y-86433893D01*
X144178253Y-86453598D01*
X144161777Y-86471777D01*
X144143598Y-86488253D01*
X144123893Y-86502867D01*
X144102849Y-86515480D01*
X144080671Y-86525970D01*
X144057571Y-86534235D01*
X144033773Y-86540196D01*
X144009504Y-86543796D01*
X143985000Y-86545000D01*
X143035000Y-86545000D01*
X143010496Y-86543796D01*
X142986227Y-86540196D01*
X142962429Y-86534235D01*
X142939329Y-86525970D01*
X142917151Y-86515480D01*
X142896107Y-86502867D01*
X142876402Y-86488253D01*
X142858223Y-86471777D01*
X142841747Y-86453598D01*
X142827133Y-86433893D01*
X142814520Y-86412849D01*
X142804030Y-86390671D01*
X142795765Y-86367571D01*
X142789804Y-86343773D01*
X142786204Y-86319504D01*
X142785000Y-86295000D01*
X142785000Y-85795000D01*
X142786204Y-85770496D01*
X142789804Y-85746227D01*
X142795765Y-85722429D01*
X142804030Y-85699329D01*
X142814520Y-85677151D01*
X142827133Y-85656107D01*
X142841747Y-85636402D01*
X142858223Y-85618223D01*
X142876402Y-85601747D01*
X142896107Y-85587133D01*
X142917151Y-85574520D01*
X142939329Y-85564030D01*
X142962429Y-85555765D01*
X142986227Y-85549804D01*
X143010496Y-85546204D01*
X143035000Y-85545000D01*
X143985000Y-85545000D01*
X144009504Y-85546204D01*
X144009504Y-85546204D01*
G37*
D17*
X143510000Y-86045000D03*
M02*
