G04 #@! TF.GenerationSoftware,KiCad,Pcbnew,(5.1.5)-3*
G04 #@! TF.CreationDate,2021-08-26T15:26:13+09:00*
G04 #@! TF.ProjectId,RemoteEmergencyKill,52656d6f-7465-4456-9d65-7267656e6379,rev?*
G04 #@! TF.SameCoordinates,Original*
G04 #@! TF.FileFunction,Legend,Top*
G04 #@! TF.FilePolarity,Positive*
%FSLAX46Y46*%
G04 Gerber Fmt 4.6, Leading zero omitted, Abs format (unit mm)*
G04 Created by KiCad (PCBNEW (5.1.5)-3) date 2021-08-26 15:26:13*
%MOMM*%
%LPD*%
G04 APERTURE LIST*
%ADD10C,0.120000*%
%ADD11C,0.150000*%
G04 APERTURE END LIST*
D10*
X133985000Y-102235000D02*
X133985000Y-102870000D01*
X125095000Y-106680000D02*
X125095000Y-107315000D01*
X125095000Y-107950000D02*
X125095000Y-108585000D01*
X125095000Y-102870000D02*
X125095000Y-103505000D01*
X125095000Y-105410000D02*
X125095000Y-106045000D01*
X125095000Y-104140000D02*
X125095000Y-104775000D01*
X133985000Y-107315000D02*
X133985000Y-107950000D01*
X133985000Y-108585000D02*
X133985000Y-109220000D01*
D11*
X117117857Y-76335714D02*
X117070238Y-76288095D01*
X117022619Y-76145238D01*
X117022619Y-76050000D01*
X117070238Y-75907142D01*
X117165476Y-75811904D01*
X117260714Y-75764285D01*
X117451190Y-75716666D01*
X117594047Y-75716666D01*
X117784523Y-75764285D01*
X117879761Y-75811904D01*
X117975000Y-75907142D01*
X118022619Y-76050000D01*
X118022619Y-76145238D01*
X117975000Y-76288095D01*
X117927380Y-76335714D01*
X117022619Y-76764285D02*
X118022619Y-76764285D01*
X117546428Y-76764285D02*
X117546428Y-77335714D01*
X117022619Y-77335714D02*
X118022619Y-77335714D01*
X117022619Y-78383333D02*
X117498809Y-78050000D01*
X117022619Y-77811904D02*
X118022619Y-77811904D01*
X118022619Y-78192857D01*
X117975000Y-78288095D01*
X117927380Y-78335714D01*
X117832142Y-78383333D01*
X117689285Y-78383333D01*
X117594047Y-78335714D01*
X117546428Y-78288095D01*
X117498809Y-78192857D01*
X117498809Y-77811904D01*
X117975000Y-79335714D02*
X118022619Y-79240476D01*
X118022619Y-79097619D01*
X117975000Y-78954761D01*
X117879761Y-78859523D01*
X117784523Y-78811904D01*
X117594047Y-78764285D01*
X117451190Y-78764285D01*
X117260714Y-78811904D01*
X117165476Y-78859523D01*
X117070238Y-78954761D01*
X117022619Y-79097619D01*
X117022619Y-79192857D01*
X117070238Y-79335714D01*
X117117857Y-79383333D01*
X117451190Y-79383333D01*
X117451190Y-79192857D01*
X118022619Y-80868095D02*
X117022619Y-81534761D01*
X118022619Y-81534761D02*
X117022619Y-80868095D01*
X117117857Y-82487142D02*
X117070238Y-82439523D01*
X117022619Y-82296666D01*
X117022619Y-82201428D01*
X117070238Y-82058571D01*
X117165476Y-81963333D01*
X117260714Y-81915714D01*
X117451190Y-81868095D01*
X117594047Y-81868095D01*
X117784523Y-81915714D01*
X117879761Y-81963333D01*
X117975000Y-82058571D01*
X118022619Y-82201428D01*
X118022619Y-82296666D01*
X117975000Y-82439523D01*
X117927380Y-82487142D01*
X118022619Y-82772857D02*
X117022619Y-83106190D01*
X118022619Y-83439523D01*
X117022619Y-84344285D02*
X117498809Y-84010952D01*
X117022619Y-83772857D02*
X118022619Y-83772857D01*
X118022619Y-84153809D01*
X117975000Y-84249047D01*
X117927380Y-84296666D01*
X117832142Y-84344285D01*
X117689285Y-84344285D01*
X117594047Y-84296666D01*
X117546428Y-84249047D01*
X117498809Y-84153809D01*
X117498809Y-83772857D01*
X117022619Y-94188095D02*
X118022619Y-94188095D01*
X118022619Y-94854761D02*
X118022619Y-95045238D01*
X117975000Y-95140476D01*
X117879761Y-95235714D01*
X117689285Y-95283333D01*
X117355952Y-95283333D01*
X117165476Y-95235714D01*
X117070238Y-95140476D01*
X117022619Y-95045238D01*
X117022619Y-94854761D01*
X117070238Y-94759523D01*
X117165476Y-94664285D01*
X117355952Y-94616666D01*
X117689285Y-94616666D01*
X117879761Y-94664285D01*
X117975000Y-94759523D01*
X118022619Y-94854761D01*
X117070238Y-96426190D02*
X117022619Y-96521428D01*
X117022619Y-96711904D01*
X117070238Y-96807142D01*
X117165476Y-96854761D01*
X117213095Y-96854761D01*
X117308333Y-96807142D01*
X117355952Y-96711904D01*
X117355952Y-96569047D01*
X117403571Y-96473809D01*
X117498809Y-96426190D01*
X117546428Y-96426190D01*
X117641666Y-96473809D01*
X117689285Y-96569047D01*
X117689285Y-96711904D01*
X117641666Y-96807142D01*
X117689285Y-97140476D02*
X117689285Y-97521428D01*
X118022619Y-97283333D02*
X117165476Y-97283333D01*
X117070238Y-97330952D01*
X117022619Y-97426190D01*
X117022619Y-97521428D01*
X117022619Y-98283333D02*
X117546428Y-98283333D01*
X117641666Y-98235714D01*
X117689285Y-98140476D01*
X117689285Y-97950000D01*
X117641666Y-97854761D01*
X117070238Y-98283333D02*
X117022619Y-98188095D01*
X117022619Y-97950000D01*
X117070238Y-97854761D01*
X117165476Y-97807142D01*
X117260714Y-97807142D01*
X117355952Y-97854761D01*
X117403571Y-97950000D01*
X117403571Y-98188095D01*
X117451190Y-98283333D01*
X117689285Y-98616666D02*
X117689285Y-98997619D01*
X118022619Y-98759523D02*
X117165476Y-98759523D01*
X117070238Y-98807142D01*
X117022619Y-98902380D01*
X117022619Y-98997619D01*
X117070238Y-99711904D02*
X117022619Y-99616666D01*
X117022619Y-99426190D01*
X117070238Y-99330952D01*
X117165476Y-99283333D01*
X117546428Y-99283333D01*
X117641666Y-99330952D01*
X117689285Y-99426190D01*
X117689285Y-99616666D01*
X117641666Y-99711904D01*
X117546428Y-99759523D01*
X117451190Y-99759523D01*
X117355952Y-99283333D01*
X128850000Y-117737380D02*
X128850000Y-116737380D01*
X129516666Y-116737380D02*
X129707142Y-116737380D01*
X129802380Y-116785000D01*
X129897619Y-116880238D01*
X129945238Y-117070714D01*
X129945238Y-117404047D01*
X129897619Y-117594523D01*
X129802380Y-117689761D01*
X129707142Y-117737380D01*
X129516666Y-117737380D01*
X129421428Y-117689761D01*
X129326190Y-117594523D01*
X129278571Y-117404047D01*
X129278571Y-117070714D01*
X129326190Y-116880238D01*
X129421428Y-116785000D01*
X129516666Y-116737380D01*
X130897619Y-117737380D02*
X130326190Y-117737380D01*
X130611904Y-117737380D02*
X130611904Y-116737380D01*
X130516666Y-116880238D01*
X130421428Y-116975476D01*
X130326190Y-117023095D01*
X133469047Y-117356428D02*
X133516666Y-117308809D01*
X133611904Y-117261190D01*
X133802380Y-117356428D01*
X133897619Y-117308809D01*
X133945238Y-117261190D01*
X136611904Y-117737380D02*
X136611904Y-116737380D01*
X137278571Y-116737380D02*
X137469047Y-116737380D01*
X137564285Y-116785000D01*
X137659523Y-116880238D01*
X137707142Y-117070714D01*
X137707142Y-117404047D01*
X137659523Y-117594523D01*
X137564285Y-117689761D01*
X137469047Y-117737380D01*
X137278571Y-117737380D01*
X137183333Y-117689761D01*
X137088095Y-117594523D01*
X137040476Y-117404047D01*
X137040476Y-117070714D01*
X137088095Y-116880238D01*
X137183333Y-116785000D01*
X137278571Y-116737380D01*
X138278571Y-117165952D02*
X138183333Y-117118333D01*
X138135714Y-117070714D01*
X138088095Y-116975476D01*
X138088095Y-116927857D01*
X138135714Y-116832619D01*
X138183333Y-116785000D01*
X138278571Y-116737380D01*
X138469047Y-116737380D01*
X138564285Y-116785000D01*
X138611904Y-116832619D01*
X138659523Y-116927857D01*
X138659523Y-116975476D01*
X138611904Y-117070714D01*
X138564285Y-117118333D01*
X138469047Y-117165952D01*
X138278571Y-117165952D01*
X138183333Y-117213571D01*
X138135714Y-117261190D01*
X138088095Y-117356428D01*
X138088095Y-117546904D01*
X138135714Y-117642142D01*
X138183333Y-117689761D01*
X138278571Y-117737380D01*
X138469047Y-117737380D01*
X138564285Y-117689761D01*
X138611904Y-117642142D01*
X138659523Y-117546904D01*
X138659523Y-117356428D01*
X138611904Y-117261190D01*
X138564285Y-117213571D01*
X138469047Y-117165952D01*
X127564285Y-119387380D02*
X127564285Y-118387380D01*
X128230952Y-118387380D02*
X128421428Y-118387380D01*
X128516666Y-118435000D01*
X128611904Y-118530238D01*
X128659523Y-118720714D01*
X128659523Y-119054047D01*
X128611904Y-119244523D01*
X128516666Y-119339761D01*
X128421428Y-119387380D01*
X128230952Y-119387380D01*
X128135714Y-119339761D01*
X128040476Y-119244523D01*
X127992857Y-119054047D01*
X127992857Y-118720714D01*
X128040476Y-118530238D01*
X128135714Y-118435000D01*
X128230952Y-118387380D01*
X129707142Y-118720714D02*
X130088095Y-118720714D01*
X129850000Y-118387380D02*
X129850000Y-119244523D01*
X129897619Y-119339761D01*
X129992857Y-119387380D01*
X130088095Y-119387380D01*
X130564285Y-119387380D02*
X130469047Y-119339761D01*
X130421428Y-119292142D01*
X130373809Y-119196904D01*
X130373809Y-118911190D01*
X130421428Y-118815952D01*
X130469047Y-118768333D01*
X130564285Y-118720714D01*
X130707142Y-118720714D01*
X130802380Y-118768333D01*
X130850000Y-118815952D01*
X130897619Y-118911190D01*
X130897619Y-119196904D01*
X130850000Y-119292142D01*
X130802380Y-119339761D01*
X130707142Y-119387380D01*
X130564285Y-119387380D01*
X132659523Y-119292142D02*
X132611904Y-119339761D01*
X132469047Y-119387380D01*
X132373809Y-119387380D01*
X132230952Y-119339761D01*
X132135714Y-119244523D01*
X132088095Y-119149285D01*
X132040476Y-118958809D01*
X132040476Y-118815952D01*
X132088095Y-118625476D01*
X132135714Y-118530238D01*
X132230952Y-118435000D01*
X132373809Y-118387380D01*
X132469047Y-118387380D01*
X132611904Y-118435000D01*
X132659523Y-118482619D01*
X133230952Y-119387380D02*
X133135714Y-119339761D01*
X133088095Y-119292142D01*
X133040476Y-119196904D01*
X133040476Y-118911190D01*
X133088095Y-118815952D01*
X133135714Y-118768333D01*
X133230952Y-118720714D01*
X133373809Y-118720714D01*
X133469047Y-118768333D01*
X133516666Y-118815952D01*
X133564285Y-118911190D01*
X133564285Y-119196904D01*
X133516666Y-119292142D01*
X133469047Y-119339761D01*
X133373809Y-119387380D01*
X133230952Y-119387380D01*
X133992857Y-118720714D02*
X133992857Y-119387380D01*
X133992857Y-118815952D02*
X134040476Y-118768333D01*
X134135714Y-118720714D01*
X134278571Y-118720714D01*
X134373809Y-118768333D01*
X134421428Y-118863571D01*
X134421428Y-119387380D01*
X134897619Y-118720714D02*
X134897619Y-119387380D01*
X134897619Y-118815952D02*
X134945238Y-118768333D01*
X135040476Y-118720714D01*
X135183333Y-118720714D01*
X135278571Y-118768333D01*
X135326190Y-118863571D01*
X135326190Y-119387380D01*
X136183333Y-119339761D02*
X136088095Y-119387380D01*
X135897619Y-119387380D01*
X135802380Y-119339761D01*
X135754761Y-119244523D01*
X135754761Y-118863571D01*
X135802380Y-118768333D01*
X135897619Y-118720714D01*
X136088095Y-118720714D01*
X136183333Y-118768333D01*
X136230952Y-118863571D01*
X136230952Y-118958809D01*
X135754761Y-119054047D01*
X137088095Y-119339761D02*
X136992857Y-119387380D01*
X136802380Y-119387380D01*
X136707142Y-119339761D01*
X136659523Y-119292142D01*
X136611904Y-119196904D01*
X136611904Y-118911190D01*
X136659523Y-118815952D01*
X136707142Y-118768333D01*
X136802380Y-118720714D01*
X136992857Y-118720714D01*
X137088095Y-118768333D01*
X137373809Y-118720714D02*
X137754761Y-118720714D01*
X137516666Y-118387380D02*
X137516666Y-119244523D01*
X137564285Y-119339761D01*
X137659523Y-119387380D01*
X137754761Y-119387380D01*
X138230952Y-119387380D02*
X138135714Y-119339761D01*
X138088095Y-119292142D01*
X138040476Y-119196904D01*
X138040476Y-118911190D01*
X138088095Y-118815952D01*
X138135714Y-118768333D01*
X138230952Y-118720714D01*
X138373809Y-118720714D01*
X138469047Y-118768333D01*
X138516666Y-118815952D01*
X138564285Y-118911190D01*
X138564285Y-119196904D01*
X138516666Y-119292142D01*
X138469047Y-119339761D01*
X138373809Y-119387380D01*
X138230952Y-119387380D01*
X138992857Y-119387380D02*
X138992857Y-118720714D01*
X138992857Y-118911190D02*
X139040476Y-118815952D01*
X139088095Y-118768333D01*
X139183333Y-118720714D01*
X139278571Y-118720714D01*
X125444761Y-102052380D02*
X125349523Y-102004761D01*
X125301904Y-101957142D01*
X125254285Y-101861904D01*
X125254285Y-101576190D01*
X125301904Y-101480952D01*
X125349523Y-101433333D01*
X125444761Y-101385714D01*
X125587619Y-101385714D01*
X125682857Y-101433333D01*
X125730476Y-101480952D01*
X125778095Y-101576190D01*
X125778095Y-101861904D01*
X125730476Y-101957142D01*
X125682857Y-102004761D01*
X125587619Y-102052380D01*
X125444761Y-102052380D01*
X126206666Y-101385714D02*
X126206666Y-102052380D01*
X126206666Y-101480952D02*
X126254285Y-101433333D01*
X126349523Y-101385714D01*
X126492380Y-101385714D01*
X126587619Y-101433333D01*
X126635238Y-101528571D01*
X126635238Y-102052380D01*
X127254285Y-102052380D02*
X127159047Y-102004761D01*
X127111428Y-101909523D01*
X127111428Y-101052380D01*
X127540000Y-101385714D02*
X127778095Y-102052380D01*
X128016190Y-101385714D02*
X127778095Y-102052380D01*
X127682857Y-102290476D01*
X127635238Y-102338095D01*
X127540000Y-102385714D01*
X129111428Y-102004761D02*
X129254285Y-102052380D01*
X129492380Y-102052380D01*
X129587619Y-102004761D01*
X129635238Y-101957142D01*
X129682857Y-101861904D01*
X129682857Y-101766666D01*
X129635238Y-101671428D01*
X129587619Y-101623809D01*
X129492380Y-101576190D01*
X129301904Y-101528571D01*
X129206666Y-101480952D01*
X129159047Y-101433333D01*
X129111428Y-101338095D01*
X129111428Y-101242857D01*
X129159047Y-101147619D01*
X129206666Y-101100000D01*
X129301904Y-101052380D01*
X129540000Y-101052380D01*
X129682857Y-101100000D01*
X130492380Y-102004761D02*
X130397142Y-102052380D01*
X130206666Y-102052380D01*
X130111428Y-102004761D01*
X130063809Y-101909523D01*
X130063809Y-101528571D01*
X130111428Y-101433333D01*
X130206666Y-101385714D01*
X130397142Y-101385714D01*
X130492380Y-101433333D01*
X130540000Y-101528571D01*
X130540000Y-101623809D01*
X130063809Y-101719047D01*
X130968571Y-101385714D02*
X130968571Y-102052380D01*
X130968571Y-101480952D02*
X131016190Y-101433333D01*
X131111428Y-101385714D01*
X131254285Y-101385714D01*
X131349523Y-101433333D01*
X131397142Y-101528571D01*
X131397142Y-102052380D01*
X132301904Y-102052380D02*
X132301904Y-101052380D01*
X132301904Y-102004761D02*
X132206666Y-102052380D01*
X132016190Y-102052380D01*
X131920952Y-102004761D01*
X131873333Y-101957142D01*
X131825714Y-101861904D01*
X131825714Y-101576190D01*
X131873333Y-101480952D01*
X131920952Y-101433333D01*
X132016190Y-101385714D01*
X132206666Y-101385714D01*
X132301904Y-101433333D01*
X133159047Y-102004761D02*
X133063809Y-102052380D01*
X132873333Y-102052380D01*
X132778095Y-102004761D01*
X132730476Y-101909523D01*
X132730476Y-101528571D01*
X132778095Y-101433333D01*
X132873333Y-101385714D01*
X133063809Y-101385714D01*
X133159047Y-101433333D01*
X133206666Y-101528571D01*
X133206666Y-101623809D01*
X132730476Y-101719047D01*
X133635238Y-102052380D02*
X133635238Y-101385714D01*
X133635238Y-101576190D02*
X133682857Y-101480952D01*
X133730476Y-101433333D01*
X133825714Y-101385714D01*
X133920952Y-101385714D01*
D10*
X133985000Y-106045000D02*
X133985000Y-106680000D01*
X133985000Y-104775000D02*
X133985000Y-105410000D01*
X133985000Y-103505000D02*
X133985000Y-104140000D01*
X132715000Y-102235000D02*
X133350000Y-102235000D01*
X132715000Y-109220000D02*
X133350000Y-109220000D01*
X130175000Y-109220000D02*
X130810000Y-109220000D01*
X125095000Y-109220000D02*
X125730000Y-109220000D01*
X128905000Y-109220000D02*
X129540000Y-109220000D01*
X127635000Y-109220000D02*
X128270000Y-109220000D01*
X126365000Y-109220000D02*
X127000000Y-109220000D01*
X131445000Y-109220000D02*
X132080000Y-109220000D01*
X130810000Y-102235000D02*
X130175000Y-102235000D01*
X129540000Y-102235000D02*
X128905000Y-102235000D01*
X125730000Y-102235000D02*
X125095000Y-102235000D01*
X127000000Y-102235000D02*
X126365000Y-102235000D01*
X128270000Y-102235000D02*
X127635000Y-102235000D01*
X132080000Y-102235000D02*
X131445000Y-102235000D01*
D11*
X123579523Y-96972380D02*
X123484285Y-96924761D01*
X123436666Y-96877142D01*
X123389047Y-96781904D01*
X123389047Y-96496190D01*
X123436666Y-96400952D01*
X123484285Y-96353333D01*
X123579523Y-96305714D01*
X123722380Y-96305714D01*
X123817619Y-96353333D01*
X123865238Y-96400952D01*
X123912857Y-96496190D01*
X123912857Y-96781904D01*
X123865238Y-96877142D01*
X123817619Y-96924761D01*
X123722380Y-96972380D01*
X123579523Y-96972380D01*
X124341428Y-96305714D02*
X124341428Y-96972380D01*
X124341428Y-96400952D02*
X124389047Y-96353333D01*
X124484285Y-96305714D01*
X124627142Y-96305714D01*
X124722380Y-96353333D01*
X124770000Y-96448571D01*
X124770000Y-96972380D01*
X125389047Y-96972380D02*
X125293809Y-96924761D01*
X125246190Y-96829523D01*
X125246190Y-95972380D01*
X125674761Y-96305714D02*
X125912857Y-96972380D01*
X126150952Y-96305714D02*
X125912857Y-96972380D01*
X125817619Y-97210476D01*
X125770000Y-97258095D01*
X125674761Y-97305714D01*
X127865238Y-96972380D02*
X127531904Y-96496190D01*
X127293809Y-96972380D02*
X127293809Y-95972380D01*
X127674761Y-95972380D01*
X127770000Y-96020000D01*
X127817619Y-96067619D01*
X127865238Y-96162857D01*
X127865238Y-96305714D01*
X127817619Y-96400952D01*
X127770000Y-96448571D01*
X127674761Y-96496190D01*
X127293809Y-96496190D01*
X128674761Y-96924761D02*
X128579523Y-96972380D01*
X128389047Y-96972380D01*
X128293809Y-96924761D01*
X128246190Y-96829523D01*
X128246190Y-96448571D01*
X128293809Y-96353333D01*
X128389047Y-96305714D01*
X128579523Y-96305714D01*
X128674761Y-96353333D01*
X128722380Y-96448571D01*
X128722380Y-96543809D01*
X128246190Y-96639047D01*
X129579523Y-96924761D02*
X129484285Y-96972380D01*
X129293809Y-96972380D01*
X129198571Y-96924761D01*
X129150952Y-96877142D01*
X129103333Y-96781904D01*
X129103333Y-96496190D01*
X129150952Y-96400952D01*
X129198571Y-96353333D01*
X129293809Y-96305714D01*
X129484285Y-96305714D01*
X129579523Y-96353333D01*
X130008095Y-96972380D02*
X130008095Y-96305714D01*
X130008095Y-95972380D02*
X129960476Y-96020000D01*
X130008095Y-96067619D01*
X130055714Y-96020000D01*
X130008095Y-95972380D01*
X130008095Y-96067619D01*
X130865238Y-96924761D02*
X130770000Y-96972380D01*
X130579523Y-96972380D01*
X130484285Y-96924761D01*
X130436666Y-96829523D01*
X130436666Y-96448571D01*
X130484285Y-96353333D01*
X130579523Y-96305714D01*
X130770000Y-96305714D01*
X130865238Y-96353333D01*
X130912857Y-96448571D01*
X130912857Y-96543809D01*
X130436666Y-96639047D01*
X131246190Y-96305714D02*
X131484285Y-96972380D01*
X131722380Y-96305714D01*
X132484285Y-96924761D02*
X132389047Y-96972380D01*
X132198571Y-96972380D01*
X132103333Y-96924761D01*
X132055714Y-96829523D01*
X132055714Y-96448571D01*
X132103333Y-96353333D01*
X132198571Y-96305714D01*
X132389047Y-96305714D01*
X132484285Y-96353333D01*
X132531904Y-96448571D01*
X132531904Y-96543809D01*
X132055714Y-96639047D01*
X132960476Y-96972380D02*
X132960476Y-96305714D01*
X132960476Y-96496190D02*
X133008095Y-96400952D01*
X133055714Y-96353333D01*
X133150952Y-96305714D01*
X133246190Y-96305714D01*
D10*
X123190000Y-97155000D02*
X123825000Y-97155000D01*
X126365000Y-100965000D02*
X127000000Y-100965000D01*
X125095000Y-100965000D02*
X125730000Y-100965000D01*
X123825000Y-100965000D02*
X124460000Y-100965000D01*
X128905000Y-100965000D02*
X129540000Y-100965000D01*
X127635000Y-100965000D02*
X128270000Y-100965000D01*
X130175000Y-100965000D02*
X130810000Y-100965000D01*
X131445000Y-100965000D02*
X132080000Y-100965000D01*
X132715000Y-100965000D02*
X133350000Y-100965000D01*
X133350000Y-97790000D02*
X133350000Y-97155000D01*
X133350000Y-100330000D02*
X133350000Y-99695000D01*
X133350000Y-99060000D02*
X133350000Y-98425000D01*
X132715000Y-97155000D02*
X132080000Y-97155000D01*
X131445000Y-97155000D02*
X130810000Y-97155000D01*
X130175000Y-97155000D02*
X129540000Y-97155000D01*
X128905000Y-97155000D02*
X128270000Y-97155000D01*
X127635000Y-97155000D02*
X127000000Y-97155000D01*
X126365000Y-97155000D02*
X125730000Y-97155000D01*
X125095000Y-97155000D02*
X124460000Y-97155000D01*
X123190000Y-97790000D02*
X123190000Y-98425000D01*
X123190000Y-99060000D02*
X123190000Y-99695000D01*
X123190000Y-100330000D02*
X123190000Y-100965000D01*
X139935000Y-79705000D02*
X140335000Y-79305000D01*
X140735000Y-79705000D02*
X139935000Y-79705000D01*
X140335000Y-79305000D02*
X140735000Y-79705000D01*
X142285000Y-76105000D02*
X142945000Y-76105000D01*
X142285000Y-72695000D02*
X142285000Y-76105000D01*
X141185000Y-72695000D02*
X142285000Y-72695000D01*
X141185000Y-76105000D02*
X141185000Y-72695000D01*
X140685000Y-76105000D02*
X141185000Y-76105000D01*
X140685000Y-71095000D02*
X140685000Y-76105000D01*
X135885000Y-76105000D02*
X135225000Y-76105000D01*
X135885000Y-72695000D02*
X135885000Y-76105000D01*
X136985000Y-72695000D02*
X135885000Y-72695000D01*
X136985000Y-76105000D02*
X136985000Y-72695000D01*
X137485000Y-76105000D02*
X136985000Y-76105000D01*
X137485000Y-71095000D02*
X137485000Y-76105000D01*
X138685000Y-72905000D02*
X139485000Y-72905000D01*
X138685000Y-74705000D02*
X138685000Y-72905000D01*
X139485000Y-74705000D02*
X138685000Y-74705000D01*
X139485000Y-72905000D02*
X139485000Y-74705000D01*
X136335000Y-71095000D02*
X136335000Y-68795000D01*
X137485000Y-71095000D02*
X136335000Y-71095000D01*
X141835000Y-71095000D02*
X140685000Y-71095000D01*
X141835000Y-68795000D02*
X141835000Y-71095000D01*
X136445000Y-78715000D02*
X136725000Y-78715000D01*
X136445000Y-81615000D02*
X136445000Y-78715000D01*
X135225000Y-81615000D02*
X136445000Y-81615000D01*
X135225000Y-68795000D02*
X135225000Y-81615000D01*
X142945000Y-68795000D02*
X135225000Y-68795000D01*
X142945000Y-81615000D02*
X142945000Y-68795000D01*
X141725000Y-81615000D02*
X142945000Y-81615000D01*
X141725000Y-78715000D02*
X141725000Y-81615000D01*
X141445000Y-78715000D02*
X141725000Y-78715000D01*
X144205000Y-78105000D02*
X144205000Y-79215000D01*
X144205000Y-79215000D02*
X142875000Y-79215000D01*
X144205000Y-68015000D02*
X141545000Y-68015000D01*
X141545000Y-68015000D02*
X141545000Y-76645000D01*
X144205000Y-76645000D02*
X141545000Y-76645000D01*
X144205000Y-68015000D02*
X144205000Y-76645000D01*
X142515000Y-76645000D02*
X142515000Y-76995000D01*
X143235000Y-76645000D02*
X143235000Y-76995000D01*
X141660445Y-68015000D02*
X141660445Y-76645000D01*
X141775900Y-68015000D02*
X141775900Y-76645000D01*
X141891355Y-68015000D02*
X141891355Y-76645000D01*
X142006810Y-68015000D02*
X142006810Y-76645000D01*
X142122265Y-68015000D02*
X142122265Y-76645000D01*
X142237720Y-68015000D02*
X142237720Y-76645000D01*
X142353175Y-68015000D02*
X142353175Y-76645000D01*
X142468630Y-68015000D02*
X142468630Y-76645000D01*
X142584085Y-68015000D02*
X142584085Y-76645000D01*
X142699540Y-68015000D02*
X142699540Y-76645000D01*
X142814995Y-68015000D02*
X142814995Y-76645000D01*
X142930450Y-68015000D02*
X142930450Y-76645000D01*
X143045905Y-68015000D02*
X143045905Y-76645000D01*
X143161360Y-68015000D02*
X143161360Y-76645000D01*
X143276815Y-68015000D02*
X143276815Y-76645000D01*
X143392270Y-68015000D02*
X143392270Y-76645000D01*
X143507725Y-68015000D02*
X143507725Y-76645000D01*
X143623180Y-68015000D02*
X143623180Y-76645000D01*
X143738635Y-68015000D02*
X143738635Y-76645000D01*
X143854090Y-68015000D02*
X143854090Y-76645000D01*
X143969545Y-68015000D02*
X143969545Y-76645000D01*
X144085000Y-68015000D02*
X144085000Y-76645000D01*
X120375000Y-102405000D02*
X116975000Y-102405000D01*
X116975000Y-108605000D02*
X116975000Y-109305000D01*
X116975000Y-102405000D02*
X116975000Y-103105000D01*
X120375000Y-109305000D02*
X120375000Y-108605000D01*
X120375000Y-103105000D02*
X120375000Y-102405000D01*
X116975000Y-109305000D02*
X120375000Y-109305000D01*
X115175000Y-119855000D02*
X115175000Y-99855000D01*
X145175000Y-119855000D02*
X115175000Y-119855000D01*
X145175000Y-99855000D02*
X145175000Y-119855000D01*
X115175000Y-99855000D02*
X145175000Y-99855000D01*
X126655000Y-91440000D02*
X126655000Y-89640000D01*
X126655000Y-91440000D02*
X126655000Y-92240000D01*
X123535000Y-91440000D02*
X123535000Y-90640000D01*
X123535000Y-91440000D02*
X123535000Y-92240000D01*
X138430000Y-82260000D02*
X136630000Y-82260000D01*
X138430000Y-82260000D02*
X139230000Y-82260000D01*
X138430000Y-85380000D02*
X137630000Y-85380000D01*
X138430000Y-85380000D02*
X139230000Y-85380000D01*
X118590000Y-88500000D02*
X118590000Y-91500000D01*
X114590000Y-88250000D02*
X115090000Y-88250000D01*
X114590000Y-91750000D02*
X115090000Y-91750000D01*
X118590000Y-93500000D02*
X118590000Y-94500000D01*
X115090000Y-94500000D02*
X115090000Y-91000000D01*
X118590000Y-94500000D02*
X115090000Y-94500000D01*
X115090000Y-85500000D02*
X115090000Y-89000000D01*
X118590000Y-85500000D02*
X115090000Y-85500000D01*
X118590000Y-86500000D02*
X118590000Y-85500000D01*
X123937500Y-98822742D02*
X123937500Y-99297258D01*
X124982500Y-98822742D02*
X124982500Y-99297258D01*
X126762742Y-104662500D02*
X127237258Y-104662500D01*
X126762742Y-103617500D02*
X127237258Y-103617500D01*
X131682258Y-107427500D02*
X131207742Y-107427500D01*
X131682258Y-108472500D02*
X131207742Y-108472500D01*
X120127500Y-82392742D02*
X120127500Y-82867258D01*
X121172500Y-82392742D02*
X121172500Y-82867258D01*
X121172500Y-77787258D02*
X121172500Y-77312742D01*
X120127500Y-77787258D02*
X120127500Y-77312742D01*
X142637742Y-83072500D02*
X143112258Y-83072500D01*
X142637742Y-82027500D02*
X143112258Y-82027500D01*
X126725000Y-100460000D02*
X126725000Y-97660000D01*
X126725000Y-97660000D02*
X128725000Y-97660000D01*
X128725000Y-97660000D02*
X128725000Y-100460000D01*
X128725000Y-100460000D02*
X126725000Y-100460000D01*
X126235000Y-105680000D02*
X129035000Y-105680000D01*
X129035000Y-105680000D02*
X129035000Y-107680000D01*
X129035000Y-107680000D02*
X126235000Y-107680000D01*
X126235000Y-107680000D02*
X126235000Y-105680000D01*
X143240000Y-112900000D02*
X143240000Y-115700000D01*
X143240000Y-115700000D02*
X141240000Y-115700000D01*
X141240000Y-115700000D02*
X141240000Y-112900000D01*
X141240000Y-112900000D02*
X143240000Y-112900000D01*
X140700000Y-112900000D02*
X140700000Y-115700000D01*
X140700000Y-115700000D02*
X138700000Y-115700000D01*
X138700000Y-115700000D02*
X138700000Y-112900000D01*
X138700000Y-112900000D02*
X140700000Y-112900000D01*
X138160000Y-112900000D02*
X138160000Y-115700000D01*
X138160000Y-115700000D02*
X136160000Y-115700000D01*
X136160000Y-115700000D02*
X136160000Y-112900000D01*
X136160000Y-112900000D02*
X138160000Y-112900000D01*
X135620000Y-112900000D02*
X135620000Y-115700000D01*
X135620000Y-115700000D02*
X133620000Y-115700000D01*
X133620000Y-115700000D02*
X133620000Y-112900000D01*
X133620000Y-112900000D02*
X135620000Y-112900000D01*
X133080000Y-112900000D02*
X133080000Y-115700000D01*
X133080000Y-115700000D02*
X131080000Y-115700000D01*
X131080000Y-115700000D02*
X131080000Y-112900000D01*
X131080000Y-112900000D02*
X133080000Y-112900000D01*
X130540000Y-112900000D02*
X130540000Y-115700000D01*
X130540000Y-115700000D02*
X128540000Y-115700000D01*
X128540000Y-115700000D02*
X128540000Y-112900000D01*
X128540000Y-112900000D02*
X130540000Y-112900000D01*
X128000000Y-112900000D02*
X128000000Y-115700000D01*
X128000000Y-115700000D02*
X126000000Y-115700000D01*
X126000000Y-115700000D02*
X126000000Y-112900000D01*
X126000000Y-112900000D02*
X128000000Y-112900000D01*
X125460000Y-112900000D02*
X125460000Y-115700000D01*
X125460000Y-115700000D02*
X123460000Y-115700000D01*
X123460000Y-115700000D02*
X123460000Y-112900000D01*
X123460000Y-112900000D02*
X125460000Y-112900000D01*
X132445000Y-97660000D02*
X132445000Y-100460000D01*
X132445000Y-100460000D02*
X130445000Y-100460000D01*
X130445000Y-100460000D02*
X130445000Y-97660000D01*
X130445000Y-97660000D02*
X132445000Y-97660000D01*
X130045000Y-103775000D02*
X132845000Y-103775000D01*
X132845000Y-103775000D02*
X132845000Y-105775000D01*
X132845000Y-105775000D02*
X130045000Y-105775000D01*
X130045000Y-105775000D02*
X130045000Y-103775000D01*
X114835000Y-95465000D02*
X114835000Y-97750000D01*
X116305000Y-95465000D02*
X114835000Y-95465000D01*
X116305000Y-97750000D02*
X116305000Y-95465000D01*
X114835000Y-81145000D02*
X114835000Y-83430000D01*
X116305000Y-81145000D02*
X114835000Y-81145000D01*
X116305000Y-83430000D02*
X116305000Y-81145000D01*
X116305000Y-79035000D02*
X116305000Y-76750000D01*
X114835000Y-79035000D02*
X116305000Y-79035000D01*
X114835000Y-76750000D02*
X114835000Y-79035000D01*
X128540000Y-90465000D02*
X128540000Y-86615000D01*
X130540000Y-90465000D02*
X130540000Y-86615000D01*
X128540000Y-90465000D02*
X130540000Y-90465000D01*
X131715000Y-90465000D02*
X131715000Y-86615000D01*
X133715000Y-90465000D02*
X133715000Y-86615000D01*
X131715000Y-90465000D02*
X133715000Y-90465000D01*
X129913748Y-95350000D02*
X130436252Y-95350000D01*
X129913748Y-93880000D02*
X130436252Y-93880000D01*
X138168748Y-88365000D02*
X138691252Y-88365000D01*
X138168748Y-86895000D02*
X138691252Y-86895000D01*
X124721252Y-85625000D02*
X124198748Y-85625000D01*
X124721252Y-87095000D02*
X124198748Y-87095000D01*
X142775000Y-86733748D02*
X142775000Y-87256252D01*
X144245000Y-86733748D02*
X144245000Y-87256252D01*
D11*
X138751666Y-82157380D02*
X138751666Y-82871666D01*
X138704047Y-83014523D01*
X138608809Y-83109761D01*
X138465952Y-83157380D01*
X138370714Y-83157380D01*
X139132619Y-82157380D02*
X139751666Y-82157380D01*
X139418333Y-82538333D01*
X139561190Y-82538333D01*
X139656428Y-82585952D01*
X139704047Y-82633571D01*
X139751666Y-82728809D01*
X139751666Y-82966904D01*
X139704047Y-83062142D01*
X139656428Y-83109761D01*
X139561190Y-83157380D01*
X139275476Y-83157380D01*
X139180238Y-83109761D01*
X139132619Y-83062142D01*
X145097380Y-74058333D02*
X145811666Y-74058333D01*
X145954523Y-74105952D01*
X146049761Y-74201190D01*
X146097380Y-74344047D01*
X146097380Y-74439285D01*
X145192619Y-73629761D02*
X145145000Y-73582142D01*
X145097380Y-73486904D01*
X145097380Y-73248809D01*
X145145000Y-73153571D01*
X145192619Y-73105952D01*
X145287857Y-73058333D01*
X145383095Y-73058333D01*
X145525952Y-73105952D01*
X146097380Y-73677380D01*
X146097380Y-73058333D01*
X120737380Y-110616904D02*
X121546904Y-110616904D01*
X121642142Y-110569285D01*
X121689761Y-110521666D01*
X121737380Y-110426428D01*
X121737380Y-110235952D01*
X121689761Y-110140714D01*
X121642142Y-110093095D01*
X121546904Y-110045476D01*
X120737380Y-110045476D01*
X120737380Y-109664523D02*
X120737380Y-109045476D01*
X121118333Y-109378809D01*
X121118333Y-109235952D01*
X121165952Y-109140714D01*
X121213571Y-109093095D01*
X121308809Y-109045476D01*
X121546904Y-109045476D01*
X121642142Y-109093095D01*
X121689761Y-109140714D01*
X121737380Y-109235952D01*
X121737380Y-109521666D01*
X121689761Y-109616904D01*
X121642142Y-109664523D01*
X118618095Y-74112380D02*
X118618095Y-73112380D01*
X118618095Y-73588571D02*
X119189523Y-73588571D01*
X119189523Y-74112380D02*
X119189523Y-73112380D01*
X120189523Y-74112380D02*
X119618095Y-74112380D01*
X119903809Y-74112380D02*
X119903809Y-73112380D01*
X119808571Y-73255238D01*
X119713333Y-73350476D01*
X119618095Y-73398095D01*
X126947380Y-92201904D02*
X127756904Y-92201904D01*
X127852142Y-92154285D01*
X127899761Y-92106666D01*
X127947380Y-92011428D01*
X127947380Y-91820952D01*
X127899761Y-91725714D01*
X127852142Y-91678095D01*
X127756904Y-91630476D01*
X126947380Y-91630476D01*
X127042619Y-91201904D02*
X126995000Y-91154285D01*
X126947380Y-91059047D01*
X126947380Y-90820952D01*
X126995000Y-90725714D01*
X127042619Y-90678095D01*
X127137857Y-90630476D01*
X127233095Y-90630476D01*
X127375952Y-90678095D01*
X127947380Y-91249523D01*
X127947380Y-90630476D01*
X137668095Y-80872380D02*
X137668095Y-81681904D01*
X137715714Y-81777142D01*
X137763333Y-81824761D01*
X137858571Y-81872380D01*
X138049047Y-81872380D01*
X138144285Y-81824761D01*
X138191904Y-81777142D01*
X138239523Y-81681904D01*
X138239523Y-80872380D01*
X139239523Y-81872380D02*
X138668095Y-81872380D01*
X138953809Y-81872380D02*
X138953809Y-80872380D01*
X138858571Y-81015238D01*
X138763333Y-81110476D01*
X138668095Y-81158095D01*
X119784761Y-91333333D02*
X119832380Y-91190476D01*
X119832380Y-90952380D01*
X119784761Y-90857142D01*
X119737142Y-90809523D01*
X119641904Y-90761904D01*
X119546666Y-90761904D01*
X119451428Y-90809523D01*
X119403809Y-90857142D01*
X119356190Y-90952380D01*
X119308571Y-91142857D01*
X119260952Y-91238095D01*
X119213333Y-91285714D01*
X119118095Y-91333333D01*
X119022857Y-91333333D01*
X118927619Y-91285714D01*
X118880000Y-91238095D01*
X118832380Y-91142857D01*
X118832380Y-90904761D01*
X118880000Y-90761904D01*
X118832380Y-90428571D02*
X119832380Y-90190476D01*
X119118095Y-90000000D01*
X119832380Y-89809523D01*
X118832380Y-89571428D01*
X119832380Y-88666666D02*
X119832380Y-89238095D01*
X119832380Y-88952380D02*
X118832380Y-88952380D01*
X118975238Y-89047619D01*
X119070476Y-89142857D01*
X119118095Y-89238095D01*
X126342380Y-99226666D02*
X125866190Y-99560000D01*
X126342380Y-99798095D02*
X125342380Y-99798095D01*
X125342380Y-99417142D01*
X125390000Y-99321904D01*
X125437619Y-99274285D01*
X125532857Y-99226666D01*
X125675714Y-99226666D01*
X125770952Y-99274285D01*
X125818571Y-99321904D01*
X125866190Y-99417142D01*
X125866190Y-99798095D01*
X125342380Y-98369523D02*
X125342380Y-98560000D01*
X125390000Y-98655238D01*
X125437619Y-98702857D01*
X125580476Y-98798095D01*
X125770952Y-98845714D01*
X126151904Y-98845714D01*
X126247142Y-98798095D01*
X126294761Y-98750476D01*
X126342380Y-98655238D01*
X126342380Y-98464761D01*
X126294761Y-98369523D01*
X126247142Y-98321904D01*
X126151904Y-98274285D01*
X125913809Y-98274285D01*
X125818571Y-98321904D01*
X125770952Y-98369523D01*
X125723333Y-98464761D01*
X125723333Y-98655238D01*
X125770952Y-98750476D01*
X125818571Y-98798095D01*
X125913809Y-98845714D01*
X126833333Y-102687380D02*
X126500000Y-102211190D01*
X126261904Y-102687380D02*
X126261904Y-101687380D01*
X126642857Y-101687380D01*
X126738095Y-101735000D01*
X126785714Y-101782619D01*
X126833333Y-101877857D01*
X126833333Y-102020714D01*
X126785714Y-102115952D01*
X126738095Y-102163571D01*
X126642857Y-102211190D01*
X126261904Y-102211190D01*
X127738095Y-101687380D02*
X127261904Y-101687380D01*
X127214285Y-102163571D01*
X127261904Y-102115952D01*
X127357142Y-102068333D01*
X127595238Y-102068333D01*
X127690476Y-102115952D01*
X127738095Y-102163571D01*
X127785714Y-102258809D01*
X127785714Y-102496904D01*
X127738095Y-102592142D01*
X127690476Y-102639761D01*
X127595238Y-102687380D01*
X127357142Y-102687380D01*
X127261904Y-102639761D01*
X127214285Y-102592142D01*
X131278333Y-107132380D02*
X130945000Y-106656190D01*
X130706904Y-107132380D02*
X130706904Y-106132380D01*
X131087857Y-106132380D01*
X131183095Y-106180000D01*
X131230714Y-106227619D01*
X131278333Y-106322857D01*
X131278333Y-106465714D01*
X131230714Y-106560952D01*
X131183095Y-106608571D01*
X131087857Y-106656190D01*
X130706904Y-106656190D01*
X132135476Y-106465714D02*
X132135476Y-107132380D01*
X131897380Y-106084761D02*
X131659285Y-106799047D01*
X132278333Y-106799047D01*
X122372381Y-82796666D02*
X121896191Y-83130000D01*
X122372381Y-83368095D02*
X121372381Y-83368095D01*
X121372381Y-82987142D01*
X121420001Y-82891904D01*
X121467620Y-82844285D01*
X121562858Y-82796666D01*
X121705715Y-82796666D01*
X121800953Y-82844285D01*
X121848572Y-82891904D01*
X121896191Y-82987142D01*
X121896191Y-83368095D01*
X121372381Y-82463333D02*
X121372381Y-81844285D01*
X121753334Y-82177619D01*
X121753334Y-82034761D01*
X121800953Y-81939523D01*
X121848572Y-81891904D01*
X121943810Y-81844285D01*
X122181905Y-81844285D01*
X122277143Y-81891904D01*
X122324762Y-81939523D01*
X122372381Y-82034761D01*
X122372381Y-82320476D01*
X122324762Y-82415714D01*
X122277143Y-82463333D01*
X122372380Y-77716666D02*
X121896190Y-78050000D01*
X122372380Y-78288095D02*
X121372380Y-78288095D01*
X121372380Y-77907142D01*
X121420000Y-77811904D01*
X121467619Y-77764285D01*
X121562857Y-77716666D01*
X121705714Y-77716666D01*
X121800952Y-77764285D01*
X121848571Y-77811904D01*
X121896190Y-77907142D01*
X121896190Y-78288095D01*
X121467619Y-77335714D02*
X121420000Y-77288095D01*
X121372380Y-77192857D01*
X121372380Y-76954761D01*
X121420000Y-76859523D01*
X121467619Y-76811904D01*
X121562857Y-76764285D01*
X121658095Y-76764285D01*
X121800952Y-76811904D01*
X122372380Y-77383333D01*
X122372380Y-76764285D01*
X143343333Y-84272380D02*
X143010000Y-83796190D01*
X142771904Y-84272380D02*
X142771904Y-83272380D01*
X143152857Y-83272380D01*
X143248095Y-83320000D01*
X143295714Y-83367619D01*
X143343333Y-83462857D01*
X143343333Y-83605714D01*
X143295714Y-83700952D01*
X143248095Y-83748571D01*
X143152857Y-83796190D01*
X142771904Y-83796190D01*
X144295714Y-84272380D02*
X143724285Y-84272380D01*
X144010000Y-84272380D02*
X144010000Y-83272380D01*
X143914761Y-83415238D01*
X143819523Y-83510476D01*
X143724285Y-83558095D01*
X129082380Y-100369523D02*
X129796666Y-100369523D01*
X129939523Y-100417142D01*
X130034761Y-100512380D01*
X130082380Y-100655238D01*
X130082380Y-100750476D01*
X130082380Y-99893333D02*
X129082380Y-99893333D01*
X129082380Y-99512380D01*
X129130000Y-99417142D01*
X129177619Y-99369523D01*
X129272857Y-99321904D01*
X129415714Y-99321904D01*
X129510952Y-99369523D01*
X129558571Y-99417142D01*
X129606190Y-99512380D01*
X129606190Y-99893333D01*
X130082380Y-98369523D02*
X130082380Y-98940952D01*
X130082380Y-98655238D02*
X129082380Y-98655238D01*
X129225238Y-98750476D01*
X129320476Y-98845714D01*
X129368095Y-98940952D01*
X129177619Y-97988571D02*
X129130000Y-97940952D01*
X129082380Y-97845714D01*
X129082380Y-97607619D01*
X129130000Y-97512380D01*
X129177619Y-97464761D01*
X129272857Y-97417142D01*
X129368095Y-97417142D01*
X129510952Y-97464761D01*
X130082380Y-98036190D01*
X130082380Y-97417142D01*
X126325476Y-104332380D02*
X126325476Y-105046666D01*
X126277857Y-105189523D01*
X126182619Y-105284761D01*
X126039761Y-105332380D01*
X125944523Y-105332380D01*
X126801666Y-105332380D02*
X126801666Y-104332380D01*
X127182619Y-104332380D01*
X127277857Y-104380000D01*
X127325476Y-104427619D01*
X127373095Y-104522857D01*
X127373095Y-104665714D01*
X127325476Y-104760952D01*
X127277857Y-104808571D01*
X127182619Y-104856190D01*
X126801666Y-104856190D01*
X128325476Y-105332380D02*
X127754047Y-105332380D01*
X128039761Y-105332380D02*
X128039761Y-104332380D01*
X127944523Y-104475238D01*
X127849285Y-104570476D01*
X127754047Y-104618095D01*
X129277857Y-105332380D02*
X128706428Y-105332380D01*
X128992142Y-105332380D02*
X128992142Y-104332380D01*
X128896904Y-104475238D01*
X128801666Y-104570476D01*
X128706428Y-104618095D01*
X141692380Y-111799523D02*
X142406666Y-111799523D01*
X142549523Y-111847142D01*
X142644761Y-111942380D01*
X142692380Y-112085238D01*
X142692380Y-112180476D01*
X142692380Y-111323333D02*
X141692380Y-111323333D01*
X141692380Y-110942380D01*
X141740000Y-110847142D01*
X141787619Y-110799523D01*
X141882857Y-110751904D01*
X142025714Y-110751904D01*
X142120952Y-110799523D01*
X142168571Y-110847142D01*
X142216190Y-110942380D01*
X142216190Y-111323333D01*
X142692380Y-109799523D02*
X142692380Y-110370952D01*
X142692380Y-110085238D02*
X141692380Y-110085238D01*
X141835238Y-110180476D01*
X141930476Y-110275714D01*
X141978095Y-110370952D01*
X141692380Y-109180476D02*
X141692380Y-109085238D01*
X141740000Y-108990000D01*
X141787619Y-108942380D01*
X141882857Y-108894761D01*
X142073333Y-108847142D01*
X142311428Y-108847142D01*
X142501904Y-108894761D01*
X142597142Y-108942380D01*
X142644761Y-108990000D01*
X142692380Y-109085238D01*
X142692380Y-109180476D01*
X142644761Y-109275714D01*
X142597142Y-109323333D01*
X142501904Y-109370952D01*
X142311428Y-109418571D01*
X142073333Y-109418571D01*
X141882857Y-109370952D01*
X141787619Y-109323333D01*
X141740000Y-109275714D01*
X141692380Y-109180476D01*
X139152380Y-111323333D02*
X139866666Y-111323333D01*
X140009523Y-111370952D01*
X140104761Y-111466190D01*
X140152380Y-111609047D01*
X140152380Y-111704285D01*
X140152380Y-110847142D02*
X139152380Y-110847142D01*
X139152380Y-110466190D01*
X139200000Y-110370952D01*
X139247619Y-110323333D01*
X139342857Y-110275714D01*
X139485714Y-110275714D01*
X139580952Y-110323333D01*
X139628571Y-110370952D01*
X139676190Y-110466190D01*
X139676190Y-110847142D01*
X140152380Y-109799523D02*
X140152380Y-109609047D01*
X140104761Y-109513809D01*
X140057142Y-109466190D01*
X139914285Y-109370952D01*
X139723809Y-109323333D01*
X139342857Y-109323333D01*
X139247619Y-109370952D01*
X139200000Y-109418571D01*
X139152380Y-109513809D01*
X139152380Y-109704285D01*
X139200000Y-109799523D01*
X139247619Y-109847142D01*
X139342857Y-109894761D01*
X139580952Y-109894761D01*
X139676190Y-109847142D01*
X139723809Y-109799523D01*
X139771428Y-109704285D01*
X139771428Y-109513809D01*
X139723809Y-109418571D01*
X139676190Y-109370952D01*
X139580952Y-109323333D01*
X136612380Y-111323333D02*
X137326666Y-111323333D01*
X137469523Y-111370952D01*
X137564761Y-111466190D01*
X137612380Y-111609047D01*
X137612380Y-111704285D01*
X137612380Y-110847142D02*
X136612380Y-110847142D01*
X136612380Y-110466190D01*
X136660000Y-110370952D01*
X136707619Y-110323333D01*
X136802857Y-110275714D01*
X136945714Y-110275714D01*
X137040952Y-110323333D01*
X137088571Y-110370952D01*
X137136190Y-110466190D01*
X137136190Y-110847142D01*
X137040952Y-109704285D02*
X136993333Y-109799523D01*
X136945714Y-109847142D01*
X136850476Y-109894761D01*
X136802857Y-109894761D01*
X136707619Y-109847142D01*
X136660000Y-109799523D01*
X136612380Y-109704285D01*
X136612380Y-109513809D01*
X136660000Y-109418571D01*
X136707619Y-109370952D01*
X136802857Y-109323333D01*
X136850476Y-109323333D01*
X136945714Y-109370952D01*
X136993333Y-109418571D01*
X137040952Y-109513809D01*
X137040952Y-109704285D01*
X137088571Y-109799523D01*
X137136190Y-109847142D01*
X137231428Y-109894761D01*
X137421904Y-109894761D01*
X137517142Y-109847142D01*
X137564761Y-109799523D01*
X137612380Y-109704285D01*
X137612380Y-109513809D01*
X137564761Y-109418571D01*
X137517142Y-109370952D01*
X137421904Y-109323333D01*
X137231428Y-109323333D01*
X137136190Y-109370952D01*
X137088571Y-109418571D01*
X137040952Y-109513809D01*
X134072380Y-111323333D02*
X134786666Y-111323333D01*
X134929523Y-111370952D01*
X135024761Y-111466190D01*
X135072380Y-111609047D01*
X135072380Y-111704285D01*
X135072380Y-110847142D02*
X134072380Y-110847142D01*
X134072380Y-110466190D01*
X134120000Y-110370952D01*
X134167619Y-110323333D01*
X134262857Y-110275714D01*
X134405714Y-110275714D01*
X134500952Y-110323333D01*
X134548571Y-110370952D01*
X134596190Y-110466190D01*
X134596190Y-110847142D01*
X134072380Y-109942380D02*
X134072380Y-109275714D01*
X135072380Y-109704285D01*
X131532380Y-111323333D02*
X132246666Y-111323333D01*
X132389523Y-111370952D01*
X132484761Y-111466190D01*
X132532380Y-111609047D01*
X132532380Y-111704285D01*
X132532380Y-110847142D02*
X131532380Y-110847142D01*
X131532380Y-110466190D01*
X131580000Y-110370952D01*
X131627619Y-110323333D01*
X131722857Y-110275714D01*
X131865714Y-110275714D01*
X131960952Y-110323333D01*
X132008571Y-110370952D01*
X132056190Y-110466190D01*
X132056190Y-110847142D01*
X131532380Y-109418571D02*
X131532380Y-109609047D01*
X131580000Y-109704285D01*
X131627619Y-109751904D01*
X131770476Y-109847142D01*
X131960952Y-109894761D01*
X132341904Y-109894761D01*
X132437142Y-109847142D01*
X132484761Y-109799523D01*
X132532380Y-109704285D01*
X132532380Y-109513809D01*
X132484761Y-109418571D01*
X132437142Y-109370952D01*
X132341904Y-109323333D01*
X132103809Y-109323333D01*
X132008571Y-109370952D01*
X131960952Y-109418571D01*
X131913333Y-109513809D01*
X131913333Y-109704285D01*
X131960952Y-109799523D01*
X132008571Y-109847142D01*
X132103809Y-109894761D01*
X128992380Y-111323333D02*
X129706666Y-111323333D01*
X129849523Y-111370952D01*
X129944761Y-111466190D01*
X129992380Y-111609047D01*
X129992380Y-111704285D01*
X129992380Y-110847142D02*
X128992380Y-110847142D01*
X128992380Y-110466190D01*
X129040000Y-110370952D01*
X129087619Y-110323333D01*
X129182857Y-110275714D01*
X129325714Y-110275714D01*
X129420952Y-110323333D01*
X129468571Y-110370952D01*
X129516190Y-110466190D01*
X129516190Y-110847142D01*
X128992380Y-109370952D02*
X128992380Y-109847142D01*
X129468571Y-109894761D01*
X129420952Y-109847142D01*
X129373333Y-109751904D01*
X129373333Y-109513809D01*
X129420952Y-109418571D01*
X129468571Y-109370952D01*
X129563809Y-109323333D01*
X129801904Y-109323333D01*
X129897142Y-109370952D01*
X129944761Y-109418571D01*
X129992380Y-109513809D01*
X129992380Y-109751904D01*
X129944761Y-109847142D01*
X129897142Y-109894761D01*
X126452380Y-111323333D02*
X127166666Y-111323333D01*
X127309523Y-111370952D01*
X127404761Y-111466190D01*
X127452380Y-111609047D01*
X127452380Y-111704285D01*
X127452380Y-110847142D02*
X126452380Y-110847142D01*
X126452380Y-110466190D01*
X126500000Y-110370952D01*
X126547619Y-110323333D01*
X126642857Y-110275714D01*
X126785714Y-110275714D01*
X126880952Y-110323333D01*
X126928571Y-110370952D01*
X126976190Y-110466190D01*
X126976190Y-110847142D01*
X126785714Y-109418571D02*
X127452380Y-109418571D01*
X126404761Y-109656666D02*
X127119047Y-109894761D01*
X127119047Y-109275714D01*
X123912380Y-111323333D02*
X124626666Y-111323333D01*
X124769523Y-111370952D01*
X124864761Y-111466190D01*
X124912380Y-111609047D01*
X124912380Y-111704285D01*
X124912380Y-110847142D02*
X123912380Y-110847142D01*
X123912380Y-110466190D01*
X123960000Y-110370952D01*
X124007619Y-110323333D01*
X124102857Y-110275714D01*
X124245714Y-110275714D01*
X124340952Y-110323333D01*
X124388571Y-110370952D01*
X124436190Y-110466190D01*
X124436190Y-110847142D01*
X123912380Y-109942380D02*
X123912380Y-109323333D01*
X124293333Y-109656666D01*
X124293333Y-109513809D01*
X124340952Y-109418571D01*
X124388571Y-109370952D01*
X124483809Y-109323333D01*
X124721904Y-109323333D01*
X124817142Y-109370952D01*
X124864761Y-109418571D01*
X124912380Y-109513809D01*
X124912380Y-109799523D01*
X124864761Y-109894761D01*
X124817142Y-109942380D01*
X132697380Y-99893333D02*
X133411666Y-99893333D01*
X133554523Y-99940952D01*
X133649761Y-100036190D01*
X133697380Y-100179047D01*
X133697380Y-100274285D01*
X133697380Y-99417142D02*
X132697380Y-99417142D01*
X132697380Y-99036190D01*
X132745000Y-98940952D01*
X132792619Y-98893333D01*
X132887857Y-98845714D01*
X133030714Y-98845714D01*
X133125952Y-98893333D01*
X133173571Y-98940952D01*
X133221190Y-99036190D01*
X133221190Y-99417142D01*
X132792619Y-98464761D02*
X132745000Y-98417142D01*
X132697380Y-98321904D01*
X132697380Y-98083809D01*
X132745000Y-97988571D01*
X132792619Y-97940952D01*
X132887857Y-97893333D01*
X132983095Y-97893333D01*
X133125952Y-97940952D01*
X133697380Y-98512380D01*
X133697380Y-97893333D01*
X130611666Y-102427380D02*
X130611666Y-103141666D01*
X130564047Y-103284523D01*
X130468809Y-103379761D01*
X130325952Y-103427380D01*
X130230714Y-103427380D01*
X131087857Y-103427380D02*
X131087857Y-102427380D01*
X131468809Y-102427380D01*
X131564047Y-102475000D01*
X131611666Y-102522619D01*
X131659285Y-102617857D01*
X131659285Y-102760714D01*
X131611666Y-102855952D01*
X131564047Y-102903571D01*
X131468809Y-102951190D01*
X131087857Y-102951190D01*
X132611666Y-103427380D02*
X132040238Y-103427380D01*
X132325952Y-103427380D02*
X132325952Y-102427380D01*
X132230714Y-102570238D01*
X132135476Y-102665476D01*
X132040238Y-102713095D01*
X129841666Y-80097380D02*
X129841666Y-80811666D01*
X129794047Y-80954523D01*
X129698809Y-81049761D01*
X129555952Y-81097380D01*
X129460714Y-81097380D01*
X130841666Y-81097380D02*
X130270238Y-81097380D01*
X130555952Y-81097380D02*
X130555952Y-80097380D01*
X130460714Y-80240238D01*
X130365476Y-80335476D01*
X130270238Y-80383095D01*
X128087380Y-89130095D02*
X127087380Y-89130095D01*
X127087380Y-88892000D01*
X127135000Y-88749142D01*
X127230238Y-88653904D01*
X127325476Y-88606285D01*
X127515952Y-88558666D01*
X127658809Y-88558666D01*
X127849285Y-88606285D01*
X127944523Y-88653904D01*
X128039761Y-88749142D01*
X128087380Y-88892000D01*
X128087380Y-89130095D01*
X127182619Y-88177714D02*
X127135000Y-88130095D01*
X127087380Y-88034857D01*
X127087380Y-87796761D01*
X127135000Y-87701523D01*
X127182619Y-87653904D01*
X127277857Y-87606285D01*
X127373095Y-87606285D01*
X127515952Y-87653904D01*
X128087380Y-88225333D01*
X128087380Y-87606285D01*
X135072380Y-89130095D02*
X134072380Y-89130095D01*
X134072380Y-88892000D01*
X134120000Y-88749142D01*
X134215238Y-88653904D01*
X134310476Y-88606285D01*
X134500952Y-88558666D01*
X134643809Y-88558666D01*
X134834285Y-88606285D01*
X134929523Y-88653904D01*
X135024761Y-88749142D01*
X135072380Y-88892000D01*
X135072380Y-89130095D01*
X135072380Y-87606285D02*
X135072380Y-88177714D01*
X135072380Y-87892000D02*
X134072380Y-87892000D01*
X134215238Y-87987238D01*
X134310476Y-88082476D01*
X134358095Y-88177714D01*
X130008333Y-93292142D02*
X129960714Y-93339761D01*
X129817857Y-93387380D01*
X129722619Y-93387380D01*
X129579761Y-93339761D01*
X129484523Y-93244523D01*
X129436904Y-93149285D01*
X129389285Y-92958809D01*
X129389285Y-92815952D01*
X129436904Y-92625476D01*
X129484523Y-92530238D01*
X129579761Y-92435000D01*
X129722619Y-92387380D01*
X129817857Y-92387380D01*
X129960714Y-92435000D01*
X130008333Y-92482619D01*
X130865476Y-92720714D02*
X130865476Y-93387380D01*
X130627380Y-92339761D02*
X130389285Y-93054047D01*
X131008333Y-93054047D01*
X138263333Y-86307142D02*
X138215714Y-86354761D01*
X138072857Y-86402380D01*
X137977619Y-86402380D01*
X137834761Y-86354761D01*
X137739523Y-86259523D01*
X137691904Y-86164285D01*
X137644285Y-85973809D01*
X137644285Y-85830952D01*
X137691904Y-85640476D01*
X137739523Y-85545238D01*
X137834761Y-85450000D01*
X137977619Y-85402380D01*
X138072857Y-85402380D01*
X138215714Y-85450000D01*
X138263333Y-85497619D01*
X138596666Y-85402380D02*
X139215714Y-85402380D01*
X138882380Y-85783333D01*
X139025238Y-85783333D01*
X139120476Y-85830952D01*
X139168095Y-85878571D01*
X139215714Y-85973809D01*
X139215714Y-86211904D01*
X139168095Y-86307142D01*
X139120476Y-86354761D01*
X139025238Y-86402380D01*
X138739523Y-86402380D01*
X138644285Y-86354761D01*
X138596666Y-86307142D01*
X124293333Y-88397142D02*
X124245714Y-88444761D01*
X124102857Y-88492380D01*
X124007619Y-88492380D01*
X123864761Y-88444761D01*
X123769523Y-88349523D01*
X123721904Y-88254285D01*
X123674285Y-88063809D01*
X123674285Y-87920952D01*
X123721904Y-87730476D01*
X123769523Y-87635238D01*
X123864761Y-87540000D01*
X124007619Y-87492380D01*
X124102857Y-87492380D01*
X124245714Y-87540000D01*
X124293333Y-87587619D01*
X124674285Y-87587619D02*
X124721904Y-87540000D01*
X124817142Y-87492380D01*
X125055238Y-87492380D01*
X125150476Y-87540000D01*
X125198095Y-87587619D01*
X125245714Y-87682857D01*
X125245714Y-87778095D01*
X125198095Y-87920952D01*
X124626666Y-88492380D01*
X125245714Y-88492380D01*
X145547142Y-87161666D02*
X145594761Y-87209285D01*
X145642380Y-87352142D01*
X145642380Y-87447380D01*
X145594761Y-87590238D01*
X145499523Y-87685476D01*
X145404285Y-87733095D01*
X145213809Y-87780714D01*
X145070952Y-87780714D01*
X144880476Y-87733095D01*
X144785238Y-87685476D01*
X144690000Y-87590238D01*
X144642380Y-87447380D01*
X144642380Y-87352142D01*
X144690000Y-87209285D01*
X144737619Y-87161666D01*
X145642380Y-86209285D02*
X145642380Y-86780714D01*
X145642380Y-86495000D02*
X144642380Y-86495000D01*
X144785238Y-86590238D01*
X144880476Y-86685476D01*
X144928095Y-86780714D01*
M02*
