G04 #@! TF.GenerationSoftware,KiCad,Pcbnew,(5.1.5)-3*
G04 #@! TF.CreationDate,2021-08-26T15:26:13+09:00*
G04 #@! TF.ProjectId,RemoteEmergencyKill,52656d6f-7465-4456-9d65-7267656e6379,rev?*
G04 #@! TF.SameCoordinates,Original*
G04 #@! TF.FileFunction,Paste,Bot*
G04 #@! TF.FilePolarity,Positive*
%FSLAX46Y46*%
G04 Gerber Fmt 4.6, Leading zero omitted, Abs format (unit mm)*
G04 Created by KiCad (PCBNEW (5.1.5)-3) date 2021-08-26 15:26:13*
%MOMM*%
%LPD*%
G04 APERTURE LIST*
%ADD10C,0.100000*%
G04 APERTURE END LIST*
D10*
G36*
X139990704Y-83640477D02*
G01*
X140000314Y-83641902D01*
X140009738Y-83644263D01*
X140018886Y-83647536D01*
X140027668Y-83651690D01*
X140036001Y-83656685D01*
X140043805Y-83662472D01*
X140051004Y-83668996D01*
X140057528Y-83676195D01*
X140063315Y-83683999D01*
X140068310Y-83692332D01*
X140072464Y-83701114D01*
X140075737Y-83710262D01*
X140078098Y-83719686D01*
X140079523Y-83729296D01*
X140080000Y-83739000D01*
X140080000Y-86541000D01*
X140079523Y-86550704D01*
X140078098Y-86560314D01*
X140075737Y-86569738D01*
X140072464Y-86578886D01*
X140068310Y-86587668D01*
X140063315Y-86596001D01*
X140057528Y-86603805D01*
X140051004Y-86611004D01*
X140043805Y-86617528D01*
X140036001Y-86623315D01*
X140027668Y-86628310D01*
X140018886Y-86632464D01*
X140009738Y-86635737D01*
X140000314Y-86638098D01*
X139990704Y-86639523D01*
X139981000Y-86640000D01*
X134179000Y-86640000D01*
X134169296Y-86639523D01*
X134159686Y-86638098D01*
X134150262Y-86635737D01*
X134141114Y-86632464D01*
X134132332Y-86628310D01*
X134123999Y-86623315D01*
X134116195Y-86617528D01*
X134108996Y-86611004D01*
X134102472Y-86603805D01*
X134096685Y-86596001D01*
X134091690Y-86587668D01*
X134087536Y-86578886D01*
X134084263Y-86569738D01*
X134081902Y-86560314D01*
X134080477Y-86550704D01*
X134080000Y-86541000D01*
X134080000Y-83739000D01*
X134080477Y-83729296D01*
X134081902Y-83719686D01*
X134084263Y-83710262D01*
X134087536Y-83701114D01*
X134091690Y-83692332D01*
X134096685Y-83683999D01*
X134102472Y-83676195D01*
X134108996Y-83668996D01*
X134116195Y-83662472D01*
X134123999Y-83656685D01*
X134132332Y-83651690D01*
X134141114Y-83647536D01*
X134150262Y-83644263D01*
X134159686Y-83641902D01*
X134169296Y-83640477D01*
X134179000Y-83640000D01*
X139981000Y-83640000D01*
X139990704Y-83640477D01*
G37*
G36*
X139990704Y-79640477D02*
G01*
X140000314Y-79641902D01*
X140009738Y-79644263D01*
X140018886Y-79647536D01*
X140027668Y-79651690D01*
X140036001Y-79656685D01*
X140043805Y-79662472D01*
X140051004Y-79668996D01*
X140057528Y-79676195D01*
X140063315Y-79683999D01*
X140068310Y-79692332D01*
X140072464Y-79701114D01*
X140075737Y-79710262D01*
X140078098Y-79719686D01*
X140079523Y-79729296D01*
X140080000Y-79739000D01*
X140080000Y-82541000D01*
X140079523Y-82550704D01*
X140078098Y-82560314D01*
X140075737Y-82569738D01*
X140072464Y-82578886D01*
X140068310Y-82587668D01*
X140063315Y-82596001D01*
X140057528Y-82603805D01*
X140051004Y-82611004D01*
X140043805Y-82617528D01*
X140036001Y-82623315D01*
X140027668Y-82628310D01*
X140018886Y-82632464D01*
X140009738Y-82635737D01*
X140000314Y-82638098D01*
X139990704Y-82639523D01*
X139981000Y-82640000D01*
X134179000Y-82640000D01*
X134169296Y-82639523D01*
X134159686Y-82638098D01*
X134150262Y-82635737D01*
X134141114Y-82632464D01*
X134132332Y-82628310D01*
X134123999Y-82623315D01*
X134116195Y-82617528D01*
X134108996Y-82611004D01*
X134102472Y-82603805D01*
X134096685Y-82596001D01*
X134091690Y-82587668D01*
X134087536Y-82578886D01*
X134084263Y-82569738D01*
X134081902Y-82560314D01*
X134080477Y-82550704D01*
X134080000Y-82541000D01*
X134080000Y-79739000D01*
X134080477Y-79729296D01*
X134081902Y-79719686D01*
X134084263Y-79710262D01*
X134087536Y-79701114D01*
X134091690Y-79692332D01*
X134096685Y-79683999D01*
X134102472Y-79676195D01*
X134108996Y-79668996D01*
X134116195Y-79662472D01*
X134123999Y-79656685D01*
X134132332Y-79651690D01*
X134141114Y-79647536D01*
X134150262Y-79644263D01*
X134159686Y-79641902D01*
X134169296Y-79640477D01*
X134179000Y-79640000D01*
X139981000Y-79640000D01*
X139990704Y-79640477D01*
G37*
M02*
