G04 #@! TF.GenerationSoftware,KiCad,Pcbnew,(5.1.4)-1*
G04 #@! TF.CreationDate,2021-07-09T03:02:35+09:00*
G04 #@! TF.ProjectId,RemoteEmergencyKill,52656d6f-7465-4456-9d65-7267656e6379,rev?*
G04 #@! TF.SameCoordinates,Original*
G04 #@! TF.FileFunction,Legend,Bot*
G04 #@! TF.FilePolarity,Positive*
%FSLAX46Y46*%
G04 Gerber Fmt 4.6, Leading zero omitted, Abs format (unit mm)*
G04 Created by KiCad (PCBNEW (5.1.4)-1) date 2021-07-09 03:02:35*
%MOMM*%
%LPD*%
G04 APERTURE LIST*
%ADD10C,0.100000*%
%ADD11C,0.150000*%
%ADD12C,0.120000*%
G04 APERTURE END LIST*
D10*
X115865714Y-112180000D02*
X116615714Y-112180000D01*
X116615714Y-112001428D01*
X116580000Y-111894285D01*
X116508571Y-111822857D01*
X116437142Y-111787142D01*
X116294285Y-111751428D01*
X116187142Y-111751428D01*
X116044285Y-111787142D01*
X115972857Y-111822857D01*
X115901428Y-111894285D01*
X115865714Y-112001428D01*
X115865714Y-112180000D01*
X115901428Y-111144285D02*
X115865714Y-111215714D01*
X115865714Y-111358571D01*
X115901428Y-111430000D01*
X115972857Y-111465714D01*
X116258571Y-111465714D01*
X116330000Y-111430000D01*
X116365714Y-111358571D01*
X116365714Y-111215714D01*
X116330000Y-111144285D01*
X116258571Y-111108571D01*
X116187142Y-111108571D01*
X116115714Y-111465714D01*
X115901428Y-110822857D02*
X115865714Y-110751428D01*
X115865714Y-110608571D01*
X115901428Y-110537142D01*
X115972857Y-110501428D01*
X116008571Y-110501428D01*
X116080000Y-110537142D01*
X116115714Y-110608571D01*
X116115714Y-110715714D01*
X116151428Y-110787142D01*
X116222857Y-110822857D01*
X116258571Y-110822857D01*
X116330000Y-110787142D01*
X116365714Y-110715714D01*
X116365714Y-110608571D01*
X116330000Y-110537142D01*
X115865714Y-110180000D02*
X116365714Y-110180000D01*
X116615714Y-110180000D02*
X116580000Y-110215714D01*
X116544285Y-110180000D01*
X116580000Y-110144285D01*
X116615714Y-110180000D01*
X116544285Y-110180000D01*
X116365714Y-109501428D02*
X115758571Y-109501428D01*
X115687142Y-109537142D01*
X115651428Y-109572857D01*
X115615714Y-109644285D01*
X115615714Y-109751428D01*
X115651428Y-109822857D01*
X115901428Y-109501428D02*
X115865714Y-109572857D01*
X115865714Y-109715714D01*
X115901428Y-109787142D01*
X115937142Y-109822857D01*
X116008571Y-109858571D01*
X116222857Y-109858571D01*
X116294285Y-109822857D01*
X116330000Y-109787142D01*
X116365714Y-109715714D01*
X116365714Y-109572857D01*
X116330000Y-109501428D01*
X116365714Y-109144285D02*
X115865714Y-109144285D01*
X116294285Y-109144285D02*
X116330000Y-109108571D01*
X116365714Y-109037142D01*
X116365714Y-108930000D01*
X116330000Y-108858571D01*
X116258571Y-108822857D01*
X115865714Y-108822857D01*
X115901428Y-108180000D02*
X115865714Y-108251428D01*
X115865714Y-108394285D01*
X115901428Y-108465714D01*
X115972857Y-108501428D01*
X116258571Y-108501428D01*
X116330000Y-108465714D01*
X116365714Y-108394285D01*
X116365714Y-108251428D01*
X116330000Y-108180000D01*
X116258571Y-108144285D01*
X116187142Y-108144285D01*
X116115714Y-108501428D01*
X115865714Y-107501428D02*
X116615714Y-107501428D01*
X115901428Y-107501428D02*
X115865714Y-107572857D01*
X115865714Y-107715714D01*
X115901428Y-107787142D01*
X115937142Y-107822857D01*
X116008571Y-107858571D01*
X116222857Y-107858571D01*
X116294285Y-107822857D01*
X116330000Y-107787142D01*
X116365714Y-107715714D01*
X116365714Y-107572857D01*
X116330000Y-107501428D01*
X115865714Y-106572857D02*
X116615714Y-106572857D01*
X116330000Y-106572857D02*
X116365714Y-106501428D01*
X116365714Y-106358571D01*
X116330000Y-106287142D01*
X116294285Y-106251428D01*
X116222857Y-106215714D01*
X116008571Y-106215714D01*
X115937142Y-106251428D01*
X115901428Y-106287142D01*
X115865714Y-106358571D01*
X115865714Y-106501428D01*
X115901428Y-106572857D01*
X116365714Y-105965714D02*
X115865714Y-105787142D01*
X116365714Y-105608571D02*
X115865714Y-105787142D01*
X115687142Y-105858571D01*
X115651428Y-105894285D01*
X115615714Y-105965714D01*
X116365714Y-104751428D02*
X115615714Y-104751428D01*
X116330000Y-104751428D02*
X116365714Y-104680000D01*
X116365714Y-104537142D01*
X116330000Y-104465714D01*
X116294285Y-104430000D01*
X116222857Y-104394285D01*
X116008571Y-104394285D01*
X115937142Y-104430000D01*
X115901428Y-104465714D01*
X115865714Y-104537142D01*
X115865714Y-104680000D01*
X115901428Y-104751428D01*
X115865714Y-103751428D02*
X116258571Y-103751428D01*
X116330000Y-103787142D01*
X116365714Y-103858571D01*
X116365714Y-104001428D01*
X116330000Y-104072857D01*
X115901428Y-103751428D02*
X115865714Y-103822857D01*
X115865714Y-104001428D01*
X115901428Y-104072857D01*
X115972857Y-104108571D01*
X116044285Y-104108571D01*
X116115714Y-104072857D01*
X116151428Y-104001428D01*
X116151428Y-103822857D01*
X116187142Y-103751428D01*
X115865714Y-103394285D02*
X116365714Y-103394285D01*
X116222857Y-103394285D02*
X116294285Y-103358571D01*
X116330000Y-103322857D01*
X116365714Y-103251428D01*
X116365714Y-103180000D01*
X115865714Y-102930000D02*
X116365714Y-102930000D01*
X116615714Y-102930000D02*
X116580000Y-102965714D01*
X116544285Y-102930000D01*
X116580000Y-102894285D01*
X116615714Y-102930000D01*
X116544285Y-102930000D01*
X116365714Y-102572857D02*
X115615714Y-102572857D01*
X116330000Y-102572857D02*
X116365714Y-102501428D01*
X116365714Y-102358571D01*
X116330000Y-102287142D01*
X116294285Y-102251428D01*
X116222857Y-102215714D01*
X116008571Y-102215714D01*
X115937142Y-102251428D01*
X115901428Y-102287142D01*
X115865714Y-102358571D01*
X115865714Y-102501428D01*
X115901428Y-102572857D01*
X115865714Y-101572857D02*
X116258571Y-101572857D01*
X116330000Y-101608571D01*
X116365714Y-101680000D01*
X116365714Y-101822857D01*
X116330000Y-101894285D01*
X115901428Y-101572857D02*
X115865714Y-101644285D01*
X115865714Y-101822857D01*
X115901428Y-101894285D01*
X115972857Y-101930000D01*
X116044285Y-101930000D01*
X116115714Y-101894285D01*
X116151428Y-101822857D01*
X116151428Y-101644285D01*
X116187142Y-101572857D01*
X115865714Y-101108571D02*
X115901428Y-101180000D01*
X115972857Y-101215714D01*
X116615714Y-101215714D01*
D11*
X117022619Y-109989523D02*
X117498809Y-110322857D01*
X117022619Y-110560952D02*
X118022619Y-110560952D01*
X118022619Y-110180000D01*
X117975000Y-110084761D01*
X117927380Y-110037142D01*
X117832142Y-109989523D01*
X117689285Y-109989523D01*
X117594047Y-110037142D01*
X117546428Y-110084761D01*
X117498809Y-110180000D01*
X117498809Y-110560952D01*
X117546428Y-109560952D02*
X117546428Y-109227619D01*
X117022619Y-109084761D02*
X117022619Y-109560952D01*
X118022619Y-109560952D01*
X118022619Y-109084761D01*
X117022619Y-108656190D02*
X118022619Y-108656190D01*
X117022619Y-108084761D02*
X117594047Y-108513333D01*
X118022619Y-108084761D02*
X117451190Y-108656190D01*
X117403571Y-107656190D02*
X117403571Y-106894285D01*
X117022619Y-105894285D02*
X117022619Y-106465714D01*
X117022619Y-106180000D02*
X118022619Y-106180000D01*
X117879761Y-106275238D01*
X117784523Y-106370476D01*
X117736904Y-106465714D01*
X116927380Y-105703809D02*
X116927380Y-104941904D01*
X118022619Y-104513333D02*
X118022619Y-104418095D01*
X117975000Y-104322857D01*
X117927380Y-104275238D01*
X117832142Y-104227619D01*
X117641666Y-104180000D01*
X117403571Y-104180000D01*
X117213095Y-104227619D01*
X117117857Y-104275238D01*
X117070238Y-104322857D01*
X117022619Y-104418095D01*
X117022619Y-104513333D01*
X117070238Y-104608571D01*
X117117857Y-104656190D01*
X117213095Y-104703809D01*
X117403571Y-104751428D01*
X117641666Y-104751428D01*
X117832142Y-104703809D01*
X117927380Y-104656190D01*
X117975000Y-104608571D01*
X118022619Y-104513333D01*
X117117857Y-103751428D02*
X117070238Y-103703809D01*
X117022619Y-103751428D01*
X117070238Y-103799047D01*
X117117857Y-103751428D01*
X117022619Y-103751428D01*
X118022619Y-103084761D02*
X118022619Y-102989523D01*
X117975000Y-102894285D01*
X117927380Y-102846666D01*
X117832142Y-102799047D01*
X117641666Y-102751428D01*
X117403571Y-102751428D01*
X117213095Y-102799047D01*
X117117857Y-102846666D01*
X117070238Y-102894285D01*
X117022619Y-102989523D01*
X117022619Y-103084761D01*
X117070238Y-103180000D01*
X117117857Y-103227619D01*
X117213095Y-103275238D01*
X117403571Y-103322857D01*
X117641666Y-103322857D01*
X117832142Y-103275238D01*
X117927380Y-103227619D01*
X117975000Y-103180000D01*
X118022619Y-103084761D01*
D12*
X123330000Y-88140000D02*
X140830000Y-88140000D01*
X123330000Y-120140000D02*
X123330000Y-88140000D01*
X140830000Y-120140000D02*
X123330000Y-120140000D01*
X140830000Y-88140000D02*
X140830000Y-120140000D01*
D11*
X132865714Y-87068571D02*
X132722857Y-87116190D01*
X132675238Y-87163809D01*
X132627619Y-87259047D01*
X132627619Y-87401904D01*
X132675238Y-87497142D01*
X132722857Y-87544761D01*
X132818095Y-87592380D01*
X133199047Y-87592380D01*
X133199047Y-86592380D01*
X132865714Y-86592380D01*
X132770476Y-86640000D01*
X132722857Y-86687619D01*
X132675238Y-86782857D01*
X132675238Y-86878095D01*
X132722857Y-86973333D01*
X132770476Y-87020952D01*
X132865714Y-87068571D01*
X133199047Y-87068571D01*
X132341904Y-86592380D02*
X131770476Y-86592380D01*
X132056190Y-87592380D02*
X132056190Y-86592380D01*
X130913333Y-87592380D02*
X131484761Y-87592380D01*
X131199047Y-87592380D02*
X131199047Y-86592380D01*
X131294285Y-86735238D01*
X131389523Y-86830476D01*
X131484761Y-86878095D01*
X135127619Y-103592380D02*
X135603809Y-103592380D01*
X135603809Y-102592380D01*
X134794285Y-103592380D02*
X134794285Y-102592380D01*
X134413333Y-102592380D01*
X134318095Y-102640000D01*
X134270476Y-102687619D01*
X134222857Y-102782857D01*
X134222857Y-102925714D01*
X134270476Y-103020952D01*
X134318095Y-103068571D01*
X134413333Y-103116190D01*
X134794285Y-103116190D01*
X133365714Y-102925714D02*
X133365714Y-103592380D01*
X133603809Y-102544761D02*
X133841904Y-103259047D01*
X133222857Y-103259047D01*
X132651428Y-102592380D02*
X132556190Y-102592380D01*
X132460952Y-102640000D01*
X132413333Y-102687619D01*
X132365714Y-102782857D01*
X132318095Y-102973333D01*
X132318095Y-103211428D01*
X132365714Y-103401904D01*
X132413333Y-103497142D01*
X132460952Y-103544761D01*
X132556190Y-103592380D01*
X132651428Y-103592380D01*
X132746666Y-103544761D01*
X132794285Y-103497142D01*
X132841904Y-103401904D01*
X132889523Y-103211428D01*
X132889523Y-102973333D01*
X132841904Y-102782857D01*
X132794285Y-102687619D01*
X132746666Y-102640000D01*
X132651428Y-102592380D01*
X131365714Y-103592380D02*
X131937142Y-103592380D01*
X131651428Y-103592380D02*
X131651428Y-102592380D01*
X131746666Y-102735238D01*
X131841904Y-102830476D01*
X131937142Y-102878095D01*
X131032380Y-102592380D02*
X130365714Y-102592380D01*
X130794285Y-103592380D01*
X130080000Y-102592380D02*
X129460952Y-102592380D01*
X129794285Y-102973333D01*
X129651428Y-102973333D01*
X129556190Y-103020952D01*
X129508571Y-103068571D01*
X129460952Y-103163809D01*
X129460952Y-103401904D01*
X129508571Y-103497142D01*
X129556190Y-103544761D01*
X129651428Y-103592380D01*
X129937142Y-103592380D01*
X130032380Y-103544761D01*
X130080000Y-103497142D01*
X128841904Y-102592380D02*
X128746666Y-102592380D01*
X128651428Y-102640000D01*
X128603809Y-102687619D01*
X128556190Y-102782857D01*
X128508571Y-102973333D01*
X128508571Y-103211428D01*
X128556190Y-103401904D01*
X128603809Y-103497142D01*
X128651428Y-103544761D01*
X128746666Y-103592380D01*
X128841904Y-103592380D01*
X128937142Y-103544761D01*
X128984761Y-103497142D01*
X129032380Y-103401904D01*
X129080000Y-103211428D01*
X129080000Y-102973333D01*
X129032380Y-102782857D01*
X128984761Y-102687619D01*
X128937142Y-102640000D01*
X128841904Y-102592380D01*
X141460952Y-85211428D02*
X140699047Y-85211428D01*
X141460952Y-81211428D02*
X140699047Y-81211428D01*
X141080000Y-81592380D02*
X141080000Y-80830476D01*
M02*
