M48
; DRILL file {KiCad (5.1.4)-1} date 2021/07/09 3:02:40
; FORMAT={-:-/ absolute / inch / decimal}
; #@! TF.CreationDate,2021-07-09T03:02:40+09:00
; #@! TF.GenerationSoftware,Kicad,Pcbnew,(5.1.4)-1
; #@! TF.FileFunction,Plated,1,2,PTH
FMAT,2
INCH
T1C0.0157
T2C0.0236
T3C0.0315
T4C0.0354
T5C0.0866
%
G90
G05
T1
X4.55Y-3.65
X4.6Y-2.95
X4.6Y-3.05
X4.6Y-3.55
X4.6Y-3.95
X4.6Y-4.1
X4.65Y-3.3
X4.65Y-3.4
X4.65Y-4.4
X4.675Y-4.15
X4.6925Y-4.3075
X4.725Y-3.425
X4.725Y-4.2
X4.75Y-4.45
X4.75Y-4.65
X4.8Y-2.925
X4.8Y-3.075
X4.8Y-3.75
X4.825Y-4.15
X4.85Y-3.475
X4.875Y-3.175
X4.9Y-3.9
X4.9Y-4.7
X4.95Y-3.75
X4.975Y-3.275
X5.0Y-2.825
X5.0Y-4.225
X5.05Y-4.1
X5.1Y-3.85
X5.15Y-3.6
X5.15Y-4.4
X5.175Y-4.2
X5.2Y-3.05
X5.2Y-4.0
X5.225Y-3.35
X5.225Y-4.35
X5.25Y-3.75
X5.25Y-4.575
X5.2535Y-4.3
X5.3Y-2.9
X5.3Y-3.225
X5.3Y-3.55
X5.3Y-4.575
X5.325Y-4.225
X5.35Y-4.575
X5.4Y-4.15
X5.4Y-4.575
X5.4496Y-4.3246
X5.45Y-4.575
X5.5Y-4.4
X5.525Y-4.7
X5.55Y-3.575
X5.55Y-4.45
X5.55Y-4.6
X5.6Y-3.175
X5.65Y-2.9
X5.65Y-3.55
X5.65Y-3.7
X5.65Y-3.85
X5.65Y-4.0
X5.65Y-4.15
X5.65Y-4.3
X4.535Y-2.8
X4.5541Y-2.7541
X4.5541Y-2.8459
X4.6Y-2.735
X4.6Y-2.865
X4.6459Y-2.7541
X4.6459Y-2.8459
X4.665Y-2.8
T3
X4.537Y-3.75
X4.663Y-3.6516
X4.663Y-3.8484
T4
X5.4016Y-3.0559
X5.5Y-3.0559
X5.5984Y-3.0559
T5
X4.6Y-2.8
X4.6077Y-4.5567
X5.1549Y-3.222
X5.7022Y-4.5567
T2
G00X4.8602Y-2.7652
M15
G01X4.8602Y-2.7848
M16
G05
G00X5.1398Y-2.7652
M15
G01X5.1398Y-2.7848
M16
G05
T0
M30
