M48
; DRILL file {KiCad (5.1.5)-3} date 2021/08/26 15:26:15
; FORMAT={-:-/ absolute / metric / decimal}
; #@! TF.CreationDate,2021-08-26T15:26:15+09:00
; #@! TF.GenerationSoftware,Kicad,Pcbnew,(5.1.5)-3
; #@! TF.FileFunction,Plated,1,2,PTH
FMAT,2
METRIC
T1C0.400
T2C0.600
T3C0.800
T4C0.950
T5C1.000
T6C2.200
%
G90
G05
T1
X116.0Y-86.0
X116.0Y-94.0
X116.84Y-74.93
X116.84Y-99.695
X117.475Y-112.395
X118.0Y-79.0
X118.785Y-105.974
X118.942Y-107.118
X119.0Y-78.0
X119.38Y-99.695
X120.0Y-86.0
X121.285Y-101.6
X121.285Y-109.855
X121.285Y-114.3
X121.92Y-74.295
X121.92Y-87.63
X122.555Y-80.01
X122.555Y-105.41
X122.555Y-111.76
X123.19Y-104.14
X124.46Y-118.11
X125.095Y-95.25
X125.415Y-102.905
X126.365Y-75.565
X126.365Y-83.185
X127.0Y-71.755
X128.27Y-111.76
X128.27Y-117.475
X130.175Y-100.965
X130.81Y-91.44
X130.81Y-118.11
X131.07Y-101.6
X131.858Y-106.065
X132.08Y-77.47
X133.0Y-81.0
X133.35Y-95.25
X133.35Y-111.76
X134.62Y-73.66
X134.62Y-81.915
X134.62Y-89.535
X134.62Y-102.235
X134.62Y-118.11
X136.525Y-111.125
X138.43Y-90.805
X138.43Y-94.615
X138.43Y-111.76
X138.43Y-117.475
X139.7Y-99.695
X139.7Y-104.14
X141.605Y-90.17
X141.605Y-110.49
X142.24Y-118.11
X143.51Y-73.66
X145.415Y-89.535
X145.415Y-93.98
X145.415Y-99.06
X145.415Y-104.14
X145.415Y-111.125
X115.19Y-71.12
X115.673Y-69.953
X115.673Y-72.287
X116.84Y-69.47
X116.84Y-72.77
X118.007Y-69.953
X118.007Y-72.287
X118.49Y-71.12
T3
X115.24Y-90.0
X118.44Y-87.5
X118.44Y-92.5
T4
X137.835Y-78.105
X140.335Y-78.105
T5
X142.875Y-78.105
T6
X118.175Y-116.855
X116.84Y-71.12
T2
G00X123.45Y-73.41
M15
G01X123.45Y-73.91
M16
G05
G00X130.55Y-73.41
M15
G01X130.55Y-73.91
M16
G05
T0
M30
