G04 #@! TF.GenerationSoftware,KiCad,Pcbnew,(5.1.4)-1*
G04 #@! TF.CreationDate,2021-07-09T03:02:35+09:00*
G04 #@! TF.ProjectId,RemoteEmergencyKill,52656d6f-7465-4456-9d65-7267656e6379,rev?*
G04 #@! TF.SameCoordinates,Original*
G04 #@! TF.FileFunction,Soldermask,Bot*
G04 #@! TF.FilePolarity,Negative*
%FSLAX46Y46*%
G04 Gerber Fmt 4.6, Leading zero omitted, Abs format (unit mm)*
G04 Created by KiCad (PCBNEW (5.1.4)-1) date 2021-07-09 03:02:35*
%MOMM*%
%LPD*%
G04 APERTURE LIST*
%ADD10C,0.100000*%
G04 APERTURE END LIST*
D10*
G36*
X117310879Y-113499776D02*
G01*
X117691592Y-113575504D01*
X118101248Y-113745189D01*
X118469928Y-113991534D01*
X118783465Y-114305071D01*
X119029810Y-114673751D01*
X119199495Y-115083407D01*
X119285999Y-115518296D01*
X119285999Y-115961704D01*
X119199495Y-116396593D01*
X119029810Y-116806249D01*
X118783465Y-117174929D01*
X118469928Y-117488466D01*
X118101248Y-117734811D01*
X117691592Y-117904496D01*
X117310879Y-117980224D01*
X117256704Y-117991000D01*
X116813294Y-117991000D01*
X116759119Y-117980224D01*
X116378406Y-117904496D01*
X115968750Y-117734811D01*
X115600070Y-117488466D01*
X115286533Y-117174929D01*
X115040188Y-116806249D01*
X114870503Y-116396593D01*
X114783999Y-115961704D01*
X114783999Y-115518296D01*
X114870503Y-115083407D01*
X115040188Y-114673751D01*
X115286533Y-114305071D01*
X115600070Y-113991534D01*
X115968750Y-113745189D01*
X116378406Y-113575504D01*
X116759119Y-113499776D01*
X116813294Y-113489000D01*
X117256704Y-113489000D01*
X117310879Y-113499776D01*
X117310879Y-113499776D01*
G37*
G36*
X145110879Y-113499776D02*
G01*
X145491592Y-113575504D01*
X145901248Y-113745189D01*
X146269928Y-113991534D01*
X146583465Y-114305071D01*
X146829810Y-114673751D01*
X146999495Y-115083407D01*
X147085999Y-115518296D01*
X147085999Y-115961704D01*
X146999495Y-116396593D01*
X146829810Y-116806249D01*
X146583465Y-117174929D01*
X146269928Y-117488466D01*
X145901248Y-117734811D01*
X145491592Y-117904496D01*
X145110879Y-117980224D01*
X145056704Y-117991000D01*
X144613294Y-117991000D01*
X144559119Y-117980224D01*
X144178406Y-117904496D01*
X143768750Y-117734811D01*
X143400070Y-117488466D01*
X143086533Y-117174929D01*
X142840188Y-116806249D01*
X142670503Y-116396593D01*
X142583999Y-115961704D01*
X142583999Y-115518296D01*
X142670503Y-115083407D01*
X142840188Y-114673751D01*
X143086533Y-114305071D01*
X143400070Y-113991534D01*
X143768750Y-113745189D01*
X144178406Y-113575504D01*
X144559119Y-113499776D01*
X144613294Y-113489000D01*
X145056704Y-113489000D01*
X145110879Y-113499776D01*
X145110879Y-113499776D01*
G37*
G36*
X118659059Y-97027860D02*
G01*
X118795732Y-97084472D01*
X118918735Y-97166660D01*
X119023340Y-97271265D01*
X119105528Y-97394268D01*
X119162140Y-97530941D01*
X119191000Y-97676033D01*
X119191000Y-97823967D01*
X119162140Y-97969059D01*
X119105528Y-98105732D01*
X119023340Y-98228735D01*
X118918735Y-98333340D01*
X118795732Y-98415528D01*
X118795731Y-98415529D01*
X118795730Y-98415529D01*
X118659059Y-98472140D01*
X118513968Y-98501000D01*
X118366032Y-98501000D01*
X118220941Y-98472140D01*
X118084270Y-98415529D01*
X118084269Y-98415529D01*
X118084268Y-98415528D01*
X117961265Y-98333340D01*
X117856660Y-98228735D01*
X117774472Y-98105732D01*
X117717860Y-97969059D01*
X117689000Y-97823967D01*
X117689000Y-97676033D01*
X117717860Y-97530941D01*
X117774472Y-97394268D01*
X117856660Y-97271265D01*
X117961265Y-97166660D01*
X118084268Y-97084472D01*
X118220941Y-97027860D01*
X118366032Y-96999000D01*
X118513968Y-96999000D01*
X118659059Y-97027860D01*
X118659059Y-97027860D01*
G37*
G36*
X115459059Y-94527860D02*
G01*
X115595732Y-94584472D01*
X115718735Y-94666660D01*
X115823340Y-94771265D01*
X115905528Y-94894268D01*
X115962140Y-95030941D01*
X115991000Y-95176033D01*
X115991000Y-95323967D01*
X115962140Y-95469059D01*
X115905528Y-95605732D01*
X115823340Y-95728735D01*
X115718735Y-95833340D01*
X115595732Y-95915528D01*
X115595731Y-95915529D01*
X115595730Y-95915529D01*
X115459059Y-95972140D01*
X115313968Y-96001000D01*
X115166032Y-96001000D01*
X115020941Y-95972140D01*
X114884270Y-95915529D01*
X114884269Y-95915529D01*
X114884268Y-95915528D01*
X114761265Y-95833340D01*
X114656660Y-95728735D01*
X114574472Y-95605732D01*
X114517860Y-95469059D01*
X114489000Y-95323967D01*
X114489000Y-95176033D01*
X114517860Y-95030941D01*
X114574472Y-94894268D01*
X114656660Y-94771265D01*
X114761265Y-94666660D01*
X114884268Y-94584472D01*
X115020941Y-94527860D01*
X115166032Y-94499000D01*
X115313968Y-94499000D01*
X115459059Y-94527860D01*
X115459059Y-94527860D01*
G37*
G36*
X118659059Y-92027860D02*
G01*
X118795732Y-92084472D01*
X118918735Y-92166660D01*
X119023340Y-92271265D01*
X119105528Y-92394268D01*
X119162140Y-92530941D01*
X119191000Y-92676033D01*
X119191000Y-92823967D01*
X119162140Y-92969059D01*
X119105528Y-93105732D01*
X119023340Y-93228735D01*
X118918735Y-93333340D01*
X118795732Y-93415528D01*
X118795731Y-93415529D01*
X118795730Y-93415529D01*
X118659059Y-93472140D01*
X118513968Y-93501000D01*
X118366032Y-93501000D01*
X118220941Y-93472140D01*
X118084270Y-93415529D01*
X118084269Y-93415529D01*
X118084268Y-93415528D01*
X117961265Y-93333340D01*
X117856660Y-93228735D01*
X117774472Y-93105732D01*
X117717860Y-92969059D01*
X117689000Y-92823967D01*
X117689000Y-92676033D01*
X117717860Y-92530941D01*
X117774472Y-92394268D01*
X117856660Y-92271265D01*
X117961265Y-92166660D01*
X118084268Y-92084472D01*
X118220941Y-92027860D01*
X118366032Y-91999000D01*
X118513968Y-91999000D01*
X118659059Y-92027860D01*
X118659059Y-92027860D01*
G37*
G36*
X140131000Y-86691000D02*
G01*
X134029000Y-86691000D01*
X134029000Y-83589000D01*
X140131000Y-83589000D01*
X140131000Y-86691000D01*
X140131000Y-86691000D01*
G37*
G36*
X131210879Y-79599776D02*
G01*
X131591592Y-79675504D01*
X132001248Y-79845189D01*
X132369928Y-80091534D01*
X132683465Y-80405071D01*
X132929810Y-80773751D01*
X133099495Y-81183407D01*
X133185999Y-81618296D01*
X133185999Y-82061704D01*
X133099495Y-82496593D01*
X132929810Y-82906249D01*
X132683465Y-83274929D01*
X132369928Y-83588466D01*
X132001248Y-83834811D01*
X131591592Y-84004496D01*
X131210879Y-84080224D01*
X131156704Y-84091000D01*
X130713294Y-84091000D01*
X130659119Y-84080224D01*
X130278406Y-84004496D01*
X129868750Y-83834811D01*
X129500070Y-83588466D01*
X129186533Y-83274929D01*
X128940188Y-82906249D01*
X128770503Y-82496593D01*
X128683999Y-82061704D01*
X128683999Y-81618296D01*
X128770503Y-81183407D01*
X128940188Y-80773751D01*
X129186533Y-80405071D01*
X129500070Y-80091534D01*
X129868750Y-79845189D01*
X130278406Y-79675504D01*
X130659119Y-79599776D01*
X130713294Y-79589000D01*
X131156704Y-79589000D01*
X131210879Y-79599776D01*
X131210879Y-79599776D01*
G37*
G36*
X140131000Y-82691000D02*
G01*
X134029000Y-82691000D01*
X134029000Y-79589000D01*
X140131000Y-79589000D01*
X140131000Y-82691000D01*
X140131000Y-82691000D01*
G37*
G36*
X139977395Y-76705546D02*
G01*
X140150466Y-76777234D01*
X140150467Y-76777235D01*
X140306227Y-76881310D01*
X140438690Y-77013773D01*
X140438691Y-77013775D01*
X140542766Y-77169534D01*
X140614454Y-77342605D01*
X140651000Y-77526333D01*
X140651000Y-77713667D01*
X140614454Y-77897395D01*
X140542766Y-78070466D01*
X140542765Y-78070467D01*
X140438690Y-78226227D01*
X140306227Y-78358690D01*
X140304754Y-78359674D01*
X140150466Y-78462766D01*
X139977395Y-78534454D01*
X139793667Y-78571000D01*
X139606333Y-78571000D01*
X139422605Y-78534454D01*
X139249534Y-78462766D01*
X139095246Y-78359674D01*
X139093773Y-78358690D01*
X138961310Y-78226227D01*
X138857235Y-78070467D01*
X138857234Y-78070466D01*
X138785546Y-77897395D01*
X138749000Y-77713667D01*
X138749000Y-77526333D01*
X138785546Y-77342605D01*
X138857234Y-77169534D01*
X138961309Y-77013775D01*
X138961310Y-77013773D01*
X139093773Y-76881310D01*
X139249533Y-76777235D01*
X139249534Y-76777234D01*
X139422605Y-76705546D01*
X139606333Y-76669000D01*
X139793667Y-76669000D01*
X139977395Y-76705546D01*
X139977395Y-76705546D01*
G37*
G36*
X142818455Y-76677528D02*
G01*
X142895812Y-76700995D01*
X142967117Y-76739108D01*
X143029608Y-76790392D01*
X143080892Y-76852883D01*
X143119005Y-76924188D01*
X143142472Y-77001545D01*
X143151000Y-77088140D01*
X143151000Y-78151860D01*
X143142472Y-78238455D01*
X143119005Y-78315812D01*
X143080892Y-78387117D01*
X143029608Y-78449608D01*
X142967117Y-78500892D01*
X142895812Y-78539005D01*
X142818455Y-78562472D01*
X142731860Y-78571000D01*
X141668140Y-78571000D01*
X141581545Y-78562472D01*
X141504188Y-78539005D01*
X141432883Y-78500892D01*
X141370392Y-78449608D01*
X141319108Y-78387117D01*
X141280995Y-78315812D01*
X141257528Y-78238455D01*
X141249000Y-78151860D01*
X141249000Y-77088140D01*
X141257528Y-77001545D01*
X141280995Y-76924188D01*
X141319108Y-76852883D01*
X141370392Y-76790392D01*
X141432883Y-76739108D01*
X141504188Y-76700995D01*
X141581545Y-76677528D01*
X141668140Y-76669000D01*
X142731860Y-76669000D01*
X142818455Y-76677528D01*
X142818455Y-76677528D01*
G37*
G36*
X137477395Y-76705546D02*
G01*
X137650466Y-76777234D01*
X137650467Y-76777235D01*
X137806227Y-76881310D01*
X137938690Y-77013773D01*
X137938691Y-77013775D01*
X138042766Y-77169534D01*
X138114454Y-77342605D01*
X138151000Y-77526333D01*
X138151000Y-77713667D01*
X138114454Y-77897395D01*
X138042766Y-78070466D01*
X138042765Y-78070467D01*
X137938690Y-78226227D01*
X137806227Y-78358690D01*
X137804754Y-78359674D01*
X137650466Y-78462766D01*
X137477395Y-78534454D01*
X137293667Y-78571000D01*
X137106333Y-78571000D01*
X136922605Y-78534454D01*
X136749534Y-78462766D01*
X136595246Y-78359674D01*
X136593773Y-78358690D01*
X136461310Y-78226227D01*
X136357235Y-78070467D01*
X136357234Y-78070466D01*
X136285546Y-77897395D01*
X136249000Y-77713667D01*
X136249000Y-77526333D01*
X136285546Y-77342605D01*
X136357234Y-77169534D01*
X136461309Y-77013775D01*
X136461310Y-77013773D01*
X136593773Y-76881310D01*
X136749533Y-76777235D01*
X136749534Y-76777234D01*
X136922605Y-76705546D01*
X137106333Y-76669000D01*
X137293667Y-76669000D01*
X137477395Y-76705546D01*
X137477395Y-76705546D01*
G37*
G36*
X117115880Y-68879776D02*
G01*
X117496593Y-68955504D01*
X117906249Y-69125189D01*
X118274929Y-69371534D01*
X118588466Y-69685071D01*
X118834811Y-70053751D01*
X119004496Y-70463407D01*
X119091000Y-70898296D01*
X119091000Y-71341704D01*
X119004496Y-71776593D01*
X118834811Y-72186249D01*
X118588466Y-72554929D01*
X118274929Y-72868466D01*
X117906249Y-73114811D01*
X117496593Y-73284496D01*
X117115880Y-73360224D01*
X117061705Y-73371000D01*
X116618295Y-73371000D01*
X116564120Y-73360224D01*
X116183407Y-73284496D01*
X115773751Y-73114811D01*
X115405071Y-72868466D01*
X115091534Y-72554929D01*
X114845189Y-72186249D01*
X114675504Y-71776593D01*
X114589000Y-71341704D01*
X114589000Y-70898296D01*
X114675504Y-70463407D01*
X114845189Y-70053751D01*
X115091534Y-69685071D01*
X115405071Y-69371534D01*
X115773751Y-69125189D01*
X116183407Y-68955504D01*
X116564120Y-68879776D01*
X116618295Y-68869000D01*
X117061705Y-68869000D01*
X117115880Y-68879776D01*
X117115880Y-68879776D01*
G37*
G36*
X140203097Y-70074069D02*
G01*
X140306032Y-70084207D01*
X140500566Y-70143219D01*
X140504149Y-70144306D01*
X140600975Y-70196061D01*
X140686729Y-70241897D01*
X140846765Y-70373235D01*
X140978103Y-70533271D01*
X141023939Y-70619025D01*
X141075694Y-70715851D01*
X141075695Y-70715854D01*
X141135793Y-70913968D01*
X141156085Y-71120000D01*
X141135793Y-71326032D01*
X141103806Y-71431477D01*
X141075694Y-71524149D01*
X141023939Y-71620975D01*
X140978103Y-71706729D01*
X140846765Y-71866765D01*
X140686729Y-71998103D01*
X140624988Y-72031104D01*
X140504149Y-72095694D01*
X140504146Y-72095695D01*
X140306032Y-72155793D01*
X140203097Y-72165931D01*
X140151631Y-72171000D01*
X139248369Y-72171000D01*
X139196903Y-72165931D01*
X139093968Y-72155793D01*
X138895854Y-72095695D01*
X138895851Y-72095694D01*
X138775012Y-72031104D01*
X138713271Y-71998103D01*
X138553235Y-71866765D01*
X138421897Y-71706729D01*
X138376061Y-71620975D01*
X138324306Y-71524149D01*
X138296194Y-71431477D01*
X138264207Y-71326032D01*
X138243915Y-71120000D01*
X138264207Y-70913968D01*
X138324305Y-70715854D01*
X138324306Y-70715851D01*
X138376061Y-70619025D01*
X138421897Y-70533271D01*
X138553235Y-70373235D01*
X138713271Y-70241897D01*
X138799025Y-70196061D01*
X138895851Y-70144306D01*
X138899434Y-70143219D01*
X139093968Y-70084207D01*
X139196903Y-70074069D01*
X139248369Y-70069000D01*
X140151631Y-70069000D01*
X140203097Y-70074069D01*
X140203097Y-70074069D01*
G37*
G36*
X130667817Y-69642696D02*
G01*
X130781104Y-69677062D01*
X130885511Y-69732869D01*
X130885513Y-69732870D01*
X130885512Y-69732870D01*
X130977027Y-69807973D01*
X131040711Y-69885572D01*
X131052131Y-69899488D01*
X131107938Y-70003895D01*
X131142304Y-70117182D01*
X131151000Y-70205481D01*
X131151000Y-70764519D01*
X131142304Y-70852818D01*
X131107938Y-70966105D01*
X131052131Y-71070512D01*
X130977027Y-71162027D01*
X130885512Y-71237131D01*
X130781105Y-71292938D01*
X130667818Y-71327304D01*
X130550000Y-71338907D01*
X130432183Y-71327304D01*
X130318896Y-71292938D01*
X130214489Y-71237131D01*
X130122974Y-71162027D01*
X130047869Y-71070512D01*
X129992062Y-70966105D01*
X129957696Y-70852818D01*
X129949000Y-70764519D01*
X129949000Y-70205482D01*
X129957696Y-70117183D01*
X129992062Y-70003896D01*
X130047869Y-69899489D01*
X130071249Y-69871000D01*
X130122973Y-69807973D01*
X130214487Y-69732870D01*
X130214486Y-69732870D01*
X130214488Y-69732869D01*
X130318895Y-69677062D01*
X130432182Y-69642696D01*
X130550000Y-69631093D01*
X130667817Y-69642696D01*
X130667817Y-69642696D01*
G37*
G36*
X123567817Y-69642696D02*
G01*
X123681104Y-69677062D01*
X123785511Y-69732869D01*
X123785513Y-69732870D01*
X123785512Y-69732870D01*
X123877027Y-69807973D01*
X123940711Y-69885572D01*
X123952131Y-69899488D01*
X124007938Y-70003895D01*
X124042304Y-70117182D01*
X124051000Y-70205481D01*
X124051000Y-70764519D01*
X124042304Y-70852818D01*
X124007938Y-70966105D01*
X123952131Y-71070512D01*
X123877027Y-71162027D01*
X123785512Y-71237131D01*
X123681105Y-71292938D01*
X123567818Y-71327304D01*
X123450000Y-71338907D01*
X123332183Y-71327304D01*
X123218896Y-71292938D01*
X123114489Y-71237131D01*
X123022974Y-71162027D01*
X122947869Y-71070512D01*
X122892062Y-70966105D01*
X122857696Y-70852818D01*
X122849000Y-70764519D01*
X122849000Y-70205482D01*
X122857696Y-70117183D01*
X122892062Y-70003896D01*
X122947869Y-69899489D01*
X122971249Y-69871000D01*
X123022973Y-69807973D01*
X123114487Y-69732870D01*
X123114486Y-69732870D01*
X123114488Y-69732869D01*
X123218895Y-69677062D01*
X123332182Y-69642696D01*
X123450000Y-69631093D01*
X123567817Y-69642696D01*
X123567817Y-69642696D01*
G37*
M02*
