G04 #@! TF.GenerationSoftware,KiCad,Pcbnew,(5.1.5)-3*
G04 #@! TF.CreationDate,2021-08-26T15:26:13+09:00*
G04 #@! TF.ProjectId,RemoteEmergencyKill,52656d6f-7465-4456-9d65-7267656e6379,rev?*
G04 #@! TF.SameCoordinates,Original*
G04 #@! TF.FileFunction,Paste,Top*
G04 #@! TF.FilePolarity,Positive*
%FSLAX46Y46*%
G04 Gerber Fmt 4.6, Leading zero omitted, Abs format (unit mm)*
G04 Created by KiCad (PCBNEW (5.1.5)-3) date 2021-08-26 15:26:13*
%MOMM*%
%LPD*%
G04 APERTURE LIST*
%ADD10C,0.100000*%
%ADD11R,0.900000X4.500000*%
%ADD12R,1.100000X1.100000*%
G04 APERTURE END LIST*
D10*
G36*
X117265980Y-107955048D02*
G01*
X117266951Y-107955192D01*
X117267903Y-107955431D01*
X117268827Y-107955761D01*
X117269714Y-107956181D01*
X117270556Y-107956685D01*
X117271344Y-107957270D01*
X117272071Y-107957929D01*
X117272730Y-107958656D01*
X117273315Y-107959444D01*
X117273819Y-107960286D01*
X117274239Y-107961173D01*
X117274569Y-107962097D01*
X117274808Y-107963049D01*
X117274952Y-107964020D01*
X117275000Y-107965000D01*
X117275000Y-108345000D01*
X117274952Y-108345980D01*
X117274808Y-108346951D01*
X117274569Y-108347903D01*
X117274239Y-108348827D01*
X117273819Y-108349714D01*
X117273315Y-108350556D01*
X117272730Y-108351344D01*
X117272071Y-108352071D01*
X117271344Y-108352730D01*
X117270556Y-108353315D01*
X117269714Y-108353819D01*
X117268827Y-108354239D01*
X117267903Y-108354569D01*
X117266951Y-108354808D01*
X117265980Y-108354952D01*
X117265000Y-108355000D01*
X116185000Y-108355000D01*
X116184020Y-108354952D01*
X116183049Y-108354808D01*
X116182097Y-108354569D01*
X116181173Y-108354239D01*
X116180286Y-108353819D01*
X116179444Y-108353315D01*
X116178656Y-108352730D01*
X116177929Y-108352071D01*
X116177270Y-108351344D01*
X116176685Y-108350556D01*
X116176181Y-108349714D01*
X116175761Y-108348827D01*
X116175431Y-108347903D01*
X116175192Y-108346951D01*
X116175048Y-108345980D01*
X116175000Y-108345000D01*
X116175000Y-107965000D01*
X116175048Y-107964020D01*
X116175192Y-107963049D01*
X116175431Y-107962097D01*
X116175761Y-107961173D01*
X116176181Y-107960286D01*
X116176685Y-107959444D01*
X116177270Y-107958656D01*
X116177929Y-107957929D01*
X116178656Y-107957270D01*
X116179444Y-107956685D01*
X116180286Y-107956181D01*
X116181173Y-107955761D01*
X116182097Y-107955431D01*
X116183049Y-107955192D01*
X116184020Y-107955048D01*
X116185000Y-107955000D01*
X117265000Y-107955000D01*
X117265980Y-107955048D01*
G37*
G36*
X117268235Y-107455036D02*
G01*
X117268963Y-107455144D01*
X117269677Y-107455323D01*
X117270370Y-107455571D01*
X117271035Y-107455886D01*
X117271667Y-107456264D01*
X117272258Y-107456702D01*
X117272803Y-107457197D01*
X117273298Y-107457742D01*
X117273736Y-107458333D01*
X117274114Y-107458965D01*
X117274429Y-107459630D01*
X117274677Y-107460323D01*
X117274856Y-107461037D01*
X117274964Y-107461765D01*
X117275000Y-107462500D01*
X117275000Y-107747500D01*
X117274964Y-107748235D01*
X117274856Y-107748963D01*
X117274677Y-107749677D01*
X117274429Y-107750370D01*
X117274114Y-107751035D01*
X117273736Y-107751667D01*
X117273298Y-107752258D01*
X117272803Y-107752803D01*
X117272258Y-107753298D01*
X117271667Y-107753736D01*
X117271035Y-107754114D01*
X117270370Y-107754429D01*
X117269677Y-107754677D01*
X117268963Y-107754856D01*
X117268235Y-107754964D01*
X117267500Y-107755000D01*
X116182500Y-107755000D01*
X116181765Y-107754964D01*
X116181037Y-107754856D01*
X116180323Y-107754677D01*
X116179630Y-107754429D01*
X116178965Y-107754114D01*
X116178333Y-107753736D01*
X116177742Y-107753298D01*
X116177197Y-107752803D01*
X116176702Y-107752258D01*
X116176264Y-107751667D01*
X116175886Y-107751035D01*
X116175571Y-107750370D01*
X116175323Y-107749677D01*
X116175144Y-107748963D01*
X116175036Y-107748235D01*
X116175000Y-107747500D01*
X116175000Y-107462500D01*
X116175036Y-107461765D01*
X116175144Y-107461037D01*
X116175323Y-107460323D01*
X116175571Y-107459630D01*
X116175886Y-107458965D01*
X116176264Y-107458333D01*
X116176702Y-107457742D01*
X116177197Y-107457197D01*
X116177742Y-107456702D01*
X116178333Y-107456264D01*
X116178965Y-107455886D01*
X116179630Y-107455571D01*
X116180323Y-107455323D01*
X116181037Y-107455144D01*
X116181765Y-107455036D01*
X116182500Y-107455000D01*
X117267500Y-107455000D01*
X117268235Y-107455036D01*
G37*
G36*
X117268235Y-106955036D02*
G01*
X117268963Y-106955144D01*
X117269677Y-106955323D01*
X117270370Y-106955571D01*
X117271035Y-106955886D01*
X117271667Y-106956264D01*
X117272258Y-106956702D01*
X117272803Y-106957197D01*
X117273298Y-106957742D01*
X117273736Y-106958333D01*
X117274114Y-106958965D01*
X117274429Y-106959630D01*
X117274677Y-106960323D01*
X117274856Y-106961037D01*
X117274964Y-106961765D01*
X117275000Y-106962500D01*
X117275000Y-107247500D01*
X117274964Y-107248235D01*
X117274856Y-107248963D01*
X117274677Y-107249677D01*
X117274429Y-107250370D01*
X117274114Y-107251035D01*
X117273736Y-107251667D01*
X117273298Y-107252258D01*
X117272803Y-107252803D01*
X117272258Y-107253298D01*
X117271667Y-107253736D01*
X117271035Y-107254114D01*
X117270370Y-107254429D01*
X117269677Y-107254677D01*
X117268963Y-107254856D01*
X117268235Y-107254964D01*
X117267500Y-107255000D01*
X116182500Y-107255000D01*
X116181765Y-107254964D01*
X116181037Y-107254856D01*
X116180323Y-107254677D01*
X116179630Y-107254429D01*
X116178965Y-107254114D01*
X116178333Y-107253736D01*
X116177742Y-107253298D01*
X116177197Y-107252803D01*
X116176702Y-107252258D01*
X116176264Y-107251667D01*
X116175886Y-107251035D01*
X116175571Y-107250370D01*
X116175323Y-107249677D01*
X116175144Y-107248963D01*
X116175036Y-107248235D01*
X116175000Y-107247500D01*
X116175000Y-106962500D01*
X116175036Y-106961765D01*
X116175144Y-106961037D01*
X116175323Y-106960323D01*
X116175571Y-106959630D01*
X116175886Y-106958965D01*
X116176264Y-106958333D01*
X116176702Y-106957742D01*
X116177197Y-106957197D01*
X116177742Y-106956702D01*
X116178333Y-106956264D01*
X116178965Y-106955886D01*
X116179630Y-106955571D01*
X116180323Y-106955323D01*
X116181037Y-106955144D01*
X116181765Y-106955036D01*
X116182500Y-106955000D01*
X117267500Y-106955000D01*
X117268235Y-106955036D01*
G37*
G36*
X117268235Y-106455036D02*
G01*
X117268963Y-106455144D01*
X117269677Y-106455323D01*
X117270370Y-106455571D01*
X117271035Y-106455886D01*
X117271667Y-106456264D01*
X117272258Y-106456702D01*
X117272803Y-106457197D01*
X117273298Y-106457742D01*
X117273736Y-106458333D01*
X117274114Y-106458965D01*
X117274429Y-106459630D01*
X117274677Y-106460323D01*
X117274856Y-106461037D01*
X117274964Y-106461765D01*
X117275000Y-106462500D01*
X117275000Y-106747500D01*
X117274964Y-106748235D01*
X117274856Y-106748963D01*
X117274677Y-106749677D01*
X117274429Y-106750370D01*
X117274114Y-106751035D01*
X117273736Y-106751667D01*
X117273298Y-106752258D01*
X117272803Y-106752803D01*
X117272258Y-106753298D01*
X117271667Y-106753736D01*
X117271035Y-106754114D01*
X117270370Y-106754429D01*
X117269677Y-106754677D01*
X117268963Y-106754856D01*
X117268235Y-106754964D01*
X117267500Y-106755000D01*
X116182500Y-106755000D01*
X116181765Y-106754964D01*
X116181037Y-106754856D01*
X116180323Y-106754677D01*
X116179630Y-106754429D01*
X116178965Y-106754114D01*
X116178333Y-106753736D01*
X116177742Y-106753298D01*
X116177197Y-106752803D01*
X116176702Y-106752258D01*
X116176264Y-106751667D01*
X116175886Y-106751035D01*
X116175571Y-106750370D01*
X116175323Y-106749677D01*
X116175144Y-106748963D01*
X116175036Y-106748235D01*
X116175000Y-106747500D01*
X116175000Y-106462500D01*
X116175036Y-106461765D01*
X116175144Y-106461037D01*
X116175323Y-106460323D01*
X116175571Y-106459630D01*
X116175886Y-106458965D01*
X116176264Y-106458333D01*
X116176702Y-106457742D01*
X116177197Y-106457197D01*
X116177742Y-106456702D01*
X116178333Y-106456264D01*
X116178965Y-106455886D01*
X116179630Y-106455571D01*
X116180323Y-106455323D01*
X116181037Y-106455144D01*
X116181765Y-106455036D01*
X116182500Y-106455000D01*
X117267500Y-106455000D01*
X117268235Y-106455036D01*
G37*
G36*
X117268235Y-105955036D02*
G01*
X117268963Y-105955144D01*
X117269677Y-105955323D01*
X117270370Y-105955571D01*
X117271035Y-105955886D01*
X117271667Y-105956264D01*
X117272258Y-105956702D01*
X117272803Y-105957197D01*
X117273298Y-105957742D01*
X117273736Y-105958333D01*
X117274114Y-105958965D01*
X117274429Y-105959630D01*
X117274677Y-105960323D01*
X117274856Y-105961037D01*
X117274964Y-105961765D01*
X117275000Y-105962500D01*
X117275000Y-106247500D01*
X117274964Y-106248235D01*
X117274856Y-106248963D01*
X117274677Y-106249677D01*
X117274429Y-106250370D01*
X117274114Y-106251035D01*
X117273736Y-106251667D01*
X117273298Y-106252258D01*
X117272803Y-106252803D01*
X117272258Y-106253298D01*
X117271667Y-106253736D01*
X117271035Y-106254114D01*
X117270370Y-106254429D01*
X117269677Y-106254677D01*
X117268963Y-106254856D01*
X117268235Y-106254964D01*
X117267500Y-106255000D01*
X116182500Y-106255000D01*
X116181765Y-106254964D01*
X116181037Y-106254856D01*
X116180323Y-106254677D01*
X116179630Y-106254429D01*
X116178965Y-106254114D01*
X116178333Y-106253736D01*
X116177742Y-106253298D01*
X116177197Y-106252803D01*
X116176702Y-106252258D01*
X116176264Y-106251667D01*
X116175886Y-106251035D01*
X116175571Y-106250370D01*
X116175323Y-106249677D01*
X116175144Y-106248963D01*
X116175036Y-106248235D01*
X116175000Y-106247500D01*
X116175000Y-105962500D01*
X116175036Y-105961765D01*
X116175144Y-105961037D01*
X116175323Y-105960323D01*
X116175571Y-105959630D01*
X116175886Y-105958965D01*
X116176264Y-105958333D01*
X116176702Y-105957742D01*
X116177197Y-105957197D01*
X116177742Y-105956702D01*
X116178333Y-105956264D01*
X116178965Y-105955886D01*
X116179630Y-105955571D01*
X116180323Y-105955323D01*
X116181037Y-105955144D01*
X116181765Y-105955036D01*
X116182500Y-105955000D01*
X117267500Y-105955000D01*
X117268235Y-105955036D01*
G37*
G36*
X117268235Y-103955036D02*
G01*
X117268963Y-103955144D01*
X117269677Y-103955323D01*
X117270370Y-103955571D01*
X117271035Y-103955886D01*
X117271667Y-103956264D01*
X117272258Y-103956702D01*
X117272803Y-103957197D01*
X117273298Y-103957742D01*
X117273736Y-103958333D01*
X117274114Y-103958965D01*
X117274429Y-103959630D01*
X117274677Y-103960323D01*
X117274856Y-103961037D01*
X117274964Y-103961765D01*
X117275000Y-103962500D01*
X117275000Y-104247500D01*
X117274964Y-104248235D01*
X117274856Y-104248963D01*
X117274677Y-104249677D01*
X117274429Y-104250370D01*
X117274114Y-104251035D01*
X117273736Y-104251667D01*
X117273298Y-104252258D01*
X117272803Y-104252803D01*
X117272258Y-104253298D01*
X117271667Y-104253736D01*
X117271035Y-104254114D01*
X117270370Y-104254429D01*
X117269677Y-104254677D01*
X117268963Y-104254856D01*
X117268235Y-104254964D01*
X117267500Y-104255000D01*
X116182500Y-104255000D01*
X116181765Y-104254964D01*
X116181037Y-104254856D01*
X116180323Y-104254677D01*
X116179630Y-104254429D01*
X116178965Y-104254114D01*
X116178333Y-104253736D01*
X116177742Y-104253298D01*
X116177197Y-104252803D01*
X116176702Y-104252258D01*
X116176264Y-104251667D01*
X116175886Y-104251035D01*
X116175571Y-104250370D01*
X116175323Y-104249677D01*
X116175144Y-104248963D01*
X116175036Y-104248235D01*
X116175000Y-104247500D01*
X116175000Y-103962500D01*
X116175036Y-103961765D01*
X116175144Y-103961037D01*
X116175323Y-103960323D01*
X116175571Y-103959630D01*
X116175886Y-103958965D01*
X116176264Y-103958333D01*
X116176702Y-103957742D01*
X116177197Y-103957197D01*
X116177742Y-103956702D01*
X116178333Y-103956264D01*
X116178965Y-103955886D01*
X116179630Y-103955571D01*
X116180323Y-103955323D01*
X116181037Y-103955144D01*
X116181765Y-103955036D01*
X116182500Y-103955000D01*
X117267500Y-103955000D01*
X117268235Y-103955036D01*
G37*
G36*
X117268235Y-104455036D02*
G01*
X117268963Y-104455144D01*
X117269677Y-104455323D01*
X117270370Y-104455571D01*
X117271035Y-104455886D01*
X117271667Y-104456264D01*
X117272258Y-104456702D01*
X117272803Y-104457197D01*
X117273298Y-104457742D01*
X117273736Y-104458333D01*
X117274114Y-104458965D01*
X117274429Y-104459630D01*
X117274677Y-104460323D01*
X117274856Y-104461037D01*
X117274964Y-104461765D01*
X117275000Y-104462500D01*
X117275000Y-104747500D01*
X117274964Y-104748235D01*
X117274856Y-104748963D01*
X117274677Y-104749677D01*
X117274429Y-104750370D01*
X117274114Y-104751035D01*
X117273736Y-104751667D01*
X117273298Y-104752258D01*
X117272803Y-104752803D01*
X117272258Y-104753298D01*
X117271667Y-104753736D01*
X117271035Y-104754114D01*
X117270370Y-104754429D01*
X117269677Y-104754677D01*
X117268963Y-104754856D01*
X117268235Y-104754964D01*
X117267500Y-104755000D01*
X116182500Y-104755000D01*
X116181765Y-104754964D01*
X116181037Y-104754856D01*
X116180323Y-104754677D01*
X116179630Y-104754429D01*
X116178965Y-104754114D01*
X116178333Y-104753736D01*
X116177742Y-104753298D01*
X116177197Y-104752803D01*
X116176702Y-104752258D01*
X116176264Y-104751667D01*
X116175886Y-104751035D01*
X116175571Y-104750370D01*
X116175323Y-104749677D01*
X116175144Y-104748963D01*
X116175036Y-104748235D01*
X116175000Y-104747500D01*
X116175000Y-104462500D01*
X116175036Y-104461765D01*
X116175144Y-104461037D01*
X116175323Y-104460323D01*
X116175571Y-104459630D01*
X116175886Y-104458965D01*
X116176264Y-104458333D01*
X116176702Y-104457742D01*
X116177197Y-104457197D01*
X116177742Y-104456702D01*
X116178333Y-104456264D01*
X116178965Y-104455886D01*
X116179630Y-104455571D01*
X116180323Y-104455323D01*
X116181037Y-104455144D01*
X116181765Y-104455036D01*
X116182500Y-104455000D01*
X117267500Y-104455000D01*
X117268235Y-104455036D01*
G37*
G36*
X121168235Y-107455036D02*
G01*
X121168963Y-107455144D01*
X121169677Y-107455323D01*
X121170370Y-107455571D01*
X121171035Y-107455886D01*
X121171667Y-107456264D01*
X121172258Y-107456702D01*
X121172803Y-107457197D01*
X121173298Y-107457742D01*
X121173736Y-107458333D01*
X121174114Y-107458965D01*
X121174429Y-107459630D01*
X121174677Y-107460323D01*
X121174856Y-107461037D01*
X121174964Y-107461765D01*
X121175000Y-107462500D01*
X121175000Y-107747500D01*
X121174964Y-107748235D01*
X121174856Y-107748963D01*
X121174677Y-107749677D01*
X121174429Y-107750370D01*
X121174114Y-107751035D01*
X121173736Y-107751667D01*
X121173298Y-107752258D01*
X121172803Y-107752803D01*
X121172258Y-107753298D01*
X121171667Y-107753736D01*
X121171035Y-107754114D01*
X121170370Y-107754429D01*
X121169677Y-107754677D01*
X121168963Y-107754856D01*
X121168235Y-107754964D01*
X121167500Y-107755000D01*
X120082500Y-107755000D01*
X120081765Y-107754964D01*
X120081037Y-107754856D01*
X120080323Y-107754677D01*
X120079630Y-107754429D01*
X120078965Y-107754114D01*
X120078333Y-107753736D01*
X120077742Y-107753298D01*
X120077197Y-107752803D01*
X120076702Y-107752258D01*
X120076264Y-107751667D01*
X120075886Y-107751035D01*
X120075571Y-107750370D01*
X120075323Y-107749677D01*
X120075144Y-107748963D01*
X120075036Y-107748235D01*
X120075000Y-107747500D01*
X120075000Y-107462500D01*
X120075036Y-107461765D01*
X120075144Y-107461037D01*
X120075323Y-107460323D01*
X120075571Y-107459630D01*
X120075886Y-107458965D01*
X120076264Y-107458333D01*
X120076702Y-107457742D01*
X120077197Y-107457197D01*
X120077742Y-107456702D01*
X120078333Y-107456264D01*
X120078965Y-107455886D01*
X120079630Y-107455571D01*
X120080323Y-107455323D01*
X120081037Y-107455144D01*
X120081765Y-107455036D01*
X120082500Y-107455000D01*
X121167500Y-107455000D01*
X121168235Y-107455036D01*
G37*
G36*
X121168235Y-104455036D02*
G01*
X121168963Y-104455144D01*
X121169677Y-104455323D01*
X121170370Y-104455571D01*
X121171035Y-104455886D01*
X121171667Y-104456264D01*
X121172258Y-104456702D01*
X121172803Y-104457197D01*
X121173298Y-104457742D01*
X121173736Y-104458333D01*
X121174114Y-104458965D01*
X121174429Y-104459630D01*
X121174677Y-104460323D01*
X121174856Y-104461037D01*
X121174964Y-104461765D01*
X121175000Y-104462500D01*
X121175000Y-104747500D01*
X121174964Y-104748235D01*
X121174856Y-104748963D01*
X121174677Y-104749677D01*
X121174429Y-104750370D01*
X121174114Y-104751035D01*
X121173736Y-104751667D01*
X121173298Y-104752258D01*
X121172803Y-104752803D01*
X121172258Y-104753298D01*
X121171667Y-104753736D01*
X121171035Y-104754114D01*
X121170370Y-104754429D01*
X121169677Y-104754677D01*
X121168963Y-104754856D01*
X121168235Y-104754964D01*
X121167500Y-104755000D01*
X120082500Y-104755000D01*
X120081765Y-104754964D01*
X120081037Y-104754856D01*
X120080323Y-104754677D01*
X120079630Y-104754429D01*
X120078965Y-104754114D01*
X120078333Y-104753736D01*
X120077742Y-104753298D01*
X120077197Y-104752803D01*
X120076702Y-104752258D01*
X120076264Y-104751667D01*
X120075886Y-104751035D01*
X120075571Y-104750370D01*
X120075323Y-104749677D01*
X120075144Y-104748963D01*
X120075036Y-104748235D01*
X120075000Y-104747500D01*
X120075000Y-104462500D01*
X120075036Y-104461765D01*
X120075144Y-104461037D01*
X120075323Y-104460323D01*
X120075571Y-104459630D01*
X120075886Y-104458965D01*
X120076264Y-104458333D01*
X120076702Y-104457742D01*
X120077197Y-104457197D01*
X120077742Y-104456702D01*
X120078333Y-104456264D01*
X120078965Y-104455886D01*
X120079630Y-104455571D01*
X120080323Y-104455323D01*
X120081037Y-104455144D01*
X120081765Y-104455036D01*
X120082500Y-104455000D01*
X121167500Y-104455000D01*
X121168235Y-104455036D01*
G37*
G36*
X121168235Y-105455036D02*
G01*
X121168963Y-105455144D01*
X121169677Y-105455323D01*
X121170370Y-105455571D01*
X121171035Y-105455886D01*
X121171667Y-105456264D01*
X121172258Y-105456702D01*
X121172803Y-105457197D01*
X121173298Y-105457742D01*
X121173736Y-105458333D01*
X121174114Y-105458965D01*
X121174429Y-105459630D01*
X121174677Y-105460323D01*
X121174856Y-105461037D01*
X121174964Y-105461765D01*
X121175000Y-105462500D01*
X121175000Y-105747500D01*
X121174964Y-105748235D01*
X121174856Y-105748963D01*
X121174677Y-105749677D01*
X121174429Y-105750370D01*
X121174114Y-105751035D01*
X121173736Y-105751667D01*
X121173298Y-105752258D01*
X121172803Y-105752803D01*
X121172258Y-105753298D01*
X121171667Y-105753736D01*
X121171035Y-105754114D01*
X121170370Y-105754429D01*
X121169677Y-105754677D01*
X121168963Y-105754856D01*
X121168235Y-105754964D01*
X121167500Y-105755000D01*
X120082500Y-105755000D01*
X120081765Y-105754964D01*
X120081037Y-105754856D01*
X120080323Y-105754677D01*
X120079630Y-105754429D01*
X120078965Y-105754114D01*
X120078333Y-105753736D01*
X120077742Y-105753298D01*
X120077197Y-105752803D01*
X120076702Y-105752258D01*
X120076264Y-105751667D01*
X120075886Y-105751035D01*
X120075571Y-105750370D01*
X120075323Y-105749677D01*
X120075144Y-105748963D01*
X120075036Y-105748235D01*
X120075000Y-105747500D01*
X120075000Y-105462500D01*
X120075036Y-105461765D01*
X120075144Y-105461037D01*
X120075323Y-105460323D01*
X120075571Y-105459630D01*
X120075886Y-105458965D01*
X120076264Y-105458333D01*
X120076702Y-105457742D01*
X120077197Y-105457197D01*
X120077742Y-105456702D01*
X120078333Y-105456264D01*
X120078965Y-105455886D01*
X120079630Y-105455571D01*
X120080323Y-105455323D01*
X120081037Y-105455144D01*
X120081765Y-105455036D01*
X120082500Y-105455000D01*
X121167500Y-105455000D01*
X121168235Y-105455036D01*
G37*
G36*
X121168235Y-106455036D02*
G01*
X121168963Y-106455144D01*
X121169677Y-106455323D01*
X121170370Y-106455571D01*
X121171035Y-106455886D01*
X121171667Y-106456264D01*
X121172258Y-106456702D01*
X121172803Y-106457197D01*
X121173298Y-106457742D01*
X121173736Y-106458333D01*
X121174114Y-106458965D01*
X121174429Y-106459630D01*
X121174677Y-106460323D01*
X121174856Y-106461037D01*
X121174964Y-106461765D01*
X121175000Y-106462500D01*
X121175000Y-106747500D01*
X121174964Y-106748235D01*
X121174856Y-106748963D01*
X121174677Y-106749677D01*
X121174429Y-106750370D01*
X121174114Y-106751035D01*
X121173736Y-106751667D01*
X121173298Y-106752258D01*
X121172803Y-106752803D01*
X121172258Y-106753298D01*
X121171667Y-106753736D01*
X121171035Y-106754114D01*
X121170370Y-106754429D01*
X121169677Y-106754677D01*
X121168963Y-106754856D01*
X121168235Y-106754964D01*
X121167500Y-106755000D01*
X120082500Y-106755000D01*
X120081765Y-106754964D01*
X120081037Y-106754856D01*
X120080323Y-106754677D01*
X120079630Y-106754429D01*
X120078965Y-106754114D01*
X120078333Y-106753736D01*
X120077742Y-106753298D01*
X120077197Y-106752803D01*
X120076702Y-106752258D01*
X120076264Y-106751667D01*
X120075886Y-106751035D01*
X120075571Y-106750370D01*
X120075323Y-106749677D01*
X120075144Y-106748963D01*
X120075036Y-106748235D01*
X120075000Y-106747500D01*
X120075000Y-106462500D01*
X120075036Y-106461765D01*
X120075144Y-106461037D01*
X120075323Y-106460323D01*
X120075571Y-106459630D01*
X120075886Y-106458965D01*
X120076264Y-106458333D01*
X120076702Y-106457742D01*
X120077197Y-106457197D01*
X120077742Y-106456702D01*
X120078333Y-106456264D01*
X120078965Y-106455886D01*
X120079630Y-106455571D01*
X120080323Y-106455323D01*
X120081037Y-106455144D01*
X120081765Y-106455036D01*
X120082500Y-106455000D01*
X121167500Y-106455000D01*
X121168235Y-106455036D01*
G37*
G36*
X117268235Y-105455036D02*
G01*
X117268963Y-105455144D01*
X117269677Y-105455323D01*
X117270370Y-105455571D01*
X117271035Y-105455886D01*
X117271667Y-105456264D01*
X117272258Y-105456702D01*
X117272803Y-105457197D01*
X117273298Y-105457742D01*
X117273736Y-105458333D01*
X117274114Y-105458965D01*
X117274429Y-105459630D01*
X117274677Y-105460323D01*
X117274856Y-105461037D01*
X117274964Y-105461765D01*
X117275000Y-105462500D01*
X117275000Y-105747500D01*
X117274964Y-105748235D01*
X117274856Y-105748963D01*
X117274677Y-105749677D01*
X117274429Y-105750370D01*
X117274114Y-105751035D01*
X117273736Y-105751667D01*
X117273298Y-105752258D01*
X117272803Y-105752803D01*
X117272258Y-105753298D01*
X117271667Y-105753736D01*
X117271035Y-105754114D01*
X117270370Y-105754429D01*
X117269677Y-105754677D01*
X117268963Y-105754856D01*
X117268235Y-105754964D01*
X117267500Y-105755000D01*
X116182500Y-105755000D01*
X116181765Y-105754964D01*
X116181037Y-105754856D01*
X116180323Y-105754677D01*
X116179630Y-105754429D01*
X116178965Y-105754114D01*
X116178333Y-105753736D01*
X116177742Y-105753298D01*
X116177197Y-105752803D01*
X116176702Y-105752258D01*
X116176264Y-105751667D01*
X116175886Y-105751035D01*
X116175571Y-105750370D01*
X116175323Y-105749677D01*
X116175144Y-105748963D01*
X116175036Y-105748235D01*
X116175000Y-105747500D01*
X116175000Y-105462500D01*
X116175036Y-105461765D01*
X116175144Y-105461037D01*
X116175323Y-105460323D01*
X116175571Y-105459630D01*
X116175886Y-105458965D01*
X116176264Y-105458333D01*
X116176702Y-105457742D01*
X116177197Y-105457197D01*
X116177742Y-105456702D01*
X116178333Y-105456264D01*
X116178965Y-105455886D01*
X116179630Y-105455571D01*
X116180323Y-105455323D01*
X116181037Y-105455144D01*
X116181765Y-105455036D01*
X116182500Y-105455000D01*
X117267500Y-105455000D01*
X117268235Y-105455036D01*
G37*
G36*
X117265980Y-103355048D02*
G01*
X117266951Y-103355192D01*
X117267903Y-103355431D01*
X117268827Y-103355761D01*
X117269714Y-103356181D01*
X117270556Y-103356685D01*
X117271344Y-103357270D01*
X117272071Y-103357929D01*
X117272730Y-103358656D01*
X117273315Y-103359444D01*
X117273819Y-103360286D01*
X117274239Y-103361173D01*
X117274569Y-103362097D01*
X117274808Y-103363049D01*
X117274952Y-103364020D01*
X117275000Y-103365000D01*
X117275000Y-103745000D01*
X117274952Y-103745980D01*
X117274808Y-103746951D01*
X117274569Y-103747903D01*
X117274239Y-103748827D01*
X117273819Y-103749714D01*
X117273315Y-103750556D01*
X117272730Y-103751344D01*
X117272071Y-103752071D01*
X117271344Y-103752730D01*
X117270556Y-103753315D01*
X117269714Y-103753819D01*
X117268827Y-103754239D01*
X117267903Y-103754569D01*
X117266951Y-103754808D01*
X117265980Y-103754952D01*
X117265000Y-103755000D01*
X116185000Y-103755000D01*
X116184020Y-103754952D01*
X116183049Y-103754808D01*
X116182097Y-103754569D01*
X116181173Y-103754239D01*
X116180286Y-103753819D01*
X116179444Y-103753315D01*
X116178656Y-103752730D01*
X116177929Y-103752071D01*
X116177270Y-103751344D01*
X116176685Y-103750556D01*
X116176181Y-103749714D01*
X116175761Y-103748827D01*
X116175431Y-103747903D01*
X116175192Y-103746951D01*
X116175048Y-103745980D01*
X116175000Y-103745000D01*
X116175000Y-103365000D01*
X116175048Y-103364020D01*
X116175192Y-103363049D01*
X116175431Y-103362097D01*
X116175761Y-103361173D01*
X116176181Y-103360286D01*
X116176685Y-103359444D01*
X116177270Y-103358656D01*
X116177929Y-103357929D01*
X116178656Y-103357270D01*
X116179444Y-103356685D01*
X116180286Y-103356181D01*
X116181173Y-103355761D01*
X116182097Y-103355431D01*
X116183049Y-103355192D01*
X116184020Y-103355048D01*
X116185000Y-103355000D01*
X117265000Y-103355000D01*
X117265980Y-103355048D01*
G37*
G36*
X121165980Y-107955048D02*
G01*
X121166951Y-107955192D01*
X121167903Y-107955431D01*
X121168827Y-107955761D01*
X121169714Y-107956181D01*
X121170556Y-107956685D01*
X121171344Y-107957270D01*
X121172071Y-107957929D01*
X121172730Y-107958656D01*
X121173315Y-107959444D01*
X121173819Y-107960286D01*
X121174239Y-107961173D01*
X121174569Y-107962097D01*
X121174808Y-107963049D01*
X121174952Y-107964020D01*
X121175000Y-107965000D01*
X121175000Y-108345000D01*
X121174952Y-108345980D01*
X121174808Y-108346951D01*
X121174569Y-108347903D01*
X121174239Y-108348827D01*
X121173819Y-108349714D01*
X121173315Y-108350556D01*
X121172730Y-108351344D01*
X121172071Y-108352071D01*
X121171344Y-108352730D01*
X121170556Y-108353315D01*
X121169714Y-108353819D01*
X121168827Y-108354239D01*
X121167903Y-108354569D01*
X121166951Y-108354808D01*
X121165980Y-108354952D01*
X121165000Y-108355000D01*
X120085000Y-108355000D01*
X120084020Y-108354952D01*
X120083049Y-108354808D01*
X120082097Y-108354569D01*
X120081173Y-108354239D01*
X120080286Y-108353819D01*
X120079444Y-108353315D01*
X120078656Y-108352730D01*
X120077929Y-108352071D01*
X120077270Y-108351344D01*
X120076685Y-108350556D01*
X120076181Y-108349714D01*
X120075761Y-108348827D01*
X120075431Y-108347903D01*
X120075192Y-108346951D01*
X120075048Y-108345980D01*
X120075000Y-108345000D01*
X120075000Y-107965000D01*
X120075048Y-107964020D01*
X120075192Y-107963049D01*
X120075431Y-107962097D01*
X120075761Y-107961173D01*
X120076181Y-107960286D01*
X120076685Y-107959444D01*
X120077270Y-107958656D01*
X120077929Y-107957929D01*
X120078656Y-107957270D01*
X120079444Y-107956685D01*
X120080286Y-107956181D01*
X120081173Y-107955761D01*
X120082097Y-107955431D01*
X120083049Y-107955192D01*
X120084020Y-107955048D01*
X120085000Y-107955000D01*
X121165000Y-107955000D01*
X121165980Y-107955048D01*
G37*
G36*
X121168235Y-104955036D02*
G01*
X121168963Y-104955144D01*
X121169677Y-104955323D01*
X121170370Y-104955571D01*
X121171035Y-104955886D01*
X121171667Y-104956264D01*
X121172258Y-104956702D01*
X121172803Y-104957197D01*
X121173298Y-104957742D01*
X121173736Y-104958333D01*
X121174114Y-104958965D01*
X121174429Y-104959630D01*
X121174677Y-104960323D01*
X121174856Y-104961037D01*
X121174964Y-104961765D01*
X121175000Y-104962500D01*
X121175000Y-105247500D01*
X121174964Y-105248235D01*
X121174856Y-105248963D01*
X121174677Y-105249677D01*
X121174429Y-105250370D01*
X121174114Y-105251035D01*
X121173736Y-105251667D01*
X121173298Y-105252258D01*
X121172803Y-105252803D01*
X121172258Y-105253298D01*
X121171667Y-105253736D01*
X121171035Y-105254114D01*
X121170370Y-105254429D01*
X121169677Y-105254677D01*
X121168963Y-105254856D01*
X121168235Y-105254964D01*
X121167500Y-105255000D01*
X120082500Y-105255000D01*
X120081765Y-105254964D01*
X120081037Y-105254856D01*
X120080323Y-105254677D01*
X120079630Y-105254429D01*
X120078965Y-105254114D01*
X120078333Y-105253736D01*
X120077742Y-105253298D01*
X120077197Y-105252803D01*
X120076702Y-105252258D01*
X120076264Y-105251667D01*
X120075886Y-105251035D01*
X120075571Y-105250370D01*
X120075323Y-105249677D01*
X120075144Y-105248963D01*
X120075036Y-105248235D01*
X120075000Y-105247500D01*
X120075000Y-104962500D01*
X120075036Y-104961765D01*
X120075144Y-104961037D01*
X120075323Y-104960323D01*
X120075571Y-104959630D01*
X120075886Y-104958965D01*
X120076264Y-104958333D01*
X120076702Y-104957742D01*
X120077197Y-104957197D01*
X120077742Y-104956702D01*
X120078333Y-104956264D01*
X120078965Y-104955886D01*
X120079630Y-104955571D01*
X120080323Y-104955323D01*
X120081037Y-104955144D01*
X120081765Y-104955036D01*
X120082500Y-104955000D01*
X121167500Y-104955000D01*
X121168235Y-104955036D01*
G37*
G36*
X117268235Y-104955036D02*
G01*
X117268963Y-104955144D01*
X117269677Y-104955323D01*
X117270370Y-104955571D01*
X117271035Y-104955886D01*
X117271667Y-104956264D01*
X117272258Y-104956702D01*
X117272803Y-104957197D01*
X117273298Y-104957742D01*
X117273736Y-104958333D01*
X117274114Y-104958965D01*
X117274429Y-104959630D01*
X117274677Y-104960323D01*
X117274856Y-104961037D01*
X117274964Y-104961765D01*
X117275000Y-104962500D01*
X117275000Y-105247500D01*
X117274964Y-105248235D01*
X117274856Y-105248963D01*
X117274677Y-105249677D01*
X117274429Y-105250370D01*
X117274114Y-105251035D01*
X117273736Y-105251667D01*
X117273298Y-105252258D01*
X117272803Y-105252803D01*
X117272258Y-105253298D01*
X117271667Y-105253736D01*
X117271035Y-105254114D01*
X117270370Y-105254429D01*
X117269677Y-105254677D01*
X117268963Y-105254856D01*
X117268235Y-105254964D01*
X117267500Y-105255000D01*
X116182500Y-105255000D01*
X116181765Y-105254964D01*
X116181037Y-105254856D01*
X116180323Y-105254677D01*
X116179630Y-105254429D01*
X116178965Y-105254114D01*
X116178333Y-105253736D01*
X116177742Y-105253298D01*
X116177197Y-105252803D01*
X116176702Y-105252258D01*
X116176264Y-105251667D01*
X116175886Y-105251035D01*
X116175571Y-105250370D01*
X116175323Y-105249677D01*
X116175144Y-105248963D01*
X116175036Y-105248235D01*
X116175000Y-105247500D01*
X116175000Y-104962500D01*
X116175036Y-104961765D01*
X116175144Y-104961037D01*
X116175323Y-104960323D01*
X116175571Y-104959630D01*
X116175886Y-104958965D01*
X116176264Y-104958333D01*
X116176702Y-104957742D01*
X116177197Y-104957197D01*
X116177742Y-104956702D01*
X116178333Y-104956264D01*
X116178965Y-104955886D01*
X116179630Y-104955571D01*
X116180323Y-104955323D01*
X116181037Y-104955144D01*
X116181765Y-104955036D01*
X116182500Y-104955000D01*
X117267500Y-104955000D01*
X117268235Y-104955036D01*
G37*
G36*
X121168235Y-106955036D02*
G01*
X121168963Y-106955144D01*
X121169677Y-106955323D01*
X121170370Y-106955571D01*
X121171035Y-106955886D01*
X121171667Y-106956264D01*
X121172258Y-106956702D01*
X121172803Y-106957197D01*
X121173298Y-106957742D01*
X121173736Y-106958333D01*
X121174114Y-106958965D01*
X121174429Y-106959630D01*
X121174677Y-106960323D01*
X121174856Y-106961037D01*
X121174964Y-106961765D01*
X121175000Y-106962500D01*
X121175000Y-107247500D01*
X121174964Y-107248235D01*
X121174856Y-107248963D01*
X121174677Y-107249677D01*
X121174429Y-107250370D01*
X121174114Y-107251035D01*
X121173736Y-107251667D01*
X121173298Y-107252258D01*
X121172803Y-107252803D01*
X121172258Y-107253298D01*
X121171667Y-107253736D01*
X121171035Y-107254114D01*
X121170370Y-107254429D01*
X121169677Y-107254677D01*
X121168963Y-107254856D01*
X121168235Y-107254964D01*
X121167500Y-107255000D01*
X120082500Y-107255000D01*
X120081765Y-107254964D01*
X120081037Y-107254856D01*
X120080323Y-107254677D01*
X120079630Y-107254429D01*
X120078965Y-107254114D01*
X120078333Y-107253736D01*
X120077742Y-107253298D01*
X120077197Y-107252803D01*
X120076702Y-107252258D01*
X120076264Y-107251667D01*
X120075886Y-107251035D01*
X120075571Y-107250370D01*
X120075323Y-107249677D01*
X120075144Y-107248963D01*
X120075036Y-107248235D01*
X120075000Y-107247500D01*
X120075000Y-106962500D01*
X120075036Y-106961765D01*
X120075144Y-106961037D01*
X120075323Y-106960323D01*
X120075571Y-106959630D01*
X120075886Y-106958965D01*
X120076264Y-106958333D01*
X120076702Y-106957742D01*
X120077197Y-106957197D01*
X120077742Y-106956702D01*
X120078333Y-106956264D01*
X120078965Y-106955886D01*
X120079630Y-106955571D01*
X120080323Y-106955323D01*
X120081037Y-106955144D01*
X120081765Y-106955036D01*
X120082500Y-106955000D01*
X121167500Y-106955000D01*
X121168235Y-106955036D01*
G37*
G36*
X121168235Y-103955036D02*
G01*
X121168963Y-103955144D01*
X121169677Y-103955323D01*
X121170370Y-103955571D01*
X121171035Y-103955886D01*
X121171667Y-103956264D01*
X121172258Y-103956702D01*
X121172803Y-103957197D01*
X121173298Y-103957742D01*
X121173736Y-103958333D01*
X121174114Y-103958965D01*
X121174429Y-103959630D01*
X121174677Y-103960323D01*
X121174856Y-103961037D01*
X121174964Y-103961765D01*
X121175000Y-103962500D01*
X121175000Y-104247500D01*
X121174964Y-104248235D01*
X121174856Y-104248963D01*
X121174677Y-104249677D01*
X121174429Y-104250370D01*
X121174114Y-104251035D01*
X121173736Y-104251667D01*
X121173298Y-104252258D01*
X121172803Y-104252803D01*
X121172258Y-104253298D01*
X121171667Y-104253736D01*
X121171035Y-104254114D01*
X121170370Y-104254429D01*
X121169677Y-104254677D01*
X121168963Y-104254856D01*
X121168235Y-104254964D01*
X121167500Y-104255000D01*
X120082500Y-104255000D01*
X120081765Y-104254964D01*
X120081037Y-104254856D01*
X120080323Y-104254677D01*
X120079630Y-104254429D01*
X120078965Y-104254114D01*
X120078333Y-104253736D01*
X120077742Y-104253298D01*
X120077197Y-104252803D01*
X120076702Y-104252258D01*
X120076264Y-104251667D01*
X120075886Y-104251035D01*
X120075571Y-104250370D01*
X120075323Y-104249677D01*
X120075144Y-104248963D01*
X120075036Y-104248235D01*
X120075000Y-104247500D01*
X120075000Y-103962500D01*
X120075036Y-103961765D01*
X120075144Y-103961037D01*
X120075323Y-103960323D01*
X120075571Y-103959630D01*
X120075886Y-103958965D01*
X120076264Y-103958333D01*
X120076702Y-103957742D01*
X120077197Y-103957197D01*
X120077742Y-103956702D01*
X120078333Y-103956264D01*
X120078965Y-103955886D01*
X120079630Y-103955571D01*
X120080323Y-103955323D01*
X120081037Y-103955144D01*
X120081765Y-103955036D01*
X120082500Y-103955000D01*
X121167500Y-103955000D01*
X121168235Y-103955036D01*
G37*
G36*
X121168235Y-105955036D02*
G01*
X121168963Y-105955144D01*
X121169677Y-105955323D01*
X121170370Y-105955571D01*
X121171035Y-105955886D01*
X121171667Y-105956264D01*
X121172258Y-105956702D01*
X121172803Y-105957197D01*
X121173298Y-105957742D01*
X121173736Y-105958333D01*
X121174114Y-105958965D01*
X121174429Y-105959630D01*
X121174677Y-105960323D01*
X121174856Y-105961037D01*
X121174964Y-105961765D01*
X121175000Y-105962500D01*
X121175000Y-106247500D01*
X121174964Y-106248235D01*
X121174856Y-106248963D01*
X121174677Y-106249677D01*
X121174429Y-106250370D01*
X121174114Y-106251035D01*
X121173736Y-106251667D01*
X121173298Y-106252258D01*
X121172803Y-106252803D01*
X121172258Y-106253298D01*
X121171667Y-106253736D01*
X121171035Y-106254114D01*
X121170370Y-106254429D01*
X121169677Y-106254677D01*
X121168963Y-106254856D01*
X121168235Y-106254964D01*
X121167500Y-106255000D01*
X120082500Y-106255000D01*
X120081765Y-106254964D01*
X120081037Y-106254856D01*
X120080323Y-106254677D01*
X120079630Y-106254429D01*
X120078965Y-106254114D01*
X120078333Y-106253736D01*
X120077742Y-106253298D01*
X120077197Y-106252803D01*
X120076702Y-106252258D01*
X120076264Y-106251667D01*
X120075886Y-106251035D01*
X120075571Y-106250370D01*
X120075323Y-106249677D01*
X120075144Y-106248963D01*
X120075036Y-106248235D01*
X120075000Y-106247500D01*
X120075000Y-105962500D01*
X120075036Y-105961765D01*
X120075144Y-105961037D01*
X120075323Y-105960323D01*
X120075571Y-105959630D01*
X120075886Y-105958965D01*
X120076264Y-105958333D01*
X120076702Y-105957742D01*
X120077197Y-105957197D01*
X120077742Y-105956702D01*
X120078333Y-105956264D01*
X120078965Y-105955886D01*
X120079630Y-105955571D01*
X120080323Y-105955323D01*
X120081037Y-105955144D01*
X120081765Y-105955036D01*
X120082500Y-105955000D01*
X121167500Y-105955000D01*
X121168235Y-105955036D01*
G37*
G36*
X121165980Y-103355048D02*
G01*
X121166951Y-103355192D01*
X121167903Y-103355431D01*
X121168827Y-103355761D01*
X121169714Y-103356181D01*
X121170556Y-103356685D01*
X121171344Y-103357270D01*
X121172071Y-103357929D01*
X121172730Y-103358656D01*
X121173315Y-103359444D01*
X121173819Y-103360286D01*
X121174239Y-103361173D01*
X121174569Y-103362097D01*
X121174808Y-103363049D01*
X121174952Y-103364020D01*
X121175000Y-103365000D01*
X121175000Y-103745000D01*
X121174952Y-103745980D01*
X121174808Y-103746951D01*
X121174569Y-103747903D01*
X121174239Y-103748827D01*
X121173819Y-103749714D01*
X121173315Y-103750556D01*
X121172730Y-103751344D01*
X121172071Y-103752071D01*
X121171344Y-103752730D01*
X121170556Y-103753315D01*
X121169714Y-103753819D01*
X121168827Y-103754239D01*
X121167903Y-103754569D01*
X121166951Y-103754808D01*
X121165980Y-103754952D01*
X121165000Y-103755000D01*
X120085000Y-103755000D01*
X120084020Y-103754952D01*
X120083049Y-103754808D01*
X120082097Y-103754569D01*
X120081173Y-103754239D01*
X120080286Y-103753819D01*
X120079444Y-103753315D01*
X120078656Y-103752730D01*
X120077929Y-103752071D01*
X120077270Y-103751344D01*
X120076685Y-103750556D01*
X120076181Y-103749714D01*
X120075761Y-103748827D01*
X120075431Y-103747903D01*
X120075192Y-103746951D01*
X120075048Y-103745980D01*
X120075000Y-103745000D01*
X120075000Y-103365000D01*
X120075048Y-103364020D01*
X120075192Y-103363049D01*
X120075431Y-103362097D01*
X120075761Y-103361173D01*
X120076181Y-103360286D01*
X120076685Y-103359444D01*
X120077270Y-103358656D01*
X120077929Y-103357929D01*
X120078656Y-103357270D01*
X120079444Y-103356685D01*
X120080286Y-103356181D01*
X120081173Y-103355761D01*
X120082097Y-103355431D01*
X120083049Y-103355192D01*
X120084020Y-103355048D01*
X120085000Y-103355000D01*
X121165000Y-103355000D01*
X121165980Y-103355048D01*
G37*
G36*
X126209703Y-91915722D02*
G01*
X126224264Y-91917882D01*
X126238543Y-91921459D01*
X126252403Y-91926418D01*
X126265710Y-91932712D01*
X126278336Y-91940280D01*
X126290159Y-91949048D01*
X126301066Y-91958934D01*
X126310952Y-91969841D01*
X126319720Y-91981664D01*
X126327288Y-91994290D01*
X126333582Y-92007597D01*
X126338541Y-92021457D01*
X126342118Y-92035736D01*
X126344278Y-92050297D01*
X126345000Y-92065000D01*
X126345000Y-93090000D01*
X126344278Y-93104703D01*
X126342118Y-93119264D01*
X126338541Y-93133543D01*
X126333582Y-93147403D01*
X126327288Y-93160710D01*
X126319720Y-93173336D01*
X126310952Y-93185159D01*
X126301066Y-93196066D01*
X126290159Y-93205952D01*
X126278336Y-93214720D01*
X126265710Y-93222288D01*
X126252403Y-93228582D01*
X126238543Y-93233541D01*
X126224264Y-93237118D01*
X126209703Y-93239278D01*
X126195000Y-93240000D01*
X125895000Y-93240000D01*
X125880297Y-93239278D01*
X125865736Y-93237118D01*
X125851457Y-93233541D01*
X125837597Y-93228582D01*
X125824290Y-93222288D01*
X125811664Y-93214720D01*
X125799841Y-93205952D01*
X125788934Y-93196066D01*
X125779048Y-93185159D01*
X125770280Y-93173336D01*
X125762712Y-93160710D01*
X125756418Y-93147403D01*
X125751459Y-93133543D01*
X125747882Y-93119264D01*
X125745722Y-93104703D01*
X125745000Y-93090000D01*
X125745000Y-92065000D01*
X125745722Y-92050297D01*
X125747882Y-92035736D01*
X125751459Y-92021457D01*
X125756418Y-92007597D01*
X125762712Y-91994290D01*
X125770280Y-91981664D01*
X125779048Y-91969841D01*
X125788934Y-91958934D01*
X125799841Y-91949048D01*
X125811664Y-91940280D01*
X125824290Y-91932712D01*
X125837597Y-91926418D01*
X125851457Y-91921459D01*
X125865736Y-91917882D01*
X125880297Y-91915722D01*
X125895000Y-91915000D01*
X126195000Y-91915000D01*
X126209703Y-91915722D01*
G37*
G36*
X124309703Y-91915722D02*
G01*
X124324264Y-91917882D01*
X124338543Y-91921459D01*
X124352403Y-91926418D01*
X124365710Y-91932712D01*
X124378336Y-91940280D01*
X124390159Y-91949048D01*
X124401066Y-91958934D01*
X124410952Y-91969841D01*
X124419720Y-91981664D01*
X124427288Y-91994290D01*
X124433582Y-92007597D01*
X124438541Y-92021457D01*
X124442118Y-92035736D01*
X124444278Y-92050297D01*
X124445000Y-92065000D01*
X124445000Y-93090000D01*
X124444278Y-93104703D01*
X124442118Y-93119264D01*
X124438541Y-93133543D01*
X124433582Y-93147403D01*
X124427288Y-93160710D01*
X124419720Y-93173336D01*
X124410952Y-93185159D01*
X124401066Y-93196066D01*
X124390159Y-93205952D01*
X124378336Y-93214720D01*
X124365710Y-93222288D01*
X124352403Y-93228582D01*
X124338543Y-93233541D01*
X124324264Y-93237118D01*
X124309703Y-93239278D01*
X124295000Y-93240000D01*
X123995000Y-93240000D01*
X123980297Y-93239278D01*
X123965736Y-93237118D01*
X123951457Y-93233541D01*
X123937597Y-93228582D01*
X123924290Y-93222288D01*
X123911664Y-93214720D01*
X123899841Y-93205952D01*
X123888934Y-93196066D01*
X123879048Y-93185159D01*
X123870280Y-93173336D01*
X123862712Y-93160710D01*
X123856418Y-93147403D01*
X123851459Y-93133543D01*
X123847882Y-93119264D01*
X123845722Y-93104703D01*
X123845000Y-93090000D01*
X123845000Y-92065000D01*
X123845722Y-92050297D01*
X123847882Y-92035736D01*
X123851459Y-92021457D01*
X123856418Y-92007597D01*
X123862712Y-91994290D01*
X123870280Y-91981664D01*
X123879048Y-91969841D01*
X123888934Y-91958934D01*
X123899841Y-91949048D01*
X123911664Y-91940280D01*
X123924290Y-91932712D01*
X123937597Y-91926418D01*
X123951457Y-91921459D01*
X123965736Y-91917882D01*
X123980297Y-91915722D01*
X123995000Y-91915000D01*
X124295000Y-91915000D01*
X124309703Y-91915722D01*
G37*
G36*
X124309703Y-89640722D02*
G01*
X124324264Y-89642882D01*
X124338543Y-89646459D01*
X124352403Y-89651418D01*
X124365710Y-89657712D01*
X124378336Y-89665280D01*
X124390159Y-89674048D01*
X124401066Y-89683934D01*
X124410952Y-89694841D01*
X124419720Y-89706664D01*
X124427288Y-89719290D01*
X124433582Y-89732597D01*
X124438541Y-89746457D01*
X124442118Y-89760736D01*
X124444278Y-89775297D01*
X124445000Y-89790000D01*
X124445000Y-90815000D01*
X124444278Y-90829703D01*
X124442118Y-90844264D01*
X124438541Y-90858543D01*
X124433582Y-90872403D01*
X124427288Y-90885710D01*
X124419720Y-90898336D01*
X124410952Y-90910159D01*
X124401066Y-90921066D01*
X124390159Y-90930952D01*
X124378336Y-90939720D01*
X124365710Y-90947288D01*
X124352403Y-90953582D01*
X124338543Y-90958541D01*
X124324264Y-90962118D01*
X124309703Y-90964278D01*
X124295000Y-90965000D01*
X123995000Y-90965000D01*
X123980297Y-90964278D01*
X123965736Y-90962118D01*
X123951457Y-90958541D01*
X123937597Y-90953582D01*
X123924290Y-90947288D01*
X123911664Y-90939720D01*
X123899841Y-90930952D01*
X123888934Y-90921066D01*
X123879048Y-90910159D01*
X123870280Y-90898336D01*
X123862712Y-90885710D01*
X123856418Y-90872403D01*
X123851459Y-90858543D01*
X123847882Y-90844264D01*
X123845722Y-90829703D01*
X123845000Y-90815000D01*
X123845000Y-89790000D01*
X123845722Y-89775297D01*
X123847882Y-89760736D01*
X123851459Y-89746457D01*
X123856418Y-89732597D01*
X123862712Y-89719290D01*
X123870280Y-89706664D01*
X123879048Y-89694841D01*
X123888934Y-89683934D01*
X123899841Y-89674048D01*
X123911664Y-89665280D01*
X123924290Y-89657712D01*
X123937597Y-89651418D01*
X123951457Y-89646459D01*
X123965736Y-89642882D01*
X123980297Y-89640722D01*
X123995000Y-89640000D01*
X124295000Y-89640000D01*
X124309703Y-89640722D01*
G37*
G36*
X125259703Y-89640722D02*
G01*
X125274264Y-89642882D01*
X125288543Y-89646459D01*
X125302403Y-89651418D01*
X125315710Y-89657712D01*
X125328336Y-89665280D01*
X125340159Y-89674048D01*
X125351066Y-89683934D01*
X125360952Y-89694841D01*
X125369720Y-89706664D01*
X125377288Y-89719290D01*
X125383582Y-89732597D01*
X125388541Y-89746457D01*
X125392118Y-89760736D01*
X125394278Y-89775297D01*
X125395000Y-89790000D01*
X125395000Y-90815000D01*
X125394278Y-90829703D01*
X125392118Y-90844264D01*
X125388541Y-90858543D01*
X125383582Y-90872403D01*
X125377288Y-90885710D01*
X125369720Y-90898336D01*
X125360952Y-90910159D01*
X125351066Y-90921066D01*
X125340159Y-90930952D01*
X125328336Y-90939720D01*
X125315710Y-90947288D01*
X125302403Y-90953582D01*
X125288543Y-90958541D01*
X125274264Y-90962118D01*
X125259703Y-90964278D01*
X125245000Y-90965000D01*
X124945000Y-90965000D01*
X124930297Y-90964278D01*
X124915736Y-90962118D01*
X124901457Y-90958541D01*
X124887597Y-90953582D01*
X124874290Y-90947288D01*
X124861664Y-90939720D01*
X124849841Y-90930952D01*
X124838934Y-90921066D01*
X124829048Y-90910159D01*
X124820280Y-90898336D01*
X124812712Y-90885710D01*
X124806418Y-90872403D01*
X124801459Y-90858543D01*
X124797882Y-90844264D01*
X124795722Y-90829703D01*
X124795000Y-90815000D01*
X124795000Y-89790000D01*
X124795722Y-89775297D01*
X124797882Y-89760736D01*
X124801459Y-89746457D01*
X124806418Y-89732597D01*
X124812712Y-89719290D01*
X124820280Y-89706664D01*
X124829048Y-89694841D01*
X124838934Y-89683934D01*
X124849841Y-89674048D01*
X124861664Y-89665280D01*
X124874290Y-89657712D01*
X124887597Y-89651418D01*
X124901457Y-89646459D01*
X124915736Y-89642882D01*
X124930297Y-89640722D01*
X124945000Y-89640000D01*
X125245000Y-89640000D01*
X125259703Y-89640722D01*
G37*
G36*
X126209703Y-89640722D02*
G01*
X126224264Y-89642882D01*
X126238543Y-89646459D01*
X126252403Y-89651418D01*
X126265710Y-89657712D01*
X126278336Y-89665280D01*
X126290159Y-89674048D01*
X126301066Y-89683934D01*
X126310952Y-89694841D01*
X126319720Y-89706664D01*
X126327288Y-89719290D01*
X126333582Y-89732597D01*
X126338541Y-89746457D01*
X126342118Y-89760736D01*
X126344278Y-89775297D01*
X126345000Y-89790000D01*
X126345000Y-90815000D01*
X126344278Y-90829703D01*
X126342118Y-90844264D01*
X126338541Y-90858543D01*
X126333582Y-90872403D01*
X126327288Y-90885710D01*
X126319720Y-90898336D01*
X126310952Y-90910159D01*
X126301066Y-90921066D01*
X126290159Y-90930952D01*
X126278336Y-90939720D01*
X126265710Y-90947288D01*
X126252403Y-90953582D01*
X126238543Y-90958541D01*
X126224264Y-90962118D01*
X126209703Y-90964278D01*
X126195000Y-90965000D01*
X125895000Y-90965000D01*
X125880297Y-90964278D01*
X125865736Y-90962118D01*
X125851457Y-90958541D01*
X125837597Y-90953582D01*
X125824290Y-90947288D01*
X125811664Y-90939720D01*
X125799841Y-90930952D01*
X125788934Y-90921066D01*
X125779048Y-90910159D01*
X125770280Y-90898336D01*
X125762712Y-90885710D01*
X125756418Y-90872403D01*
X125751459Y-90858543D01*
X125747882Y-90844264D01*
X125745722Y-90829703D01*
X125745000Y-90815000D01*
X125745000Y-89790000D01*
X125745722Y-89775297D01*
X125747882Y-89760736D01*
X125751459Y-89746457D01*
X125756418Y-89732597D01*
X125762712Y-89719290D01*
X125770280Y-89706664D01*
X125779048Y-89694841D01*
X125788934Y-89683934D01*
X125799841Y-89674048D01*
X125811664Y-89665280D01*
X125824290Y-89657712D01*
X125837597Y-89651418D01*
X125851457Y-89646459D01*
X125865736Y-89642882D01*
X125880297Y-89640722D01*
X125895000Y-89640000D01*
X126195000Y-89640000D01*
X126209703Y-89640722D01*
G37*
G36*
X140094703Y-82570722D02*
G01*
X140109264Y-82572882D01*
X140123543Y-82576459D01*
X140137403Y-82581418D01*
X140150710Y-82587712D01*
X140163336Y-82595280D01*
X140175159Y-82604048D01*
X140186066Y-82613934D01*
X140195952Y-82624841D01*
X140204720Y-82636664D01*
X140212288Y-82649290D01*
X140218582Y-82662597D01*
X140223541Y-82676457D01*
X140227118Y-82690736D01*
X140229278Y-82705297D01*
X140230000Y-82720000D01*
X140230000Y-83020000D01*
X140229278Y-83034703D01*
X140227118Y-83049264D01*
X140223541Y-83063543D01*
X140218582Y-83077403D01*
X140212288Y-83090710D01*
X140204720Y-83103336D01*
X140195952Y-83115159D01*
X140186066Y-83126066D01*
X140175159Y-83135952D01*
X140163336Y-83144720D01*
X140150710Y-83152288D01*
X140137403Y-83158582D01*
X140123543Y-83163541D01*
X140109264Y-83167118D01*
X140094703Y-83169278D01*
X140080000Y-83170000D01*
X139055000Y-83170000D01*
X139040297Y-83169278D01*
X139025736Y-83167118D01*
X139011457Y-83163541D01*
X138997597Y-83158582D01*
X138984290Y-83152288D01*
X138971664Y-83144720D01*
X138959841Y-83135952D01*
X138948934Y-83126066D01*
X138939048Y-83115159D01*
X138930280Y-83103336D01*
X138922712Y-83090710D01*
X138916418Y-83077403D01*
X138911459Y-83063543D01*
X138907882Y-83049264D01*
X138905722Y-83034703D01*
X138905000Y-83020000D01*
X138905000Y-82720000D01*
X138905722Y-82705297D01*
X138907882Y-82690736D01*
X138911459Y-82676457D01*
X138916418Y-82662597D01*
X138922712Y-82649290D01*
X138930280Y-82636664D01*
X138939048Y-82624841D01*
X138948934Y-82613934D01*
X138959841Y-82604048D01*
X138971664Y-82595280D01*
X138984290Y-82587712D01*
X138997597Y-82581418D01*
X139011457Y-82576459D01*
X139025736Y-82572882D01*
X139040297Y-82570722D01*
X139055000Y-82570000D01*
X140080000Y-82570000D01*
X140094703Y-82570722D01*
G37*
G36*
X140094703Y-84470722D02*
G01*
X140109264Y-84472882D01*
X140123543Y-84476459D01*
X140137403Y-84481418D01*
X140150710Y-84487712D01*
X140163336Y-84495280D01*
X140175159Y-84504048D01*
X140186066Y-84513934D01*
X140195952Y-84524841D01*
X140204720Y-84536664D01*
X140212288Y-84549290D01*
X140218582Y-84562597D01*
X140223541Y-84576457D01*
X140227118Y-84590736D01*
X140229278Y-84605297D01*
X140230000Y-84620000D01*
X140230000Y-84920000D01*
X140229278Y-84934703D01*
X140227118Y-84949264D01*
X140223541Y-84963543D01*
X140218582Y-84977403D01*
X140212288Y-84990710D01*
X140204720Y-85003336D01*
X140195952Y-85015159D01*
X140186066Y-85026066D01*
X140175159Y-85035952D01*
X140163336Y-85044720D01*
X140150710Y-85052288D01*
X140137403Y-85058582D01*
X140123543Y-85063541D01*
X140109264Y-85067118D01*
X140094703Y-85069278D01*
X140080000Y-85070000D01*
X139055000Y-85070000D01*
X139040297Y-85069278D01*
X139025736Y-85067118D01*
X139011457Y-85063541D01*
X138997597Y-85058582D01*
X138984290Y-85052288D01*
X138971664Y-85044720D01*
X138959841Y-85035952D01*
X138948934Y-85026066D01*
X138939048Y-85015159D01*
X138930280Y-85003336D01*
X138922712Y-84990710D01*
X138916418Y-84977403D01*
X138911459Y-84963543D01*
X138907882Y-84949264D01*
X138905722Y-84934703D01*
X138905000Y-84920000D01*
X138905000Y-84620000D01*
X138905722Y-84605297D01*
X138907882Y-84590736D01*
X138911459Y-84576457D01*
X138916418Y-84562597D01*
X138922712Y-84549290D01*
X138930280Y-84536664D01*
X138939048Y-84524841D01*
X138948934Y-84513934D01*
X138959841Y-84504048D01*
X138971664Y-84495280D01*
X138984290Y-84487712D01*
X138997597Y-84481418D01*
X139011457Y-84476459D01*
X139025736Y-84472882D01*
X139040297Y-84470722D01*
X139055000Y-84470000D01*
X140080000Y-84470000D01*
X140094703Y-84470722D01*
G37*
G36*
X137819703Y-84470722D02*
G01*
X137834264Y-84472882D01*
X137848543Y-84476459D01*
X137862403Y-84481418D01*
X137875710Y-84487712D01*
X137888336Y-84495280D01*
X137900159Y-84504048D01*
X137911066Y-84513934D01*
X137920952Y-84524841D01*
X137929720Y-84536664D01*
X137937288Y-84549290D01*
X137943582Y-84562597D01*
X137948541Y-84576457D01*
X137952118Y-84590736D01*
X137954278Y-84605297D01*
X137955000Y-84620000D01*
X137955000Y-84920000D01*
X137954278Y-84934703D01*
X137952118Y-84949264D01*
X137948541Y-84963543D01*
X137943582Y-84977403D01*
X137937288Y-84990710D01*
X137929720Y-85003336D01*
X137920952Y-85015159D01*
X137911066Y-85026066D01*
X137900159Y-85035952D01*
X137888336Y-85044720D01*
X137875710Y-85052288D01*
X137862403Y-85058582D01*
X137848543Y-85063541D01*
X137834264Y-85067118D01*
X137819703Y-85069278D01*
X137805000Y-85070000D01*
X136780000Y-85070000D01*
X136765297Y-85069278D01*
X136750736Y-85067118D01*
X136736457Y-85063541D01*
X136722597Y-85058582D01*
X136709290Y-85052288D01*
X136696664Y-85044720D01*
X136684841Y-85035952D01*
X136673934Y-85026066D01*
X136664048Y-85015159D01*
X136655280Y-85003336D01*
X136647712Y-84990710D01*
X136641418Y-84977403D01*
X136636459Y-84963543D01*
X136632882Y-84949264D01*
X136630722Y-84934703D01*
X136630000Y-84920000D01*
X136630000Y-84620000D01*
X136630722Y-84605297D01*
X136632882Y-84590736D01*
X136636459Y-84576457D01*
X136641418Y-84562597D01*
X136647712Y-84549290D01*
X136655280Y-84536664D01*
X136664048Y-84524841D01*
X136673934Y-84513934D01*
X136684841Y-84504048D01*
X136696664Y-84495280D01*
X136709290Y-84487712D01*
X136722597Y-84481418D01*
X136736457Y-84476459D01*
X136750736Y-84472882D01*
X136765297Y-84470722D01*
X136780000Y-84470000D01*
X137805000Y-84470000D01*
X137819703Y-84470722D01*
G37*
G36*
X137819703Y-83520722D02*
G01*
X137834264Y-83522882D01*
X137848543Y-83526459D01*
X137862403Y-83531418D01*
X137875710Y-83537712D01*
X137888336Y-83545280D01*
X137900159Y-83554048D01*
X137911066Y-83563934D01*
X137920952Y-83574841D01*
X137929720Y-83586664D01*
X137937288Y-83599290D01*
X137943582Y-83612597D01*
X137948541Y-83626457D01*
X137952118Y-83640736D01*
X137954278Y-83655297D01*
X137955000Y-83670000D01*
X137955000Y-83970000D01*
X137954278Y-83984703D01*
X137952118Y-83999264D01*
X137948541Y-84013543D01*
X137943582Y-84027403D01*
X137937288Y-84040710D01*
X137929720Y-84053336D01*
X137920952Y-84065159D01*
X137911066Y-84076066D01*
X137900159Y-84085952D01*
X137888336Y-84094720D01*
X137875710Y-84102288D01*
X137862403Y-84108582D01*
X137848543Y-84113541D01*
X137834264Y-84117118D01*
X137819703Y-84119278D01*
X137805000Y-84120000D01*
X136780000Y-84120000D01*
X136765297Y-84119278D01*
X136750736Y-84117118D01*
X136736457Y-84113541D01*
X136722597Y-84108582D01*
X136709290Y-84102288D01*
X136696664Y-84094720D01*
X136684841Y-84085952D01*
X136673934Y-84076066D01*
X136664048Y-84065159D01*
X136655280Y-84053336D01*
X136647712Y-84040710D01*
X136641418Y-84027403D01*
X136636459Y-84013543D01*
X136632882Y-83999264D01*
X136630722Y-83984703D01*
X136630000Y-83970000D01*
X136630000Y-83670000D01*
X136630722Y-83655297D01*
X136632882Y-83640736D01*
X136636459Y-83626457D01*
X136641418Y-83612597D01*
X136647712Y-83599290D01*
X136655280Y-83586664D01*
X136664048Y-83574841D01*
X136673934Y-83563934D01*
X136684841Y-83554048D01*
X136696664Y-83545280D01*
X136709290Y-83537712D01*
X136722597Y-83531418D01*
X136736457Y-83526459D01*
X136750736Y-83522882D01*
X136765297Y-83520722D01*
X136780000Y-83520000D01*
X137805000Y-83520000D01*
X137819703Y-83520722D01*
G37*
G36*
X137819703Y-82570722D02*
G01*
X137834264Y-82572882D01*
X137848543Y-82576459D01*
X137862403Y-82581418D01*
X137875710Y-82587712D01*
X137888336Y-82595280D01*
X137900159Y-82604048D01*
X137911066Y-82613934D01*
X137920952Y-82624841D01*
X137929720Y-82636664D01*
X137937288Y-82649290D01*
X137943582Y-82662597D01*
X137948541Y-82676457D01*
X137952118Y-82690736D01*
X137954278Y-82705297D01*
X137955000Y-82720000D01*
X137955000Y-83020000D01*
X137954278Y-83034703D01*
X137952118Y-83049264D01*
X137948541Y-83063543D01*
X137943582Y-83077403D01*
X137937288Y-83090710D01*
X137929720Y-83103336D01*
X137920952Y-83115159D01*
X137911066Y-83126066D01*
X137900159Y-83135952D01*
X137888336Y-83144720D01*
X137875710Y-83152288D01*
X137862403Y-83158582D01*
X137848543Y-83163541D01*
X137834264Y-83167118D01*
X137819703Y-83169278D01*
X137805000Y-83170000D01*
X136780000Y-83170000D01*
X136765297Y-83169278D01*
X136750736Y-83167118D01*
X136736457Y-83163541D01*
X136722597Y-83158582D01*
X136709290Y-83152288D01*
X136696664Y-83144720D01*
X136684841Y-83135952D01*
X136673934Y-83126066D01*
X136664048Y-83115159D01*
X136655280Y-83103336D01*
X136647712Y-83090710D01*
X136641418Y-83077403D01*
X136636459Y-83063543D01*
X136632882Y-83049264D01*
X136630722Y-83034703D01*
X136630000Y-83020000D01*
X136630000Y-82720000D01*
X136630722Y-82705297D01*
X136632882Y-82690736D01*
X136636459Y-82676457D01*
X136641418Y-82662597D01*
X136647712Y-82649290D01*
X136655280Y-82636664D01*
X136664048Y-82624841D01*
X136673934Y-82613934D01*
X136684841Y-82604048D01*
X136696664Y-82595280D01*
X136709290Y-82587712D01*
X136722597Y-82581418D01*
X136736457Y-82576459D01*
X136750736Y-82572882D01*
X136765297Y-82570722D01*
X136780000Y-82570000D01*
X137805000Y-82570000D01*
X137819703Y-82570722D01*
G37*
G36*
X124754603Y-99485963D02*
G01*
X124774018Y-99488843D01*
X124793057Y-99493612D01*
X124811537Y-99500224D01*
X124829279Y-99508616D01*
X124846114Y-99518706D01*
X124861879Y-99530398D01*
X124876421Y-99543579D01*
X124889602Y-99558121D01*
X124901294Y-99573886D01*
X124911384Y-99590721D01*
X124919776Y-99608463D01*
X124926388Y-99626943D01*
X124931157Y-99645982D01*
X124934037Y-99665397D01*
X124935000Y-99685000D01*
X124935000Y-100085000D01*
X124934037Y-100104603D01*
X124931157Y-100124018D01*
X124926388Y-100143057D01*
X124919776Y-100161537D01*
X124911384Y-100179279D01*
X124901294Y-100196114D01*
X124889602Y-100211879D01*
X124876421Y-100226421D01*
X124861879Y-100239602D01*
X124846114Y-100251294D01*
X124829279Y-100261384D01*
X124811537Y-100269776D01*
X124793057Y-100276388D01*
X124774018Y-100281157D01*
X124754603Y-100284037D01*
X124735000Y-100285000D01*
X124185000Y-100285000D01*
X124165397Y-100284037D01*
X124145982Y-100281157D01*
X124126943Y-100276388D01*
X124108463Y-100269776D01*
X124090721Y-100261384D01*
X124073886Y-100251294D01*
X124058121Y-100239602D01*
X124043579Y-100226421D01*
X124030398Y-100211879D01*
X124018706Y-100196114D01*
X124008616Y-100179279D01*
X124000224Y-100161537D01*
X123993612Y-100143057D01*
X123988843Y-100124018D01*
X123985963Y-100104603D01*
X123985000Y-100085000D01*
X123985000Y-99685000D01*
X123985963Y-99665397D01*
X123988843Y-99645982D01*
X123993612Y-99626943D01*
X124000224Y-99608463D01*
X124008616Y-99590721D01*
X124018706Y-99573886D01*
X124030398Y-99558121D01*
X124043579Y-99543579D01*
X124058121Y-99530398D01*
X124073886Y-99518706D01*
X124090721Y-99508616D01*
X124108463Y-99500224D01*
X124126943Y-99493612D01*
X124145982Y-99488843D01*
X124165397Y-99485963D01*
X124185000Y-99485000D01*
X124735000Y-99485000D01*
X124754603Y-99485963D01*
G37*
G36*
X124754603Y-97835963D02*
G01*
X124774018Y-97838843D01*
X124793057Y-97843612D01*
X124811537Y-97850224D01*
X124829279Y-97858616D01*
X124846114Y-97868706D01*
X124861879Y-97880398D01*
X124876421Y-97893579D01*
X124889602Y-97908121D01*
X124901294Y-97923886D01*
X124911384Y-97940721D01*
X124919776Y-97958463D01*
X124926388Y-97976943D01*
X124931157Y-97995982D01*
X124934037Y-98015397D01*
X124935000Y-98035000D01*
X124935000Y-98435000D01*
X124934037Y-98454603D01*
X124931157Y-98474018D01*
X124926388Y-98493057D01*
X124919776Y-98511537D01*
X124911384Y-98529279D01*
X124901294Y-98546114D01*
X124889602Y-98561879D01*
X124876421Y-98576421D01*
X124861879Y-98589602D01*
X124846114Y-98601294D01*
X124829279Y-98611384D01*
X124811537Y-98619776D01*
X124793057Y-98626388D01*
X124774018Y-98631157D01*
X124754603Y-98634037D01*
X124735000Y-98635000D01*
X124185000Y-98635000D01*
X124165397Y-98634037D01*
X124145982Y-98631157D01*
X124126943Y-98626388D01*
X124108463Y-98619776D01*
X124090721Y-98611384D01*
X124073886Y-98601294D01*
X124058121Y-98589602D01*
X124043579Y-98576421D01*
X124030398Y-98561879D01*
X124018706Y-98546114D01*
X124008616Y-98529279D01*
X124000224Y-98511537D01*
X123993612Y-98493057D01*
X123988843Y-98474018D01*
X123985963Y-98454603D01*
X123985000Y-98435000D01*
X123985000Y-98035000D01*
X123985963Y-98015397D01*
X123988843Y-97995982D01*
X123993612Y-97976943D01*
X124000224Y-97958463D01*
X124008616Y-97940721D01*
X124018706Y-97923886D01*
X124030398Y-97908121D01*
X124043579Y-97893579D01*
X124058121Y-97880398D01*
X124073886Y-97868706D01*
X124090721Y-97858616D01*
X124108463Y-97850224D01*
X124126943Y-97843612D01*
X124145982Y-97838843D01*
X124165397Y-97835963D01*
X124185000Y-97835000D01*
X124735000Y-97835000D01*
X124754603Y-97835963D01*
G37*
G36*
X128044603Y-103665963D02*
G01*
X128064018Y-103668843D01*
X128083057Y-103673612D01*
X128101537Y-103680224D01*
X128119279Y-103688616D01*
X128136114Y-103698706D01*
X128151879Y-103710398D01*
X128166421Y-103723579D01*
X128179602Y-103738121D01*
X128191294Y-103753886D01*
X128201384Y-103770721D01*
X128209776Y-103788463D01*
X128216388Y-103806943D01*
X128221157Y-103825982D01*
X128224037Y-103845397D01*
X128225000Y-103865000D01*
X128225000Y-104415000D01*
X128224037Y-104434603D01*
X128221157Y-104454018D01*
X128216388Y-104473057D01*
X128209776Y-104491537D01*
X128201384Y-104509279D01*
X128191294Y-104526114D01*
X128179602Y-104541879D01*
X128166421Y-104556421D01*
X128151879Y-104569602D01*
X128136114Y-104581294D01*
X128119279Y-104591384D01*
X128101537Y-104599776D01*
X128083057Y-104606388D01*
X128064018Y-104611157D01*
X128044603Y-104614037D01*
X128025000Y-104615000D01*
X127625000Y-104615000D01*
X127605397Y-104614037D01*
X127585982Y-104611157D01*
X127566943Y-104606388D01*
X127548463Y-104599776D01*
X127530721Y-104591384D01*
X127513886Y-104581294D01*
X127498121Y-104569602D01*
X127483579Y-104556421D01*
X127470398Y-104541879D01*
X127458706Y-104526114D01*
X127448616Y-104509279D01*
X127440224Y-104491537D01*
X127433612Y-104473057D01*
X127428843Y-104454018D01*
X127425963Y-104434603D01*
X127425000Y-104415000D01*
X127425000Y-103865000D01*
X127425963Y-103845397D01*
X127428843Y-103825982D01*
X127433612Y-103806943D01*
X127440224Y-103788463D01*
X127448616Y-103770721D01*
X127458706Y-103753886D01*
X127470398Y-103738121D01*
X127483579Y-103723579D01*
X127498121Y-103710398D01*
X127513886Y-103698706D01*
X127530721Y-103688616D01*
X127548463Y-103680224D01*
X127566943Y-103673612D01*
X127585982Y-103668843D01*
X127605397Y-103665963D01*
X127625000Y-103665000D01*
X128025000Y-103665000D01*
X128044603Y-103665963D01*
G37*
G36*
X126394603Y-103665963D02*
G01*
X126414018Y-103668843D01*
X126433057Y-103673612D01*
X126451537Y-103680224D01*
X126469279Y-103688616D01*
X126486114Y-103698706D01*
X126501879Y-103710398D01*
X126516421Y-103723579D01*
X126529602Y-103738121D01*
X126541294Y-103753886D01*
X126551384Y-103770721D01*
X126559776Y-103788463D01*
X126566388Y-103806943D01*
X126571157Y-103825982D01*
X126574037Y-103845397D01*
X126575000Y-103865000D01*
X126575000Y-104415000D01*
X126574037Y-104434603D01*
X126571157Y-104454018D01*
X126566388Y-104473057D01*
X126559776Y-104491537D01*
X126551384Y-104509279D01*
X126541294Y-104526114D01*
X126529602Y-104541879D01*
X126516421Y-104556421D01*
X126501879Y-104569602D01*
X126486114Y-104581294D01*
X126469279Y-104591384D01*
X126451537Y-104599776D01*
X126433057Y-104606388D01*
X126414018Y-104611157D01*
X126394603Y-104614037D01*
X126375000Y-104615000D01*
X125975000Y-104615000D01*
X125955397Y-104614037D01*
X125935982Y-104611157D01*
X125916943Y-104606388D01*
X125898463Y-104599776D01*
X125880721Y-104591384D01*
X125863886Y-104581294D01*
X125848121Y-104569602D01*
X125833579Y-104556421D01*
X125820398Y-104541879D01*
X125808706Y-104526114D01*
X125798616Y-104509279D01*
X125790224Y-104491537D01*
X125783612Y-104473057D01*
X125778843Y-104454018D01*
X125775963Y-104434603D01*
X125775000Y-104415000D01*
X125775000Y-103865000D01*
X125775963Y-103845397D01*
X125778843Y-103825982D01*
X125783612Y-103806943D01*
X125790224Y-103788463D01*
X125798616Y-103770721D01*
X125808706Y-103753886D01*
X125820398Y-103738121D01*
X125833579Y-103723579D01*
X125848121Y-103710398D01*
X125863886Y-103698706D01*
X125880721Y-103688616D01*
X125898463Y-103680224D01*
X125916943Y-103673612D01*
X125935982Y-103668843D01*
X125955397Y-103665963D01*
X125975000Y-103665000D01*
X126375000Y-103665000D01*
X126394603Y-103665963D01*
G37*
G36*
X130839603Y-107475963D02*
G01*
X130859018Y-107478843D01*
X130878057Y-107483612D01*
X130896537Y-107490224D01*
X130914279Y-107498616D01*
X130931114Y-107508706D01*
X130946879Y-107520398D01*
X130961421Y-107533579D01*
X130974602Y-107548121D01*
X130986294Y-107563886D01*
X130996384Y-107580721D01*
X131004776Y-107598463D01*
X131011388Y-107616943D01*
X131016157Y-107635982D01*
X131019037Y-107655397D01*
X131020000Y-107675000D01*
X131020000Y-108225000D01*
X131019037Y-108244603D01*
X131016157Y-108264018D01*
X131011388Y-108283057D01*
X131004776Y-108301537D01*
X130996384Y-108319279D01*
X130986294Y-108336114D01*
X130974602Y-108351879D01*
X130961421Y-108366421D01*
X130946879Y-108379602D01*
X130931114Y-108391294D01*
X130914279Y-108401384D01*
X130896537Y-108409776D01*
X130878057Y-108416388D01*
X130859018Y-108421157D01*
X130839603Y-108424037D01*
X130820000Y-108425000D01*
X130420000Y-108425000D01*
X130400397Y-108424037D01*
X130380982Y-108421157D01*
X130361943Y-108416388D01*
X130343463Y-108409776D01*
X130325721Y-108401384D01*
X130308886Y-108391294D01*
X130293121Y-108379602D01*
X130278579Y-108366421D01*
X130265398Y-108351879D01*
X130253706Y-108336114D01*
X130243616Y-108319279D01*
X130235224Y-108301537D01*
X130228612Y-108283057D01*
X130223843Y-108264018D01*
X130220963Y-108244603D01*
X130220000Y-108225000D01*
X130220000Y-107675000D01*
X130220963Y-107655397D01*
X130223843Y-107635982D01*
X130228612Y-107616943D01*
X130235224Y-107598463D01*
X130243616Y-107580721D01*
X130253706Y-107563886D01*
X130265398Y-107548121D01*
X130278579Y-107533579D01*
X130293121Y-107520398D01*
X130308886Y-107508706D01*
X130325721Y-107498616D01*
X130343463Y-107490224D01*
X130361943Y-107483612D01*
X130380982Y-107478843D01*
X130400397Y-107475963D01*
X130420000Y-107475000D01*
X130820000Y-107475000D01*
X130839603Y-107475963D01*
G37*
G36*
X132489603Y-107475963D02*
G01*
X132509018Y-107478843D01*
X132528057Y-107483612D01*
X132546537Y-107490224D01*
X132564279Y-107498616D01*
X132581114Y-107508706D01*
X132596879Y-107520398D01*
X132611421Y-107533579D01*
X132624602Y-107548121D01*
X132636294Y-107563886D01*
X132646384Y-107580721D01*
X132654776Y-107598463D01*
X132661388Y-107616943D01*
X132666157Y-107635982D01*
X132669037Y-107655397D01*
X132670000Y-107675000D01*
X132670000Y-108225000D01*
X132669037Y-108244603D01*
X132666157Y-108264018D01*
X132661388Y-108283057D01*
X132654776Y-108301537D01*
X132646384Y-108319279D01*
X132636294Y-108336114D01*
X132624602Y-108351879D01*
X132611421Y-108366421D01*
X132596879Y-108379602D01*
X132581114Y-108391294D01*
X132564279Y-108401384D01*
X132546537Y-108409776D01*
X132528057Y-108416388D01*
X132509018Y-108421157D01*
X132489603Y-108424037D01*
X132470000Y-108425000D01*
X132070000Y-108425000D01*
X132050397Y-108424037D01*
X132030982Y-108421157D01*
X132011943Y-108416388D01*
X131993463Y-108409776D01*
X131975721Y-108401384D01*
X131958886Y-108391294D01*
X131943121Y-108379602D01*
X131928579Y-108366421D01*
X131915398Y-108351879D01*
X131903706Y-108336114D01*
X131893616Y-108319279D01*
X131885224Y-108301537D01*
X131878612Y-108283057D01*
X131873843Y-108264018D01*
X131870963Y-108244603D01*
X131870000Y-108225000D01*
X131870000Y-107675000D01*
X131870963Y-107655397D01*
X131873843Y-107635982D01*
X131878612Y-107616943D01*
X131885224Y-107598463D01*
X131893616Y-107580721D01*
X131903706Y-107563886D01*
X131915398Y-107548121D01*
X131928579Y-107533579D01*
X131943121Y-107520398D01*
X131958886Y-107508706D01*
X131975721Y-107498616D01*
X131993463Y-107490224D01*
X132011943Y-107483612D01*
X132030982Y-107478843D01*
X132050397Y-107475963D01*
X132070000Y-107475000D01*
X132470000Y-107475000D01*
X132489603Y-107475963D01*
G37*
G36*
X120944603Y-83055963D02*
G01*
X120964018Y-83058843D01*
X120983057Y-83063612D01*
X121001537Y-83070224D01*
X121019279Y-83078616D01*
X121036114Y-83088706D01*
X121051879Y-83100398D01*
X121066421Y-83113579D01*
X121079602Y-83128121D01*
X121091294Y-83143886D01*
X121101384Y-83160721D01*
X121109776Y-83178463D01*
X121116388Y-83196943D01*
X121121157Y-83215982D01*
X121124037Y-83235397D01*
X121125000Y-83255000D01*
X121125000Y-83655000D01*
X121124037Y-83674603D01*
X121121157Y-83694018D01*
X121116388Y-83713057D01*
X121109776Y-83731537D01*
X121101384Y-83749279D01*
X121091294Y-83766114D01*
X121079602Y-83781879D01*
X121066421Y-83796421D01*
X121051879Y-83809602D01*
X121036114Y-83821294D01*
X121019279Y-83831384D01*
X121001537Y-83839776D01*
X120983057Y-83846388D01*
X120964018Y-83851157D01*
X120944603Y-83854037D01*
X120925000Y-83855000D01*
X120375000Y-83855000D01*
X120355397Y-83854037D01*
X120335982Y-83851157D01*
X120316943Y-83846388D01*
X120298463Y-83839776D01*
X120280721Y-83831384D01*
X120263886Y-83821294D01*
X120248121Y-83809602D01*
X120233579Y-83796421D01*
X120220398Y-83781879D01*
X120208706Y-83766114D01*
X120198616Y-83749279D01*
X120190224Y-83731537D01*
X120183612Y-83713057D01*
X120178843Y-83694018D01*
X120175963Y-83674603D01*
X120175000Y-83655000D01*
X120175000Y-83255000D01*
X120175963Y-83235397D01*
X120178843Y-83215982D01*
X120183612Y-83196943D01*
X120190224Y-83178463D01*
X120198616Y-83160721D01*
X120208706Y-83143886D01*
X120220398Y-83128121D01*
X120233579Y-83113579D01*
X120248121Y-83100398D01*
X120263886Y-83088706D01*
X120280721Y-83078616D01*
X120298463Y-83070224D01*
X120316943Y-83063612D01*
X120335982Y-83058843D01*
X120355397Y-83055963D01*
X120375000Y-83055000D01*
X120925000Y-83055000D01*
X120944603Y-83055963D01*
G37*
G36*
X120944603Y-81405963D02*
G01*
X120964018Y-81408843D01*
X120983057Y-81413612D01*
X121001537Y-81420224D01*
X121019279Y-81428616D01*
X121036114Y-81438706D01*
X121051879Y-81450398D01*
X121066421Y-81463579D01*
X121079602Y-81478121D01*
X121091294Y-81493886D01*
X121101384Y-81510721D01*
X121109776Y-81528463D01*
X121116388Y-81546943D01*
X121121157Y-81565982D01*
X121124037Y-81585397D01*
X121125000Y-81605000D01*
X121125000Y-82005000D01*
X121124037Y-82024603D01*
X121121157Y-82044018D01*
X121116388Y-82063057D01*
X121109776Y-82081537D01*
X121101384Y-82099279D01*
X121091294Y-82116114D01*
X121079602Y-82131879D01*
X121066421Y-82146421D01*
X121051879Y-82159602D01*
X121036114Y-82171294D01*
X121019279Y-82181384D01*
X121001537Y-82189776D01*
X120983057Y-82196388D01*
X120964018Y-82201157D01*
X120944603Y-82204037D01*
X120925000Y-82205000D01*
X120375000Y-82205000D01*
X120355397Y-82204037D01*
X120335982Y-82201157D01*
X120316943Y-82196388D01*
X120298463Y-82189776D01*
X120280721Y-82181384D01*
X120263886Y-82171294D01*
X120248121Y-82159602D01*
X120233579Y-82146421D01*
X120220398Y-82131879D01*
X120208706Y-82116114D01*
X120198616Y-82099279D01*
X120190224Y-82081537D01*
X120183612Y-82063057D01*
X120178843Y-82044018D01*
X120175963Y-82024603D01*
X120175000Y-82005000D01*
X120175000Y-81605000D01*
X120175963Y-81585397D01*
X120178843Y-81565982D01*
X120183612Y-81546943D01*
X120190224Y-81528463D01*
X120198616Y-81510721D01*
X120208706Y-81493886D01*
X120220398Y-81478121D01*
X120233579Y-81463579D01*
X120248121Y-81450398D01*
X120263886Y-81438706D01*
X120280721Y-81428616D01*
X120298463Y-81420224D01*
X120316943Y-81413612D01*
X120335982Y-81408843D01*
X120355397Y-81405963D01*
X120375000Y-81405000D01*
X120925000Y-81405000D01*
X120944603Y-81405963D01*
G37*
G36*
X120944603Y-76325963D02*
G01*
X120964018Y-76328843D01*
X120983057Y-76333612D01*
X121001537Y-76340224D01*
X121019279Y-76348616D01*
X121036114Y-76358706D01*
X121051879Y-76370398D01*
X121066421Y-76383579D01*
X121079602Y-76398121D01*
X121091294Y-76413886D01*
X121101384Y-76430721D01*
X121109776Y-76448463D01*
X121116388Y-76466943D01*
X121121157Y-76485982D01*
X121124037Y-76505397D01*
X121125000Y-76525000D01*
X121125000Y-76925000D01*
X121124037Y-76944603D01*
X121121157Y-76964018D01*
X121116388Y-76983057D01*
X121109776Y-77001537D01*
X121101384Y-77019279D01*
X121091294Y-77036114D01*
X121079602Y-77051879D01*
X121066421Y-77066421D01*
X121051879Y-77079602D01*
X121036114Y-77091294D01*
X121019279Y-77101384D01*
X121001537Y-77109776D01*
X120983057Y-77116388D01*
X120964018Y-77121157D01*
X120944603Y-77124037D01*
X120925000Y-77125000D01*
X120375000Y-77125000D01*
X120355397Y-77124037D01*
X120335982Y-77121157D01*
X120316943Y-77116388D01*
X120298463Y-77109776D01*
X120280721Y-77101384D01*
X120263886Y-77091294D01*
X120248121Y-77079602D01*
X120233579Y-77066421D01*
X120220398Y-77051879D01*
X120208706Y-77036114D01*
X120198616Y-77019279D01*
X120190224Y-77001537D01*
X120183612Y-76983057D01*
X120178843Y-76964018D01*
X120175963Y-76944603D01*
X120175000Y-76925000D01*
X120175000Y-76525000D01*
X120175963Y-76505397D01*
X120178843Y-76485982D01*
X120183612Y-76466943D01*
X120190224Y-76448463D01*
X120198616Y-76430721D01*
X120208706Y-76413886D01*
X120220398Y-76398121D01*
X120233579Y-76383579D01*
X120248121Y-76370398D01*
X120263886Y-76358706D01*
X120280721Y-76348616D01*
X120298463Y-76340224D01*
X120316943Y-76333612D01*
X120335982Y-76328843D01*
X120355397Y-76325963D01*
X120375000Y-76325000D01*
X120925000Y-76325000D01*
X120944603Y-76325963D01*
G37*
G36*
X120944603Y-77975963D02*
G01*
X120964018Y-77978843D01*
X120983057Y-77983612D01*
X121001537Y-77990224D01*
X121019279Y-77998616D01*
X121036114Y-78008706D01*
X121051879Y-78020398D01*
X121066421Y-78033579D01*
X121079602Y-78048121D01*
X121091294Y-78063886D01*
X121101384Y-78080721D01*
X121109776Y-78098463D01*
X121116388Y-78116943D01*
X121121157Y-78135982D01*
X121124037Y-78155397D01*
X121125000Y-78175000D01*
X121125000Y-78575000D01*
X121124037Y-78594603D01*
X121121157Y-78614018D01*
X121116388Y-78633057D01*
X121109776Y-78651537D01*
X121101384Y-78669279D01*
X121091294Y-78686114D01*
X121079602Y-78701879D01*
X121066421Y-78716421D01*
X121051879Y-78729602D01*
X121036114Y-78741294D01*
X121019279Y-78751384D01*
X121001537Y-78759776D01*
X120983057Y-78766388D01*
X120964018Y-78771157D01*
X120944603Y-78774037D01*
X120925000Y-78775000D01*
X120375000Y-78775000D01*
X120355397Y-78774037D01*
X120335982Y-78771157D01*
X120316943Y-78766388D01*
X120298463Y-78759776D01*
X120280721Y-78751384D01*
X120263886Y-78741294D01*
X120248121Y-78729602D01*
X120233579Y-78716421D01*
X120220398Y-78701879D01*
X120208706Y-78686114D01*
X120198616Y-78669279D01*
X120190224Y-78651537D01*
X120183612Y-78633057D01*
X120178843Y-78614018D01*
X120175963Y-78594603D01*
X120175000Y-78575000D01*
X120175000Y-78175000D01*
X120175963Y-78155397D01*
X120178843Y-78135982D01*
X120183612Y-78116943D01*
X120190224Y-78098463D01*
X120198616Y-78080721D01*
X120208706Y-78063886D01*
X120220398Y-78048121D01*
X120233579Y-78033579D01*
X120248121Y-78020398D01*
X120263886Y-78008706D01*
X120280721Y-77998616D01*
X120298463Y-77990224D01*
X120316943Y-77983612D01*
X120335982Y-77978843D01*
X120355397Y-77975963D01*
X120375000Y-77975000D01*
X120925000Y-77975000D01*
X120944603Y-77975963D01*
G37*
G36*
X143919603Y-82075963D02*
G01*
X143939018Y-82078843D01*
X143958057Y-82083612D01*
X143976537Y-82090224D01*
X143994279Y-82098616D01*
X144011114Y-82108706D01*
X144026879Y-82120398D01*
X144041421Y-82133579D01*
X144054602Y-82148121D01*
X144066294Y-82163886D01*
X144076384Y-82180721D01*
X144084776Y-82198463D01*
X144091388Y-82216943D01*
X144096157Y-82235982D01*
X144099037Y-82255397D01*
X144100000Y-82275000D01*
X144100000Y-82825000D01*
X144099037Y-82844603D01*
X144096157Y-82864018D01*
X144091388Y-82883057D01*
X144084776Y-82901537D01*
X144076384Y-82919279D01*
X144066294Y-82936114D01*
X144054602Y-82951879D01*
X144041421Y-82966421D01*
X144026879Y-82979602D01*
X144011114Y-82991294D01*
X143994279Y-83001384D01*
X143976537Y-83009776D01*
X143958057Y-83016388D01*
X143939018Y-83021157D01*
X143919603Y-83024037D01*
X143900000Y-83025000D01*
X143500000Y-83025000D01*
X143480397Y-83024037D01*
X143460982Y-83021157D01*
X143441943Y-83016388D01*
X143423463Y-83009776D01*
X143405721Y-83001384D01*
X143388886Y-82991294D01*
X143373121Y-82979602D01*
X143358579Y-82966421D01*
X143345398Y-82951879D01*
X143333706Y-82936114D01*
X143323616Y-82919279D01*
X143315224Y-82901537D01*
X143308612Y-82883057D01*
X143303843Y-82864018D01*
X143300963Y-82844603D01*
X143300000Y-82825000D01*
X143300000Y-82275000D01*
X143300963Y-82255397D01*
X143303843Y-82235982D01*
X143308612Y-82216943D01*
X143315224Y-82198463D01*
X143323616Y-82180721D01*
X143333706Y-82163886D01*
X143345398Y-82148121D01*
X143358579Y-82133579D01*
X143373121Y-82120398D01*
X143388886Y-82108706D01*
X143405721Y-82098616D01*
X143423463Y-82090224D01*
X143441943Y-82083612D01*
X143460982Y-82078843D01*
X143480397Y-82075963D01*
X143500000Y-82075000D01*
X143900000Y-82075000D01*
X143919603Y-82075963D01*
G37*
G36*
X142269603Y-82075963D02*
G01*
X142289018Y-82078843D01*
X142308057Y-82083612D01*
X142326537Y-82090224D01*
X142344279Y-82098616D01*
X142361114Y-82108706D01*
X142376879Y-82120398D01*
X142391421Y-82133579D01*
X142404602Y-82148121D01*
X142416294Y-82163886D01*
X142426384Y-82180721D01*
X142434776Y-82198463D01*
X142441388Y-82216943D01*
X142446157Y-82235982D01*
X142449037Y-82255397D01*
X142450000Y-82275000D01*
X142450000Y-82825000D01*
X142449037Y-82844603D01*
X142446157Y-82864018D01*
X142441388Y-82883057D01*
X142434776Y-82901537D01*
X142426384Y-82919279D01*
X142416294Y-82936114D01*
X142404602Y-82951879D01*
X142391421Y-82966421D01*
X142376879Y-82979602D01*
X142361114Y-82991294D01*
X142344279Y-83001384D01*
X142326537Y-83009776D01*
X142308057Y-83016388D01*
X142289018Y-83021157D01*
X142269603Y-83024037D01*
X142250000Y-83025000D01*
X141850000Y-83025000D01*
X141830397Y-83024037D01*
X141810982Y-83021157D01*
X141791943Y-83016388D01*
X141773463Y-83009776D01*
X141755721Y-83001384D01*
X141738886Y-82991294D01*
X141723121Y-82979602D01*
X141708579Y-82966421D01*
X141695398Y-82951879D01*
X141683706Y-82936114D01*
X141673616Y-82919279D01*
X141665224Y-82901537D01*
X141658612Y-82883057D01*
X141653843Y-82864018D01*
X141650963Y-82844603D01*
X141650000Y-82825000D01*
X141650000Y-82275000D01*
X141650963Y-82255397D01*
X141653843Y-82235982D01*
X141658612Y-82216943D01*
X141665224Y-82198463D01*
X141673616Y-82180721D01*
X141683706Y-82163886D01*
X141695398Y-82148121D01*
X141708579Y-82133579D01*
X141723121Y-82120398D01*
X141738886Y-82108706D01*
X141755721Y-82098616D01*
X141773463Y-82090224D01*
X141791943Y-82083612D01*
X141810982Y-82078843D01*
X141830397Y-82075963D01*
X141850000Y-82075000D01*
X142250000Y-82075000D01*
X142269603Y-82075963D01*
G37*
D11*
X128300000Y-79560000D03*
X125700000Y-79560000D03*
D10*
G36*
X115847691Y-97301053D02*
G01*
X115868926Y-97304203D01*
X115889750Y-97309419D01*
X115909962Y-97316651D01*
X115929368Y-97325830D01*
X115947781Y-97336866D01*
X115965024Y-97349654D01*
X115980930Y-97364070D01*
X115995346Y-97379976D01*
X116008134Y-97397219D01*
X116019170Y-97415632D01*
X116028349Y-97435038D01*
X116035581Y-97455250D01*
X116040797Y-97476074D01*
X116043947Y-97497309D01*
X116045000Y-97518750D01*
X116045000Y-97956250D01*
X116043947Y-97977691D01*
X116040797Y-97998926D01*
X116035581Y-98019750D01*
X116028349Y-98039962D01*
X116019170Y-98059368D01*
X116008134Y-98077781D01*
X115995346Y-98095024D01*
X115980930Y-98110930D01*
X115965024Y-98125346D01*
X115947781Y-98138134D01*
X115929368Y-98149170D01*
X115909962Y-98158349D01*
X115889750Y-98165581D01*
X115868926Y-98170797D01*
X115847691Y-98173947D01*
X115826250Y-98175000D01*
X115313750Y-98175000D01*
X115292309Y-98173947D01*
X115271074Y-98170797D01*
X115250250Y-98165581D01*
X115230038Y-98158349D01*
X115210632Y-98149170D01*
X115192219Y-98138134D01*
X115174976Y-98125346D01*
X115159070Y-98110930D01*
X115144654Y-98095024D01*
X115131866Y-98077781D01*
X115120830Y-98059368D01*
X115111651Y-98039962D01*
X115104419Y-98019750D01*
X115099203Y-97998926D01*
X115096053Y-97977691D01*
X115095000Y-97956250D01*
X115095000Y-97518750D01*
X115096053Y-97497309D01*
X115099203Y-97476074D01*
X115104419Y-97455250D01*
X115111651Y-97435038D01*
X115120830Y-97415632D01*
X115131866Y-97397219D01*
X115144654Y-97379976D01*
X115159070Y-97364070D01*
X115174976Y-97349654D01*
X115192219Y-97336866D01*
X115210632Y-97325830D01*
X115230038Y-97316651D01*
X115250250Y-97309419D01*
X115271074Y-97304203D01*
X115292309Y-97301053D01*
X115313750Y-97300000D01*
X115826250Y-97300000D01*
X115847691Y-97301053D01*
G37*
G36*
X115847691Y-95726053D02*
G01*
X115868926Y-95729203D01*
X115889750Y-95734419D01*
X115909962Y-95741651D01*
X115929368Y-95750830D01*
X115947781Y-95761866D01*
X115965024Y-95774654D01*
X115980930Y-95789070D01*
X115995346Y-95804976D01*
X116008134Y-95822219D01*
X116019170Y-95840632D01*
X116028349Y-95860038D01*
X116035581Y-95880250D01*
X116040797Y-95901074D01*
X116043947Y-95922309D01*
X116045000Y-95943750D01*
X116045000Y-96381250D01*
X116043947Y-96402691D01*
X116040797Y-96423926D01*
X116035581Y-96444750D01*
X116028349Y-96464962D01*
X116019170Y-96484368D01*
X116008134Y-96502781D01*
X115995346Y-96520024D01*
X115980930Y-96535930D01*
X115965024Y-96550346D01*
X115947781Y-96563134D01*
X115929368Y-96574170D01*
X115909962Y-96583349D01*
X115889750Y-96590581D01*
X115868926Y-96595797D01*
X115847691Y-96598947D01*
X115826250Y-96600000D01*
X115313750Y-96600000D01*
X115292309Y-96598947D01*
X115271074Y-96595797D01*
X115250250Y-96590581D01*
X115230038Y-96583349D01*
X115210632Y-96574170D01*
X115192219Y-96563134D01*
X115174976Y-96550346D01*
X115159070Y-96535930D01*
X115144654Y-96520024D01*
X115131866Y-96502781D01*
X115120830Y-96484368D01*
X115111651Y-96464962D01*
X115104419Y-96444750D01*
X115099203Y-96423926D01*
X115096053Y-96402691D01*
X115095000Y-96381250D01*
X115095000Y-95943750D01*
X115096053Y-95922309D01*
X115099203Y-95901074D01*
X115104419Y-95880250D01*
X115111651Y-95860038D01*
X115120830Y-95840632D01*
X115131866Y-95822219D01*
X115144654Y-95804976D01*
X115159070Y-95789070D01*
X115174976Y-95774654D01*
X115192219Y-95761866D01*
X115210632Y-95750830D01*
X115230038Y-95741651D01*
X115250250Y-95734419D01*
X115271074Y-95729203D01*
X115292309Y-95726053D01*
X115313750Y-95725000D01*
X115826250Y-95725000D01*
X115847691Y-95726053D01*
G37*
G36*
X115847691Y-82981053D02*
G01*
X115868926Y-82984203D01*
X115889750Y-82989419D01*
X115909962Y-82996651D01*
X115929368Y-83005830D01*
X115947781Y-83016866D01*
X115965024Y-83029654D01*
X115980930Y-83044070D01*
X115995346Y-83059976D01*
X116008134Y-83077219D01*
X116019170Y-83095632D01*
X116028349Y-83115038D01*
X116035581Y-83135250D01*
X116040797Y-83156074D01*
X116043947Y-83177309D01*
X116045000Y-83198750D01*
X116045000Y-83636250D01*
X116043947Y-83657691D01*
X116040797Y-83678926D01*
X116035581Y-83699750D01*
X116028349Y-83719962D01*
X116019170Y-83739368D01*
X116008134Y-83757781D01*
X115995346Y-83775024D01*
X115980930Y-83790930D01*
X115965024Y-83805346D01*
X115947781Y-83818134D01*
X115929368Y-83829170D01*
X115909962Y-83838349D01*
X115889750Y-83845581D01*
X115868926Y-83850797D01*
X115847691Y-83853947D01*
X115826250Y-83855000D01*
X115313750Y-83855000D01*
X115292309Y-83853947D01*
X115271074Y-83850797D01*
X115250250Y-83845581D01*
X115230038Y-83838349D01*
X115210632Y-83829170D01*
X115192219Y-83818134D01*
X115174976Y-83805346D01*
X115159070Y-83790930D01*
X115144654Y-83775024D01*
X115131866Y-83757781D01*
X115120830Y-83739368D01*
X115111651Y-83719962D01*
X115104419Y-83699750D01*
X115099203Y-83678926D01*
X115096053Y-83657691D01*
X115095000Y-83636250D01*
X115095000Y-83198750D01*
X115096053Y-83177309D01*
X115099203Y-83156074D01*
X115104419Y-83135250D01*
X115111651Y-83115038D01*
X115120830Y-83095632D01*
X115131866Y-83077219D01*
X115144654Y-83059976D01*
X115159070Y-83044070D01*
X115174976Y-83029654D01*
X115192219Y-83016866D01*
X115210632Y-83005830D01*
X115230038Y-82996651D01*
X115250250Y-82989419D01*
X115271074Y-82984203D01*
X115292309Y-82981053D01*
X115313750Y-82980000D01*
X115826250Y-82980000D01*
X115847691Y-82981053D01*
G37*
G36*
X115847691Y-81406053D02*
G01*
X115868926Y-81409203D01*
X115889750Y-81414419D01*
X115909962Y-81421651D01*
X115929368Y-81430830D01*
X115947781Y-81441866D01*
X115965024Y-81454654D01*
X115980930Y-81469070D01*
X115995346Y-81484976D01*
X116008134Y-81502219D01*
X116019170Y-81520632D01*
X116028349Y-81540038D01*
X116035581Y-81560250D01*
X116040797Y-81581074D01*
X116043947Y-81602309D01*
X116045000Y-81623750D01*
X116045000Y-82061250D01*
X116043947Y-82082691D01*
X116040797Y-82103926D01*
X116035581Y-82124750D01*
X116028349Y-82144962D01*
X116019170Y-82164368D01*
X116008134Y-82182781D01*
X115995346Y-82200024D01*
X115980930Y-82215930D01*
X115965024Y-82230346D01*
X115947781Y-82243134D01*
X115929368Y-82254170D01*
X115909962Y-82263349D01*
X115889750Y-82270581D01*
X115868926Y-82275797D01*
X115847691Y-82278947D01*
X115826250Y-82280000D01*
X115313750Y-82280000D01*
X115292309Y-82278947D01*
X115271074Y-82275797D01*
X115250250Y-82270581D01*
X115230038Y-82263349D01*
X115210632Y-82254170D01*
X115192219Y-82243134D01*
X115174976Y-82230346D01*
X115159070Y-82215930D01*
X115144654Y-82200024D01*
X115131866Y-82182781D01*
X115120830Y-82164368D01*
X115111651Y-82144962D01*
X115104419Y-82124750D01*
X115099203Y-82103926D01*
X115096053Y-82082691D01*
X115095000Y-82061250D01*
X115095000Y-81623750D01*
X115096053Y-81602309D01*
X115099203Y-81581074D01*
X115104419Y-81560250D01*
X115111651Y-81540038D01*
X115120830Y-81520632D01*
X115131866Y-81502219D01*
X115144654Y-81484976D01*
X115159070Y-81469070D01*
X115174976Y-81454654D01*
X115192219Y-81441866D01*
X115210632Y-81430830D01*
X115230038Y-81421651D01*
X115250250Y-81414419D01*
X115271074Y-81409203D01*
X115292309Y-81406053D01*
X115313750Y-81405000D01*
X115826250Y-81405000D01*
X115847691Y-81406053D01*
G37*
G36*
X115847691Y-76326053D02*
G01*
X115868926Y-76329203D01*
X115889750Y-76334419D01*
X115909962Y-76341651D01*
X115929368Y-76350830D01*
X115947781Y-76361866D01*
X115965024Y-76374654D01*
X115980930Y-76389070D01*
X115995346Y-76404976D01*
X116008134Y-76422219D01*
X116019170Y-76440632D01*
X116028349Y-76460038D01*
X116035581Y-76480250D01*
X116040797Y-76501074D01*
X116043947Y-76522309D01*
X116045000Y-76543750D01*
X116045000Y-76981250D01*
X116043947Y-77002691D01*
X116040797Y-77023926D01*
X116035581Y-77044750D01*
X116028349Y-77064962D01*
X116019170Y-77084368D01*
X116008134Y-77102781D01*
X115995346Y-77120024D01*
X115980930Y-77135930D01*
X115965024Y-77150346D01*
X115947781Y-77163134D01*
X115929368Y-77174170D01*
X115909962Y-77183349D01*
X115889750Y-77190581D01*
X115868926Y-77195797D01*
X115847691Y-77198947D01*
X115826250Y-77200000D01*
X115313750Y-77200000D01*
X115292309Y-77198947D01*
X115271074Y-77195797D01*
X115250250Y-77190581D01*
X115230038Y-77183349D01*
X115210632Y-77174170D01*
X115192219Y-77163134D01*
X115174976Y-77150346D01*
X115159070Y-77135930D01*
X115144654Y-77120024D01*
X115131866Y-77102781D01*
X115120830Y-77084368D01*
X115111651Y-77064962D01*
X115104419Y-77044750D01*
X115099203Y-77023926D01*
X115096053Y-77002691D01*
X115095000Y-76981250D01*
X115095000Y-76543750D01*
X115096053Y-76522309D01*
X115099203Y-76501074D01*
X115104419Y-76480250D01*
X115111651Y-76460038D01*
X115120830Y-76440632D01*
X115131866Y-76422219D01*
X115144654Y-76404976D01*
X115159070Y-76389070D01*
X115174976Y-76374654D01*
X115192219Y-76361866D01*
X115210632Y-76350830D01*
X115230038Y-76341651D01*
X115250250Y-76334419D01*
X115271074Y-76329203D01*
X115292309Y-76326053D01*
X115313750Y-76325000D01*
X115826250Y-76325000D01*
X115847691Y-76326053D01*
G37*
G36*
X115847691Y-77901053D02*
G01*
X115868926Y-77904203D01*
X115889750Y-77909419D01*
X115909962Y-77916651D01*
X115929368Y-77925830D01*
X115947781Y-77936866D01*
X115965024Y-77949654D01*
X115980930Y-77964070D01*
X115995346Y-77979976D01*
X116008134Y-77997219D01*
X116019170Y-78015632D01*
X116028349Y-78035038D01*
X116035581Y-78055250D01*
X116040797Y-78076074D01*
X116043947Y-78097309D01*
X116045000Y-78118750D01*
X116045000Y-78556250D01*
X116043947Y-78577691D01*
X116040797Y-78598926D01*
X116035581Y-78619750D01*
X116028349Y-78639962D01*
X116019170Y-78659368D01*
X116008134Y-78677781D01*
X115995346Y-78695024D01*
X115980930Y-78710930D01*
X115965024Y-78725346D01*
X115947781Y-78738134D01*
X115929368Y-78749170D01*
X115909962Y-78758349D01*
X115889750Y-78765581D01*
X115868926Y-78770797D01*
X115847691Y-78773947D01*
X115826250Y-78775000D01*
X115313750Y-78775000D01*
X115292309Y-78773947D01*
X115271074Y-78770797D01*
X115250250Y-78765581D01*
X115230038Y-78758349D01*
X115210632Y-78749170D01*
X115192219Y-78738134D01*
X115174976Y-78725346D01*
X115159070Y-78710930D01*
X115144654Y-78695024D01*
X115131866Y-78677781D01*
X115120830Y-78659368D01*
X115111651Y-78639962D01*
X115104419Y-78619750D01*
X115099203Y-78598926D01*
X115096053Y-78577691D01*
X115095000Y-78556250D01*
X115095000Y-78118750D01*
X115096053Y-78097309D01*
X115099203Y-78076074D01*
X115104419Y-78055250D01*
X115111651Y-78035038D01*
X115120830Y-78015632D01*
X115131866Y-77997219D01*
X115144654Y-77979976D01*
X115159070Y-77964070D01*
X115174976Y-77949654D01*
X115192219Y-77936866D01*
X115210632Y-77925830D01*
X115230038Y-77916651D01*
X115250250Y-77909419D01*
X115271074Y-77904203D01*
X115292309Y-77901053D01*
X115313750Y-77900000D01*
X115826250Y-77900000D01*
X115847691Y-77901053D01*
G37*
D12*
X129540000Y-86865000D03*
X129540000Y-89665000D03*
X132715000Y-86865000D03*
X132715000Y-89665000D03*
D10*
G36*
X131399504Y-93891204D02*
G01*
X131423773Y-93894804D01*
X131447571Y-93900765D01*
X131470671Y-93909030D01*
X131492849Y-93919520D01*
X131513893Y-93932133D01*
X131533598Y-93946747D01*
X131551777Y-93963223D01*
X131568253Y-93981402D01*
X131582867Y-94001107D01*
X131595480Y-94022151D01*
X131605970Y-94044329D01*
X131614235Y-94067429D01*
X131620196Y-94091227D01*
X131623796Y-94115496D01*
X131625000Y-94140000D01*
X131625000Y-95090000D01*
X131623796Y-95114504D01*
X131620196Y-95138773D01*
X131614235Y-95162571D01*
X131605970Y-95185671D01*
X131595480Y-95207849D01*
X131582867Y-95228893D01*
X131568253Y-95248598D01*
X131551777Y-95266777D01*
X131533598Y-95283253D01*
X131513893Y-95297867D01*
X131492849Y-95310480D01*
X131470671Y-95320970D01*
X131447571Y-95329235D01*
X131423773Y-95335196D01*
X131399504Y-95338796D01*
X131375000Y-95340000D01*
X130875000Y-95340000D01*
X130850496Y-95338796D01*
X130826227Y-95335196D01*
X130802429Y-95329235D01*
X130779329Y-95320970D01*
X130757151Y-95310480D01*
X130736107Y-95297867D01*
X130716402Y-95283253D01*
X130698223Y-95266777D01*
X130681747Y-95248598D01*
X130667133Y-95228893D01*
X130654520Y-95207849D01*
X130644030Y-95185671D01*
X130635765Y-95162571D01*
X130629804Y-95138773D01*
X130626204Y-95114504D01*
X130625000Y-95090000D01*
X130625000Y-94140000D01*
X130626204Y-94115496D01*
X130629804Y-94091227D01*
X130635765Y-94067429D01*
X130644030Y-94044329D01*
X130654520Y-94022151D01*
X130667133Y-94001107D01*
X130681747Y-93981402D01*
X130698223Y-93963223D01*
X130716402Y-93946747D01*
X130736107Y-93932133D01*
X130757151Y-93919520D01*
X130779329Y-93909030D01*
X130802429Y-93900765D01*
X130826227Y-93894804D01*
X130850496Y-93891204D01*
X130875000Y-93890000D01*
X131375000Y-93890000D01*
X131399504Y-93891204D01*
G37*
G36*
X129499504Y-93891204D02*
G01*
X129523773Y-93894804D01*
X129547571Y-93900765D01*
X129570671Y-93909030D01*
X129592849Y-93919520D01*
X129613893Y-93932133D01*
X129633598Y-93946747D01*
X129651777Y-93963223D01*
X129668253Y-93981402D01*
X129682867Y-94001107D01*
X129695480Y-94022151D01*
X129705970Y-94044329D01*
X129714235Y-94067429D01*
X129720196Y-94091227D01*
X129723796Y-94115496D01*
X129725000Y-94140000D01*
X129725000Y-95090000D01*
X129723796Y-95114504D01*
X129720196Y-95138773D01*
X129714235Y-95162571D01*
X129705970Y-95185671D01*
X129695480Y-95207849D01*
X129682867Y-95228893D01*
X129668253Y-95248598D01*
X129651777Y-95266777D01*
X129633598Y-95283253D01*
X129613893Y-95297867D01*
X129592849Y-95310480D01*
X129570671Y-95320970D01*
X129547571Y-95329235D01*
X129523773Y-95335196D01*
X129499504Y-95338796D01*
X129475000Y-95340000D01*
X128975000Y-95340000D01*
X128950496Y-95338796D01*
X128926227Y-95335196D01*
X128902429Y-95329235D01*
X128879329Y-95320970D01*
X128857151Y-95310480D01*
X128836107Y-95297867D01*
X128816402Y-95283253D01*
X128798223Y-95266777D01*
X128781747Y-95248598D01*
X128767133Y-95228893D01*
X128754520Y-95207849D01*
X128744030Y-95185671D01*
X128735765Y-95162571D01*
X128729804Y-95138773D01*
X128726204Y-95114504D01*
X128725000Y-95090000D01*
X128725000Y-94140000D01*
X128726204Y-94115496D01*
X128729804Y-94091227D01*
X128735765Y-94067429D01*
X128744030Y-94044329D01*
X128754520Y-94022151D01*
X128767133Y-94001107D01*
X128781747Y-93981402D01*
X128798223Y-93963223D01*
X128816402Y-93946747D01*
X128836107Y-93932133D01*
X128857151Y-93919520D01*
X128879329Y-93909030D01*
X128902429Y-93900765D01*
X128926227Y-93894804D01*
X128950496Y-93891204D01*
X128975000Y-93890000D01*
X129475000Y-93890000D01*
X129499504Y-93891204D01*
G37*
G36*
X139654504Y-86906204D02*
G01*
X139678773Y-86909804D01*
X139702571Y-86915765D01*
X139725671Y-86924030D01*
X139747849Y-86934520D01*
X139768893Y-86947133D01*
X139788598Y-86961747D01*
X139806777Y-86978223D01*
X139823253Y-86996402D01*
X139837867Y-87016107D01*
X139850480Y-87037151D01*
X139860970Y-87059329D01*
X139869235Y-87082429D01*
X139875196Y-87106227D01*
X139878796Y-87130496D01*
X139880000Y-87155000D01*
X139880000Y-88105000D01*
X139878796Y-88129504D01*
X139875196Y-88153773D01*
X139869235Y-88177571D01*
X139860970Y-88200671D01*
X139850480Y-88222849D01*
X139837867Y-88243893D01*
X139823253Y-88263598D01*
X139806777Y-88281777D01*
X139788598Y-88298253D01*
X139768893Y-88312867D01*
X139747849Y-88325480D01*
X139725671Y-88335970D01*
X139702571Y-88344235D01*
X139678773Y-88350196D01*
X139654504Y-88353796D01*
X139630000Y-88355000D01*
X139130000Y-88355000D01*
X139105496Y-88353796D01*
X139081227Y-88350196D01*
X139057429Y-88344235D01*
X139034329Y-88335970D01*
X139012151Y-88325480D01*
X138991107Y-88312867D01*
X138971402Y-88298253D01*
X138953223Y-88281777D01*
X138936747Y-88263598D01*
X138922133Y-88243893D01*
X138909520Y-88222849D01*
X138899030Y-88200671D01*
X138890765Y-88177571D01*
X138884804Y-88153773D01*
X138881204Y-88129504D01*
X138880000Y-88105000D01*
X138880000Y-87155000D01*
X138881204Y-87130496D01*
X138884804Y-87106227D01*
X138890765Y-87082429D01*
X138899030Y-87059329D01*
X138909520Y-87037151D01*
X138922133Y-87016107D01*
X138936747Y-86996402D01*
X138953223Y-86978223D01*
X138971402Y-86961747D01*
X138991107Y-86947133D01*
X139012151Y-86934520D01*
X139034329Y-86924030D01*
X139057429Y-86915765D01*
X139081227Y-86909804D01*
X139105496Y-86906204D01*
X139130000Y-86905000D01*
X139630000Y-86905000D01*
X139654504Y-86906204D01*
G37*
G36*
X137754504Y-86906204D02*
G01*
X137778773Y-86909804D01*
X137802571Y-86915765D01*
X137825671Y-86924030D01*
X137847849Y-86934520D01*
X137868893Y-86947133D01*
X137888598Y-86961747D01*
X137906777Y-86978223D01*
X137923253Y-86996402D01*
X137937867Y-87016107D01*
X137950480Y-87037151D01*
X137960970Y-87059329D01*
X137969235Y-87082429D01*
X137975196Y-87106227D01*
X137978796Y-87130496D01*
X137980000Y-87155000D01*
X137980000Y-88105000D01*
X137978796Y-88129504D01*
X137975196Y-88153773D01*
X137969235Y-88177571D01*
X137960970Y-88200671D01*
X137950480Y-88222849D01*
X137937867Y-88243893D01*
X137923253Y-88263598D01*
X137906777Y-88281777D01*
X137888598Y-88298253D01*
X137868893Y-88312867D01*
X137847849Y-88325480D01*
X137825671Y-88335970D01*
X137802571Y-88344235D01*
X137778773Y-88350196D01*
X137754504Y-88353796D01*
X137730000Y-88355000D01*
X137230000Y-88355000D01*
X137205496Y-88353796D01*
X137181227Y-88350196D01*
X137157429Y-88344235D01*
X137134329Y-88335970D01*
X137112151Y-88325480D01*
X137091107Y-88312867D01*
X137071402Y-88298253D01*
X137053223Y-88281777D01*
X137036747Y-88263598D01*
X137022133Y-88243893D01*
X137009520Y-88222849D01*
X136999030Y-88200671D01*
X136990765Y-88177571D01*
X136984804Y-88153773D01*
X136981204Y-88129504D01*
X136980000Y-88105000D01*
X136980000Y-87155000D01*
X136981204Y-87130496D01*
X136984804Y-87106227D01*
X136990765Y-87082429D01*
X136999030Y-87059329D01*
X137009520Y-87037151D01*
X137022133Y-87016107D01*
X137036747Y-86996402D01*
X137053223Y-86978223D01*
X137071402Y-86961747D01*
X137091107Y-86947133D01*
X137112151Y-86934520D01*
X137134329Y-86924030D01*
X137157429Y-86915765D01*
X137181227Y-86909804D01*
X137205496Y-86906204D01*
X137230000Y-86905000D01*
X137730000Y-86905000D01*
X137754504Y-86906204D01*
G37*
G36*
X123784504Y-85636204D02*
G01*
X123808773Y-85639804D01*
X123832571Y-85645765D01*
X123855671Y-85654030D01*
X123877849Y-85664520D01*
X123898893Y-85677133D01*
X123918598Y-85691747D01*
X123936777Y-85708223D01*
X123953253Y-85726402D01*
X123967867Y-85746107D01*
X123980480Y-85767151D01*
X123990970Y-85789329D01*
X123999235Y-85812429D01*
X124005196Y-85836227D01*
X124008796Y-85860496D01*
X124010000Y-85885000D01*
X124010000Y-86835000D01*
X124008796Y-86859504D01*
X124005196Y-86883773D01*
X123999235Y-86907571D01*
X123990970Y-86930671D01*
X123980480Y-86952849D01*
X123967867Y-86973893D01*
X123953253Y-86993598D01*
X123936777Y-87011777D01*
X123918598Y-87028253D01*
X123898893Y-87042867D01*
X123877849Y-87055480D01*
X123855671Y-87065970D01*
X123832571Y-87074235D01*
X123808773Y-87080196D01*
X123784504Y-87083796D01*
X123760000Y-87085000D01*
X123260000Y-87085000D01*
X123235496Y-87083796D01*
X123211227Y-87080196D01*
X123187429Y-87074235D01*
X123164329Y-87065970D01*
X123142151Y-87055480D01*
X123121107Y-87042867D01*
X123101402Y-87028253D01*
X123083223Y-87011777D01*
X123066747Y-86993598D01*
X123052133Y-86973893D01*
X123039520Y-86952849D01*
X123029030Y-86930671D01*
X123020765Y-86907571D01*
X123014804Y-86883773D01*
X123011204Y-86859504D01*
X123010000Y-86835000D01*
X123010000Y-85885000D01*
X123011204Y-85860496D01*
X123014804Y-85836227D01*
X123020765Y-85812429D01*
X123029030Y-85789329D01*
X123039520Y-85767151D01*
X123052133Y-85746107D01*
X123066747Y-85726402D01*
X123083223Y-85708223D01*
X123101402Y-85691747D01*
X123121107Y-85677133D01*
X123142151Y-85664520D01*
X123164329Y-85654030D01*
X123187429Y-85645765D01*
X123211227Y-85639804D01*
X123235496Y-85636204D01*
X123260000Y-85635000D01*
X123760000Y-85635000D01*
X123784504Y-85636204D01*
G37*
G36*
X125684504Y-85636204D02*
G01*
X125708773Y-85639804D01*
X125732571Y-85645765D01*
X125755671Y-85654030D01*
X125777849Y-85664520D01*
X125798893Y-85677133D01*
X125818598Y-85691747D01*
X125836777Y-85708223D01*
X125853253Y-85726402D01*
X125867867Y-85746107D01*
X125880480Y-85767151D01*
X125890970Y-85789329D01*
X125899235Y-85812429D01*
X125905196Y-85836227D01*
X125908796Y-85860496D01*
X125910000Y-85885000D01*
X125910000Y-86835000D01*
X125908796Y-86859504D01*
X125905196Y-86883773D01*
X125899235Y-86907571D01*
X125890970Y-86930671D01*
X125880480Y-86952849D01*
X125867867Y-86973893D01*
X125853253Y-86993598D01*
X125836777Y-87011777D01*
X125818598Y-87028253D01*
X125798893Y-87042867D01*
X125777849Y-87055480D01*
X125755671Y-87065970D01*
X125732571Y-87074235D01*
X125708773Y-87080196D01*
X125684504Y-87083796D01*
X125660000Y-87085000D01*
X125160000Y-87085000D01*
X125135496Y-87083796D01*
X125111227Y-87080196D01*
X125087429Y-87074235D01*
X125064329Y-87065970D01*
X125042151Y-87055480D01*
X125021107Y-87042867D01*
X125001402Y-87028253D01*
X124983223Y-87011777D01*
X124966747Y-86993598D01*
X124952133Y-86973893D01*
X124939520Y-86952849D01*
X124929030Y-86930671D01*
X124920765Y-86907571D01*
X124914804Y-86883773D01*
X124911204Y-86859504D01*
X124910000Y-86835000D01*
X124910000Y-85885000D01*
X124911204Y-85860496D01*
X124914804Y-85836227D01*
X124920765Y-85812429D01*
X124929030Y-85789329D01*
X124939520Y-85767151D01*
X124952133Y-85746107D01*
X124966747Y-85726402D01*
X124983223Y-85708223D01*
X125001402Y-85691747D01*
X125021107Y-85677133D01*
X125042151Y-85664520D01*
X125064329Y-85654030D01*
X125087429Y-85645765D01*
X125111227Y-85639804D01*
X125135496Y-85636204D01*
X125160000Y-85635000D01*
X125660000Y-85635000D01*
X125684504Y-85636204D01*
G37*
G36*
X144009504Y-87446204D02*
G01*
X144033773Y-87449804D01*
X144057571Y-87455765D01*
X144080671Y-87464030D01*
X144102849Y-87474520D01*
X144123893Y-87487133D01*
X144143598Y-87501747D01*
X144161777Y-87518223D01*
X144178253Y-87536402D01*
X144192867Y-87556107D01*
X144205480Y-87577151D01*
X144215970Y-87599329D01*
X144224235Y-87622429D01*
X144230196Y-87646227D01*
X144233796Y-87670496D01*
X144235000Y-87695000D01*
X144235000Y-88195000D01*
X144233796Y-88219504D01*
X144230196Y-88243773D01*
X144224235Y-88267571D01*
X144215970Y-88290671D01*
X144205480Y-88312849D01*
X144192867Y-88333893D01*
X144178253Y-88353598D01*
X144161777Y-88371777D01*
X144143598Y-88388253D01*
X144123893Y-88402867D01*
X144102849Y-88415480D01*
X144080671Y-88425970D01*
X144057571Y-88434235D01*
X144033773Y-88440196D01*
X144009504Y-88443796D01*
X143985000Y-88445000D01*
X143035000Y-88445000D01*
X143010496Y-88443796D01*
X142986227Y-88440196D01*
X142962429Y-88434235D01*
X142939329Y-88425970D01*
X142917151Y-88415480D01*
X142896107Y-88402867D01*
X142876402Y-88388253D01*
X142858223Y-88371777D01*
X142841747Y-88353598D01*
X142827133Y-88333893D01*
X142814520Y-88312849D01*
X142804030Y-88290671D01*
X142795765Y-88267571D01*
X142789804Y-88243773D01*
X142786204Y-88219504D01*
X142785000Y-88195000D01*
X142785000Y-87695000D01*
X142786204Y-87670496D01*
X142789804Y-87646227D01*
X142795765Y-87622429D01*
X142804030Y-87599329D01*
X142814520Y-87577151D01*
X142827133Y-87556107D01*
X142841747Y-87536402D01*
X142858223Y-87518223D01*
X142876402Y-87501747D01*
X142896107Y-87487133D01*
X142917151Y-87474520D01*
X142939329Y-87464030D01*
X142962429Y-87455765D01*
X142986227Y-87449804D01*
X143010496Y-87446204D01*
X143035000Y-87445000D01*
X143985000Y-87445000D01*
X144009504Y-87446204D01*
G37*
G36*
X144009504Y-85546204D02*
G01*
X144033773Y-85549804D01*
X144057571Y-85555765D01*
X144080671Y-85564030D01*
X144102849Y-85574520D01*
X144123893Y-85587133D01*
X144143598Y-85601747D01*
X144161777Y-85618223D01*
X144178253Y-85636402D01*
X144192867Y-85656107D01*
X144205480Y-85677151D01*
X144215970Y-85699329D01*
X144224235Y-85722429D01*
X144230196Y-85746227D01*
X144233796Y-85770496D01*
X144235000Y-85795000D01*
X144235000Y-86295000D01*
X144233796Y-86319504D01*
X144230196Y-86343773D01*
X144224235Y-86367571D01*
X144215970Y-86390671D01*
X144205480Y-86412849D01*
X144192867Y-86433893D01*
X144178253Y-86453598D01*
X144161777Y-86471777D01*
X144143598Y-86488253D01*
X144123893Y-86502867D01*
X144102849Y-86515480D01*
X144080671Y-86525970D01*
X144057571Y-86534235D01*
X144033773Y-86540196D01*
X144009504Y-86543796D01*
X143985000Y-86545000D01*
X143035000Y-86545000D01*
X143010496Y-86543796D01*
X142986227Y-86540196D01*
X142962429Y-86534235D01*
X142939329Y-86525970D01*
X142917151Y-86515480D01*
X142896107Y-86502867D01*
X142876402Y-86488253D01*
X142858223Y-86471777D01*
X142841747Y-86453598D01*
X142827133Y-86433893D01*
X142814520Y-86412849D01*
X142804030Y-86390671D01*
X142795765Y-86367571D01*
X142789804Y-86343773D01*
X142786204Y-86319504D01*
X142785000Y-86295000D01*
X142785000Y-85795000D01*
X142786204Y-85770496D01*
X142789804Y-85746227D01*
X142795765Y-85722429D01*
X142804030Y-85699329D01*
X142814520Y-85677151D01*
X142827133Y-85656107D01*
X142841747Y-85636402D01*
X142858223Y-85618223D01*
X142876402Y-85601747D01*
X142896107Y-85587133D01*
X142917151Y-85574520D01*
X142939329Y-85564030D01*
X142962429Y-85555765D01*
X142986227Y-85549804D01*
X143010496Y-85546204D01*
X143035000Y-85545000D01*
X143985000Y-85545000D01*
X144009504Y-85546204D01*
G37*
M02*
